<?xml version="1.0" encoding="UTF-8"?>
<!DOCTYPE svg PUBLIC "-//W3C//DTD SVG 1.1//EN" "http://www.w3.org/Graphics/SVG/1.1/DTD/svg11.dtd">
<svg xmlns="http://www.w3.org/2000/svg" version="1.1" viewBox="0 0 512 512" style="shape-rendering:geometricPrecision; text-rendering:geometricPrecision; image-rendering:optimizeQuality; fill-rule:evenodd; clip-rule:evenodd" xmlns:xlink="http://www.w3.org/1999/xlink">
<g><path style="opacity:0.979" fill="#010201" d="M 309.5,-0.5 C 314.167,-0.5 318.833,-0.5 323.5,-0.5C 329.31,1.8011 334.143,5.46777 338,10.5C 340.593,17.5879 342.093,24.9212 342.5,32.5C 406.141,59.4744 451.474,104.808 478.5,168.5C 488.874,168.195 498.041,171.195 506,177.5C 508.13,180.767 509.963,184.1 511.5,187.5C 511.5,192.167 511.5,196.833 511.5,201.5C 507.691,209.762 501.357,215.262 492.5,218C 501.053,264.306 496.886,309.473 480,353.5C 477.873,357.483 474.707,358.816 470.5,357.5C 467.413,355.919 465.747,353.419 465.5,350C 471.827,330.858 476.66,311.358 480,291.5C 482.801,266.651 481.801,241.984 477,217.5C 452.163,216.223 429.997,223.39 410.5,239C 393.67,254.818 379.503,272.651 368,292.5C 355.017,319.137 341.017,345.137 326,370.5C 312.253,391.581 295.086,409.414 274.5,424C 255.223,435.371 234.556,442.204 212.5,444.5C 188.614,446.682 165.947,442.515 144.5,432C 141.814,429.454 140.814,426.287 141.5,422.5C 142.871,420.056 145.038,418.722 148,418.5C 159.744,423.414 171.911,426.914 184.5,429C 195.674,429.826 206.674,429.659 217.5,428.5C 248.018,424.158 273.518,410.491 294,387.5C 301.717,378.117 309.051,368.451 316,358.5C 328.509,336.15 340.509,313.483 352,290.5C 367.084,261.413 387.918,237.246 414.5,218C 438.162,204.943 463.495,199.61 490.5,202C 497.997,197.043 498.33,191.71 491.5,186C 455.261,181.142 422.928,190.142 394.5,213C 372.529,232.634 354.695,255.467 341,281.5C 329.03,308.12 315.03,333.454 299,357.5C 286.793,374.041 272.293,388.208 255.5,400C 240.919,408.36 225.252,413.194 208.5,414.5C 166.398,415.535 133.898,398.535 111,363.5C 84.526,309.907 93.6927,263.407 138.5,224C 151.134,213.682 164.467,204.348 178.5,196C 199.212,185.647 219.546,174.814 239.5,163.5C 261.756,151.427 281.256,135.76 298,116.5C 301.082,112.266 303.916,107.933 306.5,103.5C 323.684,78.0715 329.851,50.0715 325,19.5C 319.715,12.8441 314.382,12.8441 309,19.5C 312.878,63.2306 298.378,99.3973 265.5,128C 256.782,135.052 247.782,141.719 238.5,148C 235.007,148.869 232.007,148.036 229.5,145.5C 228.565,142.887 228.398,140.221 229,137.5C 244.178,126.998 258.178,114.998 271,101.5C 286.914,81.7568 294.414,59.2568 293.5,34C 197.178,18.7694 119.012,49.2694 59,125.5C 7.73262,201.519 0.732616,281.519 38,365.5C 76.59,438.919 137.09,482.086 219.5,495C 227.464,496.098 235.464,496.598 243.5,496.5C 334.648,495.03 403.814,455.697 451,378.5C 454.001,374.469 457.834,373.469 462.5,375.5C 465.303,378.204 466.137,381.537 465,385.5C 420.728,459.552 355.561,501.552 269.5,511.5C 255.167,511.5 240.833,511.5 226.5,511.5C 133.748,500.226 65.915,453.226 23,370.5C 10.6188,343.296 2.78543,314.963 -0.5,285.5C -0.5,270.5 -0.5,255.5 -0.5,240.5C 10.5602,151.837 54.8936,85.6707 132.5,42C 183.382,16.1194 236.882,8.28608 293,18.5C 294.473,14.2211 296.473,10.2211 299,6.5C 302.308,3.77106 305.808,1.43772 309.5,-0.5 Z"/></g>
<g><path style="opacity:1" fill="#d9d8f0" d="M 306.5,103.5 C 306.44,102.957 306.107,102.624 305.5,102.5C 279.928,118.896 257.595,139.063 238.5,163C 238.728,163.399 239.062,163.565 239.5,163.5C 219.546,174.814 199.212,185.647 178.5,196C 164.467,204.348 151.134,213.682 138.5,224C 93.6927,263.407 84.526,309.907 111,363.5C 133.898,398.535 166.398,415.535 208.5,414.5C 209.424,418.941 210.758,423.275 212.5,427.5C 214.045,428.452 215.712,428.785 217.5,428.5C 206.674,429.659 195.674,429.826 184.5,429C 171.911,426.914 159.744,423.414 148,418.5C 145.038,418.722 142.871,420.056 141.5,422.5C 135.594,419.581 130.26,415.915 125.5,411.5C 126.984,408.416 126.818,405.416 125,402.5C 91.6489,373.474 77.3155,336.807 82,292.5C 87.004,262.988 100.504,238.155 122.5,218C 132.932,208.899 143.932,200.565 155.5,193C 173.675,183.079 192.009,173.412 210.5,164C 212.227,161.096 212.893,157.93 212.5,154.5C 218.035,151.233 223.702,148.233 229.5,145.5C 232.007,148.036 235.007,148.869 238.5,148C 247.782,141.719 256.782,135.052 265.5,128C 298.378,99.3973 312.878,63.2306 309,19.5C 314.382,12.8441 319.715,12.8441 325,19.5C 329.851,50.0715 323.684,78.0715 306.5,103.5 Z"/></g>
<g><path style="opacity:1" fill="#00bf3f" d="M 229.5,145.5 C 223.702,148.233 218.035,151.233 212.5,154.5C 210.132,151.647 207.132,150.481 203.5,151C 178.034,162.893 153.701,176.56 130.5,192C 73.0482,234.022 54.5482,289.188 75,357.5C 83.4746,379.954 96.9746,398.788 115.5,414C 119.327,414.976 122.66,414.143 125.5,411.5C 130.26,415.915 135.594,419.581 141.5,422.5C 140.814,426.287 141.814,429.454 144.5,432C 165.947,442.515 188.614,446.682 212.5,444.5C 215.119,444.232 217.619,444.565 220,445.5C 227.162,462.826 234.996,479.826 243.5,496.5C 235.464,496.598 227.464,496.098 219.5,495C 137.09,482.086 76.59,438.919 38,365.5C 0.732616,281.519 7.73262,201.519 59,125.5C 119.012,49.2694 197.178,18.7694 293.5,34C 294.414,59.2568 286.914,81.7568 271,101.5C 258.178,114.998 244.178,126.998 229,137.5C 228.398,140.221 228.565,142.887 229.5,145.5 Z"/></g>
<g><path style="opacity:1" fill="#00bc3e" d="M 372.5,65.5 C 371.878,67.335 370.544,68.5017 368.5,69C 356.681,73.8263 345.181,79.3263 334,85.5C 333.601,85.2716 333.435,84.9382 333.5,84.5C 337.242,73.1248 339.575,61.4582 340.5,49.5C 351.687,53.76 362.353,59.0934 372.5,65.5 Z"/></g>
<g><path style="opacity:1" fill="#29cd68" d="M 372.5,65.5 C 413.18,91.2106 442.847,126.211 461.5,170.5C 429.193,173.49 401.193,185.99 377.5,208C 363.209,221.786 350.709,236.952 340,253.5C 326.412,278.341 313.079,303.341 300,328.5C 288.926,347.77 275.093,364.937 258.5,380C 242.344,392.553 224.01,399.053 203.5,399.5C 198.442,383.487 194.775,367.154 192.5,350.5C 190.585,350.784 188.919,350.451 187.5,349.5C 206.102,348.406 217.602,338.739 222,320.5C 222.288,305.286 214.788,297.286 199.5,296.5C 199.628,294.345 199.128,292.345 198,290.5C 195.295,287.964 192.795,285.297 190.5,282.5C 193.192,250.425 202.525,220.425 218.5,192.5C 245.157,180.176 269.49,164.343 291.5,145C 309.861,127.751 323.861,107.584 333.5,84.5C 333.435,84.9382 333.601,85.2716 334,85.5C 345.181,79.3263 356.681,73.8263 368.5,69C 370.544,68.5017 371.878,67.335 372.5,65.5 Z"/></g>
<g><path style="opacity:1" fill="#e5e5f3" d="M 306.5,103.5 C 303.916,107.933 301.082,112.266 298,116.5C 281.256,135.76 261.756,151.427 239.5,163.5C 239.062,163.565 238.728,163.399 238.5,163C 257.595,139.063 279.928,118.896 305.5,102.5C 306.107,102.624 306.44,102.957 306.5,103.5 Z"/></g>
<g><path style="opacity:1" fill="#020403" d="M 212.5,154.5 C 212.893,157.93 212.227,161.096 210.5,164C 192.009,173.412 173.675,183.079 155.5,193C 143.932,200.565 132.932,208.899 122.5,218C 100.504,238.155 87.004,262.988 82,292.5C 77.3155,336.807 91.6489,373.474 125,402.5C 126.818,405.416 126.984,408.416 125.5,411.5C 122.66,414.143 119.327,414.976 115.5,414C 96.9746,398.788 83.4746,379.954 75,357.5C 54.5482,289.188 73.0482,234.022 130.5,192C 153.701,176.56 178.034,162.893 203.5,151C 207.132,150.481 210.132,151.647 212.5,154.5 Z"/></g>
<g><path style="opacity:1" fill="#fdfefd" d="M 281.5,214.5 C 287.593,211.594 288.926,207.26 285.5,201.5C 293.256,188.789 304.59,183.289 319.5,185C 331.442,189.378 336.275,197.878 334,210.5C 329.054,226.614 318.221,235.614 301.5,237.5C 288.416,235.416 281.749,227.749 281.5,214.5 Z"/></g>
<g><path style="opacity:1" fill="#e6e6f4" d="M 217.5,428.5 C 215.712,428.785 214.045,428.452 212.5,427.5C 210.758,423.275 209.424,418.941 208.5,414.5C 225.252,413.194 240.919,408.36 255.5,400C 272.293,388.208 286.793,374.041 299,357.5C 315.03,333.454 329.03,308.12 341,281.5C 354.695,255.467 372.529,232.634 394.5,213C 422.928,190.142 455.261,181.142 491.5,186C 498.33,191.71 497.997,197.043 490.5,202C 463.495,199.61 438.162,204.943 414.5,218C 387.918,237.246 367.084,261.413 352,290.5C 340.509,313.483 328.509,336.15 316,358.5C 309.051,368.451 301.717,378.117 294,387.5C 273.518,410.491 248.018,424.158 217.5,428.5 Z"/></g>
<g><path style="opacity:1" fill="#020603" d="M 285.5,201.5 C 288.926,207.26 287.593,211.594 281.5,214.5C 279.345,214.628 277.345,214.128 275.5,213C 272.333,209.833 269.167,206.667 266,203.5C 262.705,194.242 265.872,190.409 275.5,192C 278.703,195.371 282.036,198.538 285.5,201.5 Z"/></g>
<g><path style="opacity:1" fill="#00c03f" d="M 218.5,192.5 C 202.525,220.425 193.192,250.425 190.5,282.5C 185.997,278.555 181.497,278.555 177,282.5C 176.333,285.167 176.333,287.833 177,290.5C 180.371,293.703 183.538,297.036 186.5,300.5C 171.243,310.02 166.41,323.353 172,340.5C 175.629,346.229 180.796,349.229 187.5,349.5C 188.919,350.451 190.585,350.784 192.5,350.5C 194.775,367.154 198.442,383.487 203.5,399.5C 159.745,398.538 130.245,377.538 115,336.5C 104.746,295.596 115.912,261.763 148.5,235C 169.894,217.801 193.227,203.634 218.5,192.5 Z"/></g>
<g><path style="opacity:1" fill="#28cd68" d="M 470.5,357.5 C 467.836,363.496 465.169,369.496 462.5,375.5C 457.834,373.469 454.001,374.469 451,378.5C 403.814,455.697 334.648,495.03 243.5,496.5C 234.996,479.826 227.162,462.826 220,445.5C 217.619,444.565 215.119,444.232 212.5,444.5C 234.556,442.204 255.223,435.371 274.5,424C 295.086,409.414 312.253,391.581 326,370.5C 341.017,345.137 355.017,319.137 368,292.5C 379.503,272.651 393.67,254.818 410.5,239C 429.997,223.39 452.163,216.223 477,217.5C 481.801,241.984 482.801,266.651 480,291.5C 476.66,311.358 471.827,330.858 465.5,350C 465.747,353.419 467.413,355.919 470.5,357.5 Z"/></g>
<g><path style="opacity:1" fill="#020703" d="M 244.5,231.5 C 248.426,231.047 251.592,232.38 254,235.5C 255.865,251.972 249.032,263.139 233.5,269C 229.167,269.667 224.833,269.667 220.5,269C 214.912,263.933 215.245,259.267 221.5,255C 234.333,255.5 240.5,249.333 240,236.5C 241.707,234.963 243.207,233.296 244.5,231.5 Z"/></g>
<g><path style="opacity:1" fill="#020603" d="M 190.5,282.5 C 192.795,285.297 195.295,287.964 198,290.5C 199.128,292.345 199.628,294.345 199.5,296.5C 196.594,302.593 192.26,303.926 186.5,300.5C 183.538,297.036 180.371,293.703 177,290.5C 176.333,287.833 176.333,285.167 177,282.5C 181.497,278.555 185.997,278.555 190.5,282.5 Z"/></g>
<g><path style="opacity:1" fill="#fcfefd" d="M 199.5,296.5 C 214.788,297.286 222.288,305.286 222,320.5C 217.602,338.739 206.102,348.406 187.5,349.5C 180.796,349.229 175.629,346.229 172,340.5C 166.41,323.353 171.243,310.02 186.5,300.5C 192.26,303.926 196.594,302.593 199.5,296.5 Z"/></g>
</svg>
