<?xml version="1.0" encoding="UTF-8"?>
<!DOCTYPE svg PUBLIC "-//W3C//DTD SVG 1.1//EN" "http://www.w3.org/Graphics/SVG/1.1/DTD/svg11.dtd">
<svg xmlns="http://www.w3.org/2000/svg" version="1.1" viewBox="0 0 512 512" style="shape-rendering:geometricPrecision; text-rendering:geometricPrecision; image-rendering:optimizeQuality; fill-rule:evenodd; clip-rule:evenodd" xmlns:xlink="http://www.w3.org/1999/xlink">
<g><path style="opacity:0.982" fill="#ffe056" d="M 250.5,-0.5 C 254.5,-0.5 258.5,-0.5 262.5,-0.5C 269.227,11.9522 275.727,24.6189 282,37.5C 282.833,38.3333 283.667,39.1667 284.5,40C 298.416,42.7637 312.416,45.0971 326.5,47C 333.089,51.2326 334.256,56.7326 330,63.5C 320,72.1667 310.667,81.5 302,91.5C 301.598,92.8721 301.098,94.2054 300.5,95.5C 302.09,102.451 303.423,109.451 304.5,116.5C 269.236,108.069 248.069,86.0688 241,50.5C 240.333,42.5 240.333,34.5 241,26.5C 242.944,17.8352 245.777,9.50186 249.5,1.5C 249.833,0.833333 250.167,0.166667 250.5,-0.5 Z"/></g>
<g><path style="opacity:1" fill="#feaa4f" d="M 249.5,1.5 C 245.777,9.50186 242.944,17.8352 241,26.5C 240.333,34.5 240.333,42.5 241,50.5C 248.069,86.0688 269.236,108.069 304.5,116.5C 305.993,123.448 306.826,130.448 307,137.5C 305.151,142.183 301.651,144.516 296.5,144.5C 286.964,139.232 277.297,134.232 267.5,129.5C 263.492,125.998 258.825,124.498 253.5,125C 241.108,131.528 228.775,138.028 216.5,144.5C 209.672,144.593 206.005,141.26 205.5,134.5C 207.57,121.244 209.903,108.077 212.5,95C 211.671,93.1839 210.837,91.3506 210,89.5C 200.97,80.1361 191.637,71.1361 182,62.5C 178.834,55.8222 180.334,50.6556 186.5,47C 200.584,45.0971 214.584,42.7637 228.5,40C 235.924,27.3131 242.924,14.4798 249.5,1.5 Z"/></g>
<g><path style="opacity:1" fill="#017a4d" d="M 267.5,129.5 C 244.23,167.197 220.563,204.697 196.5,242C 196.728,242.399 197.062,242.565 197.5,242.5C 180.183,249.107 171.85,261.774 172.5,280.5C 161.108,297.599 149.942,314.932 139,332.5C 137.087,339.03 138.92,344.03 144.5,347.5C 136.833,347.5 129.167,347.5 121.5,347.5C 114.385,347.925 107.385,347.425 100.5,346C 96.7973,342.604 95.6306,338.437 97,333.5C 136.662,270.349 176.496,207.349 216.5,144.5C 228.775,138.028 241.108,131.528 253.5,125C 258.825,124.498 263.492,125.998 267.5,129.5 Z"/></g>
<g><path style="opacity:0.996" fill="#00935c" d="M 267.5,129.5 C 277.297,134.232 286.964,139.232 296.5,144.5C 302.931,155.04 309.598,165.373 316.5,175.5C 296.713,189.651 292.88,207.318 305,228.5C 315.246,240.421 327.746,244.087 342.5,239.5C 346.548,238.642 350.215,236.975 353.5,234.5C 374.822,267.134 395.656,300.134 416,333.5C 417.369,338.437 416.203,342.604 412.5,346C 405.615,347.425 398.615,347.925 391.5,347.5C 315.5,347.5 239.5,347.5 163.5,347.5C 157.167,347.5 150.833,347.5 144.5,347.5C 138.92,344.03 137.087,339.03 139,332.5C 149.942,314.932 161.108,297.599 172.5,280.5C 178.594,304.372 193.594,313.705 217.5,308.5C 232.911,303.192 240.911,292.359 241.5,276C 240.501,259.493 232.168,248.66 216.5,243.5C 210.385,241.289 204.051,240.955 197.5,242.5C 197.062,242.565 196.728,242.399 196.5,242C 220.563,204.697 244.23,167.197 267.5,129.5 Z"/></g>
<g><path style="opacity:1" fill="#b6e3f6" d="M 342.5,173.5 C 318.652,185.552 312.819,203.552 325,227.5C 329.45,233.632 335.283,237.632 342.5,239.5C 327.746,244.087 315.246,240.421 305,228.5C 292.88,207.318 296.713,189.651 316.5,175.5C 324.97,172.429 333.637,171.762 342.5,173.5 Z"/></g>
<g><path style="opacity:0.98" fill="#d9eff9" d="M 342.5,173.5 C 364.655,183.103 371.822,199.436 364,222.5C 361.322,227.337 357.822,231.337 353.5,234.5C 350.215,236.975 346.548,238.642 342.5,239.5C 335.283,237.632 329.45,233.632 325,227.5C 312.819,203.552 318.652,185.552 342.5,173.5 Z"/></g>
<g><path style="opacity:1" fill="#38a9dc" d="M 216.5,243.5 C 193.404,254.955 187.57,272.288 199,295.5C 203.662,301.999 209.829,306.332 217.5,308.5C 193.594,313.705 178.594,304.372 172.5,280.5C 171.85,261.774 180.183,249.107 197.5,242.5C 204.051,240.955 210.385,241.289 216.5,243.5 Z"/></g>
<g><path style="opacity:1" fill="#4ab9ec" d="M 216.5,243.5 C 232.168,248.66 240.501,259.493 241.5,276C 240.911,292.359 232.911,303.192 217.5,308.5C 209.829,306.332 203.662,301.999 199,295.5C 187.57,272.288 193.404,254.955 216.5,243.5 Z"/></g>
<g><path style="opacity:1" fill="#02623d" d="M 121.5,347.5 C 129.167,347.5 136.833,347.5 144.5,347.5C 150.833,347.5 157.167,347.5 163.5,347.5C 147.167,373.5 130.833,399.5 114.5,425.5C 109.589,415.93 101.923,409.597 91.5,406.5C 89.5,405.833 87.5,405.167 85.5,404.5C 97.7469,385.677 109.747,366.677 121.5,347.5 Z"/></g>
<g><path style="opacity:0.998" fill="#01794c" d="M 163.5,347.5 C 239.5,347.5 315.5,347.5 391.5,347.5C 395.904,355.305 400.571,362.972 405.5,370.5C 389.009,372.155 378.175,380.822 373,396.5C 370.052,418.117 378.885,432.284 399.5,439C 404.871,439.676 410.204,439.509 415.5,438.5C 424.622,435.032 431.956,429.366 437.5,421.5C 453.558,445.932 469.392,470.599 485,495.5C 486.942,501.89 485.109,506.723 479.5,510C 344.834,510.5 210.167,510.667 75.5,510.5C 70.1396,507.779 67.973,503.446 69,497.5C 73.5231,489.778 78.0231,482.112 82.5,474.5C 86.4629,474.139 90.1296,473.139 93.5,471.5C 109.098,466.386 116.765,455.552 116.5,439C 116.631,434.35 115.965,429.85 114.5,425.5C 130.833,399.5 147.167,373.5 163.5,347.5 Z"/></g>
<g><path style="opacity:1" fill="#fdaa4f" d="M 416.5,371.5 C 396.652,380.865 389.485,396.198 395,417.5C 399.355,427.02 406.188,434.02 415.5,438.5C 410.204,439.509 404.871,439.676 399.5,439C 378.885,432.284 370.052,418.117 373,396.5C 378.175,380.822 389.009,372.155 405.5,370.5C 409.03,370.136 412.696,370.47 416.5,371.5 Z"/></g>
<g><path style="opacity:0.984" fill="#fee056" d="M 416.5,371.5 C 436.611,379.379 444.444,394.045 440,415.5C 439.427,417.641 438.594,419.641 437.5,421.5C 431.956,429.366 424.622,435.032 415.5,438.5C 406.188,434.02 399.355,427.02 395,417.5C 389.485,396.198 396.652,380.865 416.5,371.5 Z"/></g>
<g><path style="opacity:1" fill="#f0420d" d="M 85.5,404.5 C 87.5,405.167 89.5,405.833 91.5,406.5C 68.4116,419.272 63.245,437.272 76,460.5C 80.5538,466.352 86.3872,470.019 93.5,471.5C 90.1296,473.139 86.4629,474.139 82.5,474.5C 69.296,473.575 59.296,467.575 52.5,456.5C 44.0456,438.224 47.7122,422.724 63.5,410C 70.3034,406.072 77.6367,404.239 85.5,404.5 Z"/></g>
<g><path style="opacity:1" fill="#fe4f19" d="M 91.5,406.5 C 101.923,409.597 109.589,415.93 114.5,425.5C 115.965,429.85 116.631,434.35 116.5,439C 116.765,455.552 109.098,466.386 93.5,471.5C 86.3872,470.019 80.5538,466.352 76,460.5C 63.245,437.272 68.4116,419.272 91.5,406.5 Z"/></g>
<g><path style="opacity:1" fill="#0a1a1f" d="M 188.5,407.5 C 196.537,408.379 199.87,412.879 198.5,421C 200.076,428.402 197.242,432.902 190,434.5C 187.849,434.357 186.182,433.357 185,431.5C 183.464,425.251 183.13,418.917 184,412.5C 185.025,410.313 186.525,408.646 188.5,407.5 Z"/></g>
<g><path style="opacity:1" fill="#0a1a1f" d="M 319.5,407.5 C 323.794,407.198 326.961,408.864 329,412.5C 329.87,418.917 329.536,425.251 328,431.5C 322.887,435.972 318.554,435.306 315,429.5C 314.333,423.833 314.333,418.167 315,412.5C 316.366,410.638 317.866,408.972 319.5,407.5 Z"/></g>
<g><path style="opacity:1" fill="#0a191e" d="M 239.5,426.5 C 250.853,426.168 262.186,426.501 273.5,427.5C 276.66,437.917 274.326,446.751 266.5,454C 253.672,459.829 244.505,456.329 239,443.5C 238.26,437.782 238.427,432.115 239.5,426.5 Z"/></g>
<g><path style="opacity:1" fill="#d4edf5" d="M 182.5,441.5 C 188.176,441.334 193.843,441.501 199.5,442C 206.015,446.626 206.015,451.293 199.5,456C 193.056,456.915 186.723,456.581 180.5,455C 176.188,449.731 176.855,445.231 182.5,441.5 Z"/></g>
<g><path style="opacity:1" fill="#d4edf5" d="M 313.5,441.5 C 319.952,441.084 326.285,441.584 332.5,443C 337.095,448.697 336.095,453.03 329.5,456C 323.388,456.909 317.388,456.576 311.5,455C 307.12,449.701 307.786,445.201 313.5,441.5 Z"/></g>
<g><path style="opacity:1" fill="#02623d" d="M 52.5,456.5 C 59.296,467.575 69.296,473.575 82.5,474.5C 78.0231,482.112 73.5231,489.778 69,497.5C 67.973,503.446 70.1396,507.779 75.5,510.5C 61.496,510.667 47.496,510.5 33.5,510C 31,508.833 29.1667,507 28,504.5C 27.1628,500.705 27.4961,497.039 29,493.5C 36.8441,481.138 44.6774,468.805 52.5,456.5 Z"/></g>
</svg>
