<?xml version="1.0" encoding="UTF-8"?>
<!DOCTYPE svg PUBLIC "-//W3C//DTD SVG 1.1//EN" "http://www.w3.org/Graphics/SVG/1.1/DTD/svg11.dtd">
<svg xmlns="http://www.w3.org/2000/svg" version="1.1" viewBox="0 0 512 512" style="shape-rendering:geometricPrecision; text-rendering:geometricPrecision; image-rendering:optimizeQuality; fill-rule:evenodd; clip-rule:evenodd" xmlns:xlink="http://www.w3.org/1999/xlink">
<g><path style="opacity:0.925" fill="#f35757" d="M 511.5,68.5 C 511.5,71.5 511.5,74.5 511.5,77.5C 507.221,92.886 499.221,106.053 487.5,117C 470.585,128.873 452.252,131.54 432.5,125C 419.586,120.398 407.919,113.731 397.5,105C 386.149,93.2488 374.816,81.5821 363.5,70C 343.385,54.2574 321.052,50.2574 296.5,58C 292.493,59.3366 288.827,61.1699 285.5,63.5C 277.815,61.9368 270.481,59.6035 263.5,56.5C 294.753,35.4567 327.42,32.9567 361.5,49C 365.833,52 370.167,55 374.5,58C 386.196,69.3624 397.53,81.0291 408.5,93C 421.669,103.997 436.835,110.497 454,112.5C 466.278,112.028 476.278,107.028 484,97.5C 490.127,87.4408 495.293,76.9408 499.5,66C 503.987,64.2869 507.987,65.1202 511.5,68.5 Z"/></g>
<g><path style="opacity:0.988" fill="#dd4040" d="M 263.5,56.5 C 270.481,59.6035 277.815,61.9368 285.5,63.5C 350.809,89.3108 394.309,135.644 416,202.5C 435.86,281.391 418.86,351.058 365,411.5C 313.845,461.218 252.678,481.384 181.5,472C 102.073,458.738 46.573,415.238 15,341.5C 7.42405,321.971 2.25739,301.971 -0.5,281.5C -0.5,268.5 -0.5,255.5 -0.5,242.5C 9.66828,168.967 46.6683,113.467 110.5,76C 159.021,50.2265 210.021,43.7265 263.5,56.5 Z"/></g>
<g><path style="opacity:1" fill="#f35757" d="M 188.5,66.5 C 203.17,66.3334 217.837,66.5001 232.5,67C 166.107,93.7264 123.274,141.56 104,210.5C 86.5239,291.391 107.357,360.558 166.5,418C 185.91,435.369 207.91,448.702 232.5,458C 213.73,460.177 195.063,459.51 176.5,456C 105.744,418.062 66.2441,358.895 58,278.5C 55.159,184.315 94.659,114.481 176.5,69C 180.736,68.6651 184.736,67.8318 188.5,66.5 Z"/></g>
<g><path style="opacity:1" fill="#f35757" d="M 260.5,73.5 C 275.808,75.5808 290.142,80.5808 303.5,88.5C 235.245,101.546 188.745,140.546 164,205.5C 142.25,279.676 159.416,343.176 215.5,396C 241.12,417.306 270.453,430.806 303.5,436.5C 291.484,443.562 278.65,448.562 265,451.5C 196.907,434.743 149.907,393.743 124,328.5C 98.4078,245.422 117.241,174.255 180.5,115C 196.193,101.813 213.527,91.146 232.5,83C 241.857,79.4928 251.191,76.3261 260.5,73.5 Z"/></g>
<g><path style="opacity:1" fill="#e74848" d="M 116.5,90.5 C 117.239,90.369 117.906,90.5357 118.5,91C 107.913,100.75 98.2462,111.25 89.5,122.5C 79.4337,126.947 69.9337,132.28 61,138.5C 60.3333,137.833 60.3333,137.167 61,136.5C 77.186,118.187 95.686,102.854 116.5,90.5 Z"/></g>
<g><path style="opacity:1" fill="#f35757" d="M 308.5,103.5 C 310.388,105.988 311.055,108.988 310.5,112.5C 310.153,120.905 309.153,129.238 307.5,137.5C 294.219,129.026 280.219,121.859 265.5,116C 279.052,109.254 293.385,105.087 308.5,103.5 Z"/></g>
<g><path style="opacity:1" fill="#ea4d4d" d="M 327.5,103.5 C 326.833,105.5 326.167,107.5 325.5,109.5C 325.192,107.076 325.526,104.743 326.5,102.5C 327.107,102.624 327.44,102.957 327.5,103.5 Z"/></g>
<g><path style="opacity:1" fill="#f35757" d="M 327.5,103.5 C 332.573,106.794 337.406,110.46 342,114.5C 352.122,196.515 324.955,263.015 260.5,314C 239.873,328.395 217.373,338.895 193,345.5C 186.294,334.253 180.794,322.42 176.5,310C 256.202,279.803 305.035,222.97 323,139.5C 324.385,129.544 325.219,119.544 325.5,109.5C 326.167,107.5 326.833,105.5 327.5,103.5 Z"/></g>
<g><path style="opacity:1" fill="#e54848" d="M 308.5,103.5 C 309.209,102.596 310.209,102.263 311.5,102.5C 311.813,106.042 311.479,109.375 310.5,112.5C 311.055,108.988 310.388,105.988 308.5,103.5 Z"/></g>
<g><path style="opacity:1" fill="#f35757" d="M 245.5,125.5 C 267.023,131.278 286.69,140.778 304.5,154C 300.758,168.229 295.258,181.729 288,194.5C 264,177.086 237.5,164.919 208.5,158C 219.494,145.498 231.827,134.664 245.5,125.5 Z"/></g>
<g><path style="opacity:1" fill="#f35757" d="M 359.5,132.5 C 364.462,137.733 368.962,143.4 373,149.5C 386.676,220.11 369.676,282.11 322,335.5C 296.737,361.712 266.57,379.545 231.5,389C 220.167,380.333 210.167,370.333 201.5,359C 277.069,334.431 326.902,284.264 351,208.5C 357.581,183.616 360.414,158.282 359.5,132.5 Z"/></g>
<g><path style="opacity:1" fill="#f25656" d="M 52.5,181.5 C 56.655,171.857 61.3217,162.523 66.5,153.5C 67.8333,152.067 69.3333,150.733 71,149.5C 71.1667,149.833 71.3333,150.167 71.5,150.5C 66.7862,159.26 62.6195,168.26 59,177.5C 56.9481,179.058 54.7815,180.392 52.5,181.5 Z"/></g>
<g><path style="opacity:1" fill="#e74848" d="M 66.5,153.5 C 61.3217,162.523 56.655,171.857 52.5,181.5C 43.6354,186.523 35.1354,192.19 27,198.5C 28.4281,191.95 30.7614,185.617 34,179.5C 43.8906,169.495 54.7239,160.828 66.5,153.5 Z"/></g>
<g><path style="opacity:1" fill="#f35757" d="M 197.5,171.5 C 228.325,177.378 256.325,189.545 281.5,208C 273.281,221.422 263.614,233.755 252.5,245C 251.5,245.667 250.5,245.667 249.5,245C 227.373,230.105 203.373,219.271 177.5,212.5C 182.466,197.907 189.133,184.24 197.5,171.5 Z"/></g>
<g><path style="opacity:1" fill="#e84c4c" d="M 394.5,187.5 C 393.833,193.167 393.167,198.833 392.5,204.5C 392.334,198.158 392.5,191.825 393,185.5C 393.717,186.044 394.217,186.711 394.5,187.5 Z"/></g>
<g><path style="opacity:1" fill="#f35757" d="M 394.5,187.5 C 407.476,219.698 411.643,253.031 407,287.5C 403.406,268.289 397.573,249.789 389.5,232C 391.268,222.92 392.268,213.754 392.5,204.5C 393.167,198.833 393.833,193.167 394.5,187.5 Z"/></g>
<g><path style="opacity:1" fill="#f25656" d="M 40.5,225.5 C 39.8614,224.903 39.528,224.07 39.5,223C 40.7729,217.133 42.1062,211.3 43.5,205.5C 45.4813,203.697 47.648,202.03 50,200.5C 49.3316,207.525 48.165,214.525 46.5,221.5C 45.2065,223.819 43.2065,225.152 40.5,225.5 Z"/></g>
<g><path style="opacity:1" fill="#e74848" d="M 43.5,205.5 C 42.1062,211.3 40.7729,217.133 39.5,223C 39.528,224.07 39.8614,224.903 40.5,225.5C 32.8867,229.06 25.3867,233.06 18,237.5C 17.6689,233.473 18.0023,229.473 19,225.5C 26.4792,217.841 34.6459,211.174 43.5,205.5 Z"/></g>
<g><path style="opacity:1" fill="#f35757" d="M 173.5,227.5 C 197.399,232.908 219.399,242.575 239.5,256.5C 220.094,274.044 197.761,286.711 172.5,294.5C 168.274,272.053 168.607,249.72 173.5,227.5 Z"/></g>
<g><path style="opacity:1" fill="#f35757" d="M 36.5,282.5 C 35.1955,269.835 35.1955,257.168 36.5,244.5C 38.5191,243.067 40.6857,241.733 43,240.5C 43.1667,241.667 43.3333,242.833 43.5,244C 42.4095,257.839 42.2429,271.672 43,285.5C 40.9481,284.207 38.7814,283.207 36.5,282.5 Z"/></g>
<g><path style="opacity:1" fill="#e74848" d="M 36.5,244.5 C 35.1955,257.168 35.1955,269.835 36.5,282.5C 29.7024,279.268 23.0357,275.768 16.5,272C 15.1941,266.554 15.1941,261.054 16.5,255.5C 22.8998,251.301 29.5665,247.634 36.5,244.5 Z"/></g>
<g><path style="opacity:1" fill="#f35757" d="M 383.5,258.5 C 392.625,283.597 396.458,309.597 395,336.5C 390.274,347.687 384.607,358.354 378,368.5C 377.711,345.221 373.877,322.555 366.5,300.5C 373.286,286.932 378.952,272.932 383.5,258.5 Z"/></g>
<g><path style="opacity:1" fill="#e74848" d="M 40.5,300.5 C 39.8761,300.917 39.5427,301.584 39.5,302.5C 41.3939,312.412 44.0606,322.079 47.5,331.5C 38.8989,327.866 30.8989,323.199 23.5,317.5C 20.7333,308.666 18.7333,299.666 17.5,290.5C 25.3106,293.574 32.9772,296.907 40.5,300.5 Z"/></g>
<g><path style="opacity:1" fill="#f35656" d="M 40.5,300.5 C 43.2065,300.848 45.2065,302.181 46.5,304.5C 48.326,313.964 50.6593,323.297 53.5,332.5C 53.1667,333.167 52.8333,333.833 52.5,334.5C 50.6396,333.74 48.973,332.74 47.5,331.5C 44.0606,322.079 41.3939,312.412 39.5,302.5C 39.5427,301.584 39.8761,300.917 40.5,300.5 Z"/></g>
<g><path style="opacity:1" fill="#f35757" d="M 354.5,317.5 C 355.586,317.62 356.253,318.287 356.5,319.5C 362.113,342.849 363.946,366.515 362,390.5C 356.333,396.167 350.667,401.833 345,407.5C 343.053,387.099 338.553,367.265 331.5,348C 334.57,342.924 338.403,338.424 343,334.5C 347.349,329.122 351.182,323.455 354.5,317.5 Z"/></g>
<g><path style="opacity:1" fill="#e74848" d="M 56.5,352.5 C 61.4825,363.135 67.4825,373.135 74.5,382.5C 63.4824,377.909 53.3157,371.909 44,364.5C 39.9117,357.324 36.0783,349.991 32.5,342.5C 32.8333,342.167 33.1667,341.833 33.5,341.5C 41.1362,345.487 48.8029,349.154 56.5,352.5 Z"/></g>
<g><path style="opacity:1" fill="#f25656" d="M 56.5,352.5 C 58.679,352.84 60.5123,353.84 62,355.5C 65.9266,365.188 70.76,374.355 76.5,383C 75.5632,383.692 74.8966,383.525 74.5,382.5C 67.4825,373.135 61.4825,363.135 56.5,352.5 Z"/></g>
<g><path style="opacity:1" fill="#f35757" d="M 317.5,359.5 C 318.496,359.414 319.329,359.748 320,360.5C 325.869,379.048 329.369,398.048 330.5,417.5C 330.018,419.92 328.685,421.753 326.5,423C 298.559,422.576 272.559,415.242 248.5,401C 274.421,391.72 297.421,377.886 317.5,359.5 Z"/></g>
<g><path style="opacity:1" fill="#e74848" d="M 69.5,398.5 C 69.56,397.957 69.8933,397.624 70.5,397.5C 77.6275,401.153 84.9608,404.32 92.5,407C 101.136,416.637 110.136,425.97 119.5,435C 101.05,425.576 84.3832,413.409 69.5,398.5 Z"/></g>
</svg>
