<?xml version="1.0" encoding="UTF-8"?>
<!DOCTYPE svg PUBLIC "-//W3C//DTD SVG 1.1//EN" "http://www.w3.org/Graphics/SVG/1.1/DTD/svg11.dtd">
<svg xmlns="http://www.w3.org/2000/svg" version="1.1" viewBox="0 0 512 512" style="shape-rendering:geometricPrecision; text-rendering:geometricPrecision; image-rendering:optimizeQuality; fill-rule:evenodd; clip-rule:evenodd" xmlns:xlink="http://www.w3.org/1999/xlink">
<g><path style="opacity:0.989" fill="#4e0325" d="M 79.5,-0.5 C 82.5,-0.5 85.5,-0.5 88.5,-0.5C 93.5401,2.76855 95.3734,7.43521 94,13.5C 86.9647,22.0758 82.798,31.9092 81.5,43C 100.046,96.4318 133.713,137.432 182.5,166C 216.337,181.28 250.003,196.947 283.5,213C 293.72,223.226 301.553,235.059 307,248.5C 310.278,236.78 317.445,233.614 328.5,239C 377.593,273.315 412.093,318.815 432,375.5C 437.277,390.328 441.943,405.328 446,420.5C 467.087,444.67 483.587,471.67 495.5,501.5C 495.526,506.123 493.526,509.456 489.5,511.5C 486.5,511.5 483.5,511.5 480.5,511.5C 478.897,510.404 477.397,509.07 476,507.5C 464.595,481 449.428,457 430.5,435.5C 398.378,448.682 365.044,453.515 330.5,450C 324.458,446.252 322.958,441.085 326,434.5C 328.523,431.655 331.69,429.988 335.5,429.5C 347.497,430.652 359.497,430.485 371.5,429C 378.411,428.517 385.077,427.184 391.5,425C 352.278,415.822 312.944,407.156 273.5,399C 244.209,390.683 216.542,378.683 190.5,363C 186.004,358.041 185.337,352.541 188.5,346.5C 165.14,341.484 144.14,331.651 125.5,317C 107.86,298.572 95.1934,277.072 87.5,252.5C 87.98,250.051 88.98,247.885 90.5,246C 87.3333,242.833 84.1667,239.667 81,236.5C 57.203,190.976 47.8697,142.642 53,91.5C 54.3343,65.8209 59.001,40.8209 67,16.5C 69.9041,9.7829 74.0707,4.11623 79.5,-0.5 Z"/></g>
<g><path style="opacity:0.965" fill="#98e8f2" d="M 211.5,15.5 C 213.467,15.2606 215.301,15.5939 217,16.5C 218.871,22.6144 221.038,28.6144 223.5,34.5C 228.912,37.8065 234.579,40.6398 240.5,43C 241.935,45.2672 241.602,47.2672 239.5,49C 233.681,51.269 228.181,54.1023 223,57.5C 221.197,63.2422 219.197,68.9089 217,74.5C 215.688,76.6576 214.022,76.9909 212,75.5C 209.471,69.5787 207.137,63.5787 205,57.5C 199.861,54.0133 194.361,51.18 188.5,49C 185.92,46.8797 185.92,44.713 188.5,42.5C 194.23,40.2179 199.73,37.5512 205,34.5C 207.47,28.2551 209.637,21.9218 211.5,15.5 Z"/></g>
<g><path style="opacity:1" fill="#74b5f0" d="M 180.5,292.5 C 169.267,289.692 157.934,286.858 146.5,284C 136.732,280.941 127.399,277.107 118.5,272.5C 117.18,269.86 115.847,267.193 114.5,264.5C 120.577,264.605 125.744,262.605 130,258.5C 132.554,253.322 131.721,248.822 127.5,245C 117.177,239.672 107.677,233.172 99,225.5C 80.5647,190.426 71.898,153.093 73,113.5C 83.2548,147.349 99.2548,178.016 121,205.5C 133.656,218.832 147.49,230.665 162.5,241C 190.165,258.835 218.165,276.168 246.5,293C 224.523,292.593 202.523,292.426 180.5,292.5 Z"/></g>
<g><path style="opacity:1" fill="#74b4ee" d="M 94.5,114.5 C 119.459,147.96 150.625,173.96 188,192.5C 192.235,209.857 197.235,226.857 203,243.5C 188.067,234.285 173.567,224.452 159.5,214C 138.708,197.904 122.541,178.07 111,154.5C 104.615,141.506 99.1148,128.173 94.5,114.5 Z"/></g>
<g><path style="opacity:0.943" fill="#75b7f2" d="M 284.5,140.5 C 294.289,141.1 297.122,145.767 293,154.5C 285.861,158.446 281.028,156.613 278.5,149C 279.161,145.179 281.161,142.346 284.5,140.5 Z"/></g>
<g><path style="opacity:0.964" fill="#74b7f2" d="M 393.5,155.5 C 412.439,156.698 418.939,166.365 413,184.5C 406.429,192.41 398.262,194.576 388.5,191C 378.706,184.28 376.206,175.446 381,164.5C 384.253,160.059 388.419,157.059 393.5,155.5 Z"/></g>
<g><path style="opacity:1" fill="#74b5f0" d="M 323.5,280.5 C 333.913,296.998 341.913,314.665 347.5,333.5C 307.703,306.76 267.037,281.26 225.5,257C 221.455,252.418 218.289,247.251 216,241.5C 209.708,227.471 205.208,213.138 202.5,198.5C 225.738,208.452 248.738,218.952 271.5,230C 276.863,235.89 281.363,242.39 285,249.5C 290.98,261.77 295.98,274.437 300,287.5C 304.393,293.038 309.559,293.871 315.5,290C 318.783,287.228 321.45,284.061 323.5,280.5 Z"/></g>
<g><path style="opacity:1" fill="#8186ee" d="M 347.5,333.5 C 341.913,314.665 333.913,296.998 323.5,280.5C 324.504,274.815 325.671,269.148 327,263.5C 335.296,270.127 343.296,277.127 351,284.5C 356.557,303.502 359.391,322.835 359.5,342.5C 355.458,339.444 351.458,336.444 347.5,333.5 Z"/></g>
<g><path style="opacity:1" fill="#7f83e8" d="M 118.5,272.5 C 127.399,277.107 136.732,280.941 146.5,284C 157.934,286.858 169.267,289.692 180.5,292.5C 162.752,291.542 145.086,289.875 127.5,287.5C 124.237,282.638 121.237,277.638 118.5,272.5 Z"/></g>
<g><path style="opacity:1" fill="#8084ea" d="M 165.5,303.5 C 181.421,313.457 198.421,321.291 216.5,327C 233.124,331.61 249.791,335.444 266.5,338.5C 234.175,335.735 202.509,329.568 171.5,320C 160.38,315.276 150.047,309.276 140.5,302C 148.859,301.891 157.193,302.391 165.5,303.5 Z"/></g>
<g><path style="opacity:1" fill="#74b4ef" d="M 165.5,303.5 C 190.154,304.252 214.821,304.752 239.5,305C 258.813,305.24 276.48,310.573 292.5,321C 309.755,331.782 326.422,343.282 342.5,355.5C 317.255,349.522 291.921,343.856 266.5,338.5C 249.791,335.444 233.124,331.61 216.5,327C 198.421,321.291 181.421,313.457 165.5,303.5 Z"/></g>
<g><path style="opacity:1" fill="#8186ee" d="M 367.5,303.5 C 384.012,322.909 397.178,344.575 407,368.5C 409.633,374.4 411.633,380.4 413,386.5C 400.254,374.417 386.921,363.083 373,352.5C 372.725,335.966 370.891,319.633 367.5,303.5 Z"/></g>
<g><path style="opacity:0.975" fill="#98e8f2" d="M 49.5,335.5 C 51.4672,335.261 53.3005,335.594 55,336.5C 58.3333,345.167 61.6667,353.833 65,362.5C 72.4245,366.128 79.9245,369.628 87.5,373C 88.8333,375.333 88.8333,377.667 87.5,380C 79.9245,383.372 72.4245,386.872 65,390.5C 61.6913,399.43 58.1913,408.263 54.5,417C 51.4718,418.14 49.3051,417.306 48,414.5C 45.5306,406.758 42.8639,399.092 40,391.5C 32.3973,387.282 24.564,383.449 16.5,380C 15.1667,377.667 15.1667,375.333 16.5,373C 24.564,369.551 32.3973,365.718 40,361.5C 43.0769,352.767 46.2435,344.1 49.5,335.5 Z"/></g>
<g><path style="opacity:1" fill="#8187ef" d="M 266.5,338.5 C 291.921,343.856 317.255,349.522 342.5,355.5C 364.39,370.641 385.056,387.474 404.5,406C 402.833,406.667 401.167,406.667 399.5,406C 365.771,397.401 331.771,390.068 297.5,384C 277.562,379.465 258.229,373.132 239.5,365C 249.844,363.581 259.844,360.914 269.5,357C 275.439,349.741 274.439,343.575 266.5,338.5 Z"/></g>
</svg>
