<?xml version="1.0" encoding="UTF-8"?>
<!DOCTYPE svg PUBLIC "-//W3C//DTD SVG 1.1//EN" "http://www.w3.org/Graphics/SVG/1.1/DTD/svg11.dtd">
<svg xmlns="http://www.w3.org/2000/svg" version="1.1" viewBox="0 0 512 512" style="shape-rendering:geometricPrecision; text-rendering:geometricPrecision; image-rendering:optimizeQuality; fill-rule:evenodd; clip-rule:evenodd" xmlns:xlink="http://www.w3.org/1999/xlink">
<g><path style="opacity:0.979" fill="#5ac9dd" d="M 22.5,-0.5 C 30.5,-0.5 38.5,-0.5 46.5,-0.5C 46.5,15.5 46.5,31.5 46.5,47.5C 46.5,54.8333 46.5,62.1667 46.5,69.5C 42.8333,69.5 39.1667,69.5 35.5,69.5C 35.1667,69.5 34.8333,69.5 34.5,69.5C 30.8333,69.5 27.1667,69.5 23.5,69.5C 23.7973,62.0796 23.464,54.7463 22.5,47.5C 22.5,31.5 22.5,15.5 22.5,-0.5 Z"/></g>
<g><path style="opacity:0.951" fill="#4a4b6c" d="M 22.5,47.5 C 23.464,54.7463 23.7973,62.0796 23.5,69.5C 27.1667,69.5 30.8333,69.5 34.5,69.5C 28.3702,70.7993 24.7036,74.6326 23.5,81C 26.4722,91.6528 32.8056,94.3195 42.5,89C 48.2538,79.4328 45.9205,72.9328 35.5,69.5C 39.1667,69.5 42.8333,69.5 46.5,69.5C 46.5,62.1667 46.5,54.8333 46.5,47.5C 66.3048,56.7818 73.4715,72.1151 68,93.5C 63.3112,103.354 56.1446,110.688 46.5,115.5C 38.5,115.5 30.5,115.5 22.5,115.5C 10.5966,109.718 2.92996,100.385 -0.5,87.5C -0.5,83.1667 -0.5,78.8333 -0.5,74.5C 2.71031,61.7701 10.377,52.7701 22.5,47.5 Z M 34.5,69.5 C 34.8333,69.5 35.1667,69.5 35.5,69.5C 45.9205,72.9328 48.2538,79.4328 42.5,89C 32.8056,94.3195 26.4722,91.6528 23.5,81C 24.7036,74.6326 28.3702,70.7993 34.5,69.5 Z"/></g>
<g><path style="opacity:0.999" fill="#f97aa5" d="M 380.5,69.5 C 377.833,69.5 375.167,69.5 372.5,69.5C 372.5,77.1667 372.5,84.8333 372.5,92.5C 349.565,92.1095 327.232,95.4428 305.5,102.5C 293.388,98.7221 281.054,95.7221 268.5,93.5C 269.901,92.4793 271.235,91.4793 272.5,90.5C 296.048,78.86 321.048,72.0267 347.5,70C 356.003,69.5554 364.503,69.0554 373,68.5C 375.69,68.5029 378.19,68.8362 380.5,69.5 Z"/></g>
<g><path style="opacity:1" fill="#fbadc7" d="M 380.5,69.5 C 400.9,68.9615 420.567,72.4615 439.5,80C 452.695,85.3546 461.029,94.8546 464.5,108.5C 464.5,110.833 464.5,113.167 464.5,115.5C 457.167,115.5 449.833,115.5 442.5,115.5C 440.608,110.926 437.608,107.093 433.5,104C 419.541,97.6684 404.874,94.0017 389.5,93C 383.843,92.5006 378.176,92.3339 372.5,92.5C 372.5,84.8333 372.5,77.1667 372.5,69.5C 375.167,69.5 377.833,69.5 380.5,69.5 Z"/></g>
<g><path style="opacity:0.988" fill="#f73478" d="M 226.5,93.5 C 234.768,101.146 234.434,108.313 225.5,115C 216.022,117.172 210.689,113.506 209.5,104C 209.409,101.225 210.076,98.7248 211.5,96.5C 215.812,92.5324 220.812,91.5324 226.5,93.5 Z"/></g>
<g><path style="opacity:1" fill="#f63478" d="M 372.5,92.5 C 378.176,92.3339 383.843,92.5006 389.5,93C 404.874,94.0017 419.541,97.6684 433.5,104C 437.608,107.093 440.608,110.926 442.5,115.5C 445.287,116.477 448.287,116.81 451.5,116.5C 450.722,117.156 450.056,117.989 449.5,119C 452.364,125.228 455.364,131.395 458.5,137.5C 447.67,143.414 437.003,149.581 426.5,156C 416.265,162.94 406.265,170.107 396.5,177.5C 395.624,177.631 394.957,177.298 394.5,176.5C 390.866,170.21 386.866,164.21 382.5,158.5C 399.756,145.192 418.089,133.359 437.5,123C 415.635,129.765 394.302,137.932 373.5,147.5C 367.106,141.101 360.439,135.101 353.5,129.5C 376.17,120.775 398.837,111.941 421.5,103C 393.738,104.986 366.738,110.486 340.5,119.5C 340.167,119.5 339.833,119.5 339.5,119.5C 328.724,112.779 317.391,107.112 305.5,102.5C 327.232,95.4428 349.565,92.1095 372.5,92.5 Z"/></g>
<g><path style="opacity:1" fill="#e41c67" d="M 353.5,129.5 C 353.5,128.833 353.167,128.5 352.5,128.5C 348.462,125.488 344.462,122.488 340.5,119.5C 366.738,110.486 393.738,104.986 421.5,103C 398.837,111.941 376.17,120.775 353.5,129.5 Z"/></g>
<g><path style="opacity:1" fill="#f63578" d="M 153.5,304.5 C 139.216,310.818 124.549,316.151 109.5,320.5C 106.344,315.226 103.844,309.559 102,303.5C 100.052,302.891 98.2184,302.224 96.5,301.5C 107.397,302.587 117.064,299.754 125.5,293C 132.703,285.965 139.703,278.798 146.5,271.5C 163.067,252.431 166.567,231.097 157,207.5C 154.916,203.664 152.583,199.997 150,196.5C 148.871,194.859 147.371,193.859 145.5,193.5C 145.5,193.167 145.5,192.833 145.5,192.5C 151.131,187.37 156.631,182.036 162,176.5C 162.21,178.058 162.71,179.391 163.5,180.5C 164.965,193.265 171.632,202.098 183.5,207C 208.654,211.171 228.82,203.004 244,182.5C 253.579,170.088 257.246,156.088 255,140.5C 253.541,134.915 251.041,129.915 247.5,125.5C 252.069,119.424 257.236,113.758 263,108.5C 278.94,126.784 283.106,147.617 275.5,171C 259.862,212.464 229.862,232.63 185.5,231.5C 185.729,249.597 180.562,265.93 170,280.5C 164.366,287.136 158.366,293.469 152,299.5C 151.878,301.282 152.378,302.948 153.5,304.5 Z"/></g>
<g><path style="opacity:0.971" fill="#4a4a6c" d="M 136.5,138.5 C 137.209,139.404 138.209,139.737 139.5,139.5C 139.5,141.833 139.5,144.167 139.5,146.5C 139.5,149.167 139.5,151.833 139.5,154.5C 139.5,157.167 139.5,159.833 139.5,162.5C 132.132,162.683 124.799,162.35 117.5,161.5C 116.662,161.842 116.328,162.508 116.5,163.5C 116.5,164.167 116.5,164.833 116.5,165.5C 115.06,173.482 112.393,181.149 108.5,188.5C 99.1549,200.169 87.1549,207.169 72.5,209.5C 47.6157,209.102 31.449,197.102 24,173.5C 22.6744,162.21 22.1744,150.877 22.5,139.5C 30.5,139.5 38.5,139.5 46.5,139.5C 46.3336,147.507 46.5003,155.507 47,163.5C 49.1773,176.843 57.0107,184.177 70.5,185.5C 83.5,183.833 90.8333,176.5 92.5,163.5C 92.5,147.5 92.5,131.5 92.5,115.5C 100.5,115.5 108.5,115.5 116.5,115.5C 112.665,132.653 119.332,140.319 136.5,138.5 Z"/></g>
<g><path style="opacity:1" fill="#f571a0" d="M 464.5,108.5 C 465.473,110.948 465.806,113.615 465.5,116.5C 460.833,116.5 456.167,116.5 451.5,116.5C 448.287,116.81 445.287,116.477 442.5,115.5C 449.833,115.5 457.167,115.5 464.5,115.5C 464.5,113.167 464.5,110.833 464.5,108.5 Z"/></g>
<g><path style="opacity:1" fill="#2c2d54" d="M 22.5,115.5 C 30.5,115.5 38.5,115.5 46.5,115.5C 46.5,123.5 46.5,131.5 46.5,139.5C 38.5,139.5 30.5,139.5 22.5,139.5C 22.5,131.5 22.5,123.5 22.5,115.5 Z"/></g>
<g><path style="opacity:1" fill="#fde4ec" d="M 247.5,125.5 C 251.041,129.915 253.541,134.915 255,140.5C 257.246,156.088 253.579,170.088 244,182.5C 228.82,203.004 208.654,211.171 183.5,207C 171.632,202.098 164.965,193.265 163.5,180.5C 163.5,178.167 163.5,175.833 163.5,173.5C 170.156,185.094 179.822,188.261 192.5,183C 205.87,176.092 211.037,165.259 208,150.5C 202.168,140.167 193.668,137.001 182.5,141C 188.269,152.821 184.602,159.988 171.5,162.5C 168.666,161.99 166.332,160.656 164.5,158.5C 161.692,147.289 166.026,140.789 177.5,139C 193.29,119.774 213.29,113.108 237.5,119C 241.032,120.928 244.366,123.095 247.5,125.5 Z"/></g>
<g><path style="opacity:0.961" fill="#e41a67" d="M 451.5,116.5 C 456.167,116.5 460.833,116.5 465.5,116.5C 464.934,128.701 461.434,140.035 455,150.5C 444.097,166.569 431.264,180.903 416.5,193.5C 411.761,192.815 407.094,191.815 402.5,190.5C 400.487,186.473 398.487,182.473 396.5,178.5C 396.5,178.167 396.5,177.833 396.5,177.5C 406.265,170.107 416.265,162.94 426.5,156C 437.003,149.581 447.67,143.414 458.5,137.5C 455.364,131.395 452.364,125.228 449.5,119C 450.056,117.989 450.722,117.156 451.5,116.5 Z"/></g>
<g><path style="opacity:1" fill="#fdd1e0" d="M 339.5,119.5 C 339.833,119.5 340.167,119.5 340.5,119.5C 344.462,122.488 348.462,125.488 352.5,128.5C 350.284,137.361 347.451,146.028 344,154.5C 343.333,155.833 343.333,157.167 344,158.5C 362.017,171.671 376.184,188.004 386.5,207.5C 394.24,218.791 396.74,231.124 394,244.5C 390.127,252.274 383.794,255.94 375,255.5C 372.116,255.394 369.282,255.061 366.5,254.5C 366.953,253.542 367.619,252.708 368.5,252C 363.5,247 358.5,242 353.5,237C 352.072,236.421 350.738,236.588 349.5,237.5C 341.946,233.906 333.946,232.239 325.5,232.5C 320.546,227.883 315.546,223.216 310.5,218.5C 305.476,225.185 300.476,231.852 295.5,238.5C 283.98,245.516 273.813,254.182 265,264.5C 262.888,267.727 261.055,271.06 259.5,274.5C 258.463,275.93 257.796,277.597 257.5,279.5C 233.097,301.544 206.097,319.878 176.5,334.5C 166.76,326.391 159.427,316.391 154.5,304.5C 173.617,295.11 191.951,284.444 209.5,272.5C 214.699,278.986 221.032,280.152 228.5,276C 230.63,273.739 231.964,271.072 232.5,268C 231.873,264.314 230.873,260.814 229.5,257.5C 252.128,239.372 272.628,219.039 291,196.5C 291.667,195.167 291.667,193.833 291,192.5C 282.791,179.995 279.125,166.328 280,151.5C 283.544,142.807 290.044,138.807 299.5,139.5C 308.196,140.397 316.529,142.73 324.5,146.5C 330.062,137.816 335.062,128.816 339.5,119.5 Z"/></g>
<g><path style="opacity:1" fill="#e41b67" d="M 382.5,158.5 C 379.152,155.149 376.152,151.482 373.5,147.5C 394.302,137.932 415.635,129.765 437.5,123C 418.089,133.359 399.756,145.192 382.5,158.5 Z"/></g>
<g><path style="opacity:1" fill="#f9588f" d="M 352.5,128.5 C 353.167,128.5 353.5,128.833 353.5,129.5C 360.439,135.101 367.106,141.101 373.5,147.5C 376.152,151.482 379.152,155.149 382.5,158.5C 386.866,164.21 390.866,170.21 394.5,176.5C 394.957,177.298 395.624,177.631 396.5,177.5C 396.5,177.833 396.5,178.167 396.5,178.5C 395.414,178.62 394.747,179.287 394.5,180.5C 393.206,190.028 390.54,199.028 386.5,207.5C 376.184,188.004 362.017,171.671 344,158.5C 343.333,157.167 343.333,155.833 344,154.5C 347.451,146.028 350.284,137.361 352.5,128.5 Z"/></g>
<g><path style="opacity:1" fill="#f73578" d="M 139.5,154.5 C 139.5,151.833 139.5,149.167 139.5,146.5C 145.854,137.978 153.02,137.311 161,144.5C 164.552,156.565 160.052,162.399 147.5,162C 143.979,160.31 141.312,157.81 139.5,154.5 Z"/></g>
<g><path style="opacity:1" fill="#f9578f" d="M 272.5,90.5 C 271.235,91.4793 269.901,92.4793 268.5,93.5C 281.054,95.7221 293.388,98.7221 305.5,102.5C 317.391,107.112 328.724,112.779 339.5,119.5C 335.062,128.816 330.062,137.816 324.5,146.5C 316.529,142.73 308.196,140.397 299.5,139.5C 290.044,138.807 283.544,142.807 280,151.5C 279.125,166.328 282.791,179.995 291,192.5C 291.667,193.833 291.667,195.167 291,196.5C 272.628,219.039 252.128,239.372 229.5,257.5C 228.883,257.611 228.383,257.944 228,258.5C 220.729,253.733 214.729,255.067 210,262.5C 209.502,265.817 209.335,269.15 209.5,272.5C 191.951,284.444 173.617,295.11 154.5,304.5C 154.167,304.5 153.833,304.5 153.5,304.5C 152.378,302.948 151.878,301.282 152,299.5C 158.366,293.469 164.366,287.136 170,280.5C 180.562,265.93 185.729,249.597 185.5,231.5C 229.862,232.63 259.862,212.464 275.5,171C 283.106,147.617 278.94,126.784 263,108.5C 257.236,113.758 252.069,119.424 247.5,125.5C 244.366,123.095 241.032,120.928 237.5,119C 213.29,113.108 193.29,119.774 177.5,139C 166.026,140.789 161.692,147.289 164.5,158.5C 162.212,163.245 161.878,168.245 163.5,173.5C 163.5,175.833 163.5,178.167 163.5,180.5C 162.71,179.391 162.21,178.058 162,176.5C 156.631,182.036 151.131,187.37 145.5,192.5C 136.736,182.398 127.07,173.398 116.5,165.5C 116.5,164.833 116.5,164.167 116.5,163.5C 117.338,163.158 117.672,162.492 117.5,161.5C 124.799,162.35 132.132,162.683 139.5,162.5C 139.5,159.833 139.5,157.167 139.5,154.5C 141.312,157.81 143.979,160.31 147.5,162C 160.052,162.399 164.552,156.565 161,144.5C 153.02,137.311 145.854,137.978 139.5,146.5C 139.5,144.167 139.5,141.833 139.5,139.5C 138.209,139.737 137.209,139.404 136.5,138.5C 157.593,117.788 182.593,103.788 211.5,96.5C 210.076,98.7248 209.409,101.225 209.5,104C 210.689,113.506 216.022,117.172 225.5,115C 234.434,108.313 234.768,101.146 226.5,93.5C 240.15,92.7814 253.816,92.2814 267.5,92C 269.025,90.9914 270.692,90.4914 272.5,90.5 Z"/></g>
<g><path style="opacity:1" fill="#2e2e55" d="M 163.5,173.5 C 161.878,168.245 162.212,163.245 164.5,158.5C 166.332,160.656 168.666,161.99 171.5,162.5C 184.602,159.988 188.269,152.821 182.5,141C 193.668,137.001 202.168,140.167 208,150.5C 211.037,165.259 205.87,176.092 192.5,183C 179.822,188.261 170.156,185.094 163.5,173.5 Z"/></g>
<g><path style="opacity:1" fill="#f73478" d="M 285.5,116.5 C 299.529,115.348 304.362,121.348 300,134.5C 295.909,138.305 291.076,139.472 285.5,138C 277.533,130.834 277.533,123.668 285.5,116.5 Z"/></g>
<g><path style="opacity:0.896" fill="#e11b67" d="M 92.5,163.5 C 90.8333,176.5 83.5,183.833 70.5,185.5C 74.1629,174.504 81.4962,167.17 92.5,163.5 Z"/></g>
<g><path style="opacity:1" fill="#f97aa6" d="M 116.5,165.5 C 127.07,173.398 136.736,182.398 145.5,192.5C 145.5,192.833 145.5,193.167 145.5,193.5C 140.187,198.478 134.854,203.478 129.5,208.5C 122.48,201.812 115.48,195.145 108.5,188.5C 112.393,181.149 115.06,173.482 116.5,165.5 Z"/></g>
<g><path style="opacity:1" fill="#fbaec8" d="M 396.5,178.5 C 398.487,182.473 400.487,186.473 402.5,190.5C 406.751,199.501 410.084,208.834 412.5,218.5C 414.442,222.939 415.442,227.606 415.5,232.5C 411.51,252.971 405.01,272.638 396,291.5C 395.502,288.518 395.335,285.518 395.5,282.5C 395.5,281.167 395.5,279.833 395.5,278.5C 387.833,278.5 380.167,278.5 372.5,278.5C 372.167,278.5 371.833,278.5 371.5,278.5C 371.494,270.15 369.827,262.15 366.5,254.5C 369.282,255.061 372.116,255.394 375,255.5C 383.794,255.94 390.127,252.274 394,244.5C 396.74,231.124 394.24,218.791 386.5,207.5C 390.54,199.028 393.206,190.028 394.5,180.5C 394.747,179.287 395.414,178.62 396.5,178.5 Z"/></g>
<g><path style="opacity:0.994" fill="#e31a67" d="M 108.5,188.5 C 115.48,195.145 122.48,201.812 129.5,208.5C 134.854,203.478 140.187,198.478 145.5,193.5C 147.371,193.859 148.871,194.859 150,196.5C 152.583,199.997 154.916,203.664 157,207.5C 166.567,231.097 163.067,252.431 146.5,271.5C 140.869,266.37 135.369,261.036 130,255.5C 122.47,263.365 114.636,270.865 106.5,278C 99.0603,279.706 94.727,276.873 93.5,269.5C 85.8333,269.5 78.1667,269.5 70.5,269.5C 70.5,271.833 70.5,274.167 70.5,276.5C 67.5488,263.353 71.2155,252.353 81.5,243.5C 85.1296,247.631 88.963,251.631 93,255.5C 100.877,247.958 108.377,240.124 115.5,232C 108.667,223.833 101.167,216.333 93,209.5C 88.6768,212.99 84.5102,216.657 80.5,220.5C 77.0918,217.417 74.4251,213.751 72.5,209.5C 87.1549,207.169 99.1549,200.169 108.5,188.5 Z"/></g>
<g><path style="opacity:1" fill="#f97aa5" d="M 402.5,190.5 C 407.094,191.815 411.761,192.815 416.5,193.5C 431.686,199.832 444.853,209.165 456,221.5C 462.238,229.049 465.405,237.716 465.5,247.5C 457.826,247.666 450.159,247.5 442.5,247C 441.748,246.329 441.414,245.496 441.5,244.5C 439.873,239.698 437.206,235.532 433.5,232C 427.405,226.067 420.405,221.567 412.5,218.5C 410.084,208.834 406.751,199.501 402.5,190.5 Z"/></g>
<g><path style="opacity:1" fill="#af004f" d="M 81.5,243.5 C 84.8113,239.853 88.1446,236.187 91.5,232.5C 87.8114,228.48 84.1447,224.48 80.5,220.5C 84.5102,216.657 88.6768,212.99 93,209.5C 101.167,216.333 108.667,223.833 115.5,232C 108.377,240.124 100.877,247.958 93,255.5C 88.963,251.631 85.1296,247.631 81.5,243.5 Z"/></g>
<g><path style="opacity:1" fill="#fcafc9" d="M 285.5,209.5 C 298.126,207.955 303.293,213.289 301,225.5C 294,234.833 287,234.833 280,225.5C 279.333,222.5 279.333,219.5 280,216.5C 281.666,214.004 283.5,211.671 285.5,209.5 Z"/></g>
<g><path style="opacity:1" fill="#f95b91" d="M 325.5,232.5 C 315.036,232.241 305.203,234.574 296,239.5C 295.601,239.272 295.435,238.938 295.5,238.5C 300.476,231.852 305.476,225.185 310.5,218.5C 315.546,223.216 320.546,227.883 325.5,232.5 Z"/></g>
<g><path style="opacity:1" fill="#e41e68" d="M 412.5,218.5 C 420.405,221.567 427.405,226.067 433.5,232C 437.206,235.532 439.873,239.698 441.5,244.5C 433.274,241.424 424.94,238.758 416.5,236.5C 416.768,234.901 416.434,233.568 415.5,232.5C 415.442,227.606 414.442,222.939 412.5,218.5 Z"/></g>
<g><path style="opacity:1" fill="#f73478" d="M 195.5,232.5 C 201.98,231.985 206.48,234.651 209,240.5C 209.32,251.179 204.154,256.013 193.5,255C 186.511,250.872 184.678,245.039 188,237.5C 189.913,234.72 192.413,233.053 195.5,232.5 Z"/></g>
<g><path style="opacity:1" fill="#fb91b5" d="M 325.5,232.5 C 333.946,232.239 341.946,233.906 349.5,237.5C 346.07,240.726 342.07,243.226 337.5,245C 318.699,251.411 299.366,254.911 279.5,255.5C 279.5,263.167 279.5,270.833 279.5,278.5C 278.672,272.681 278.172,266.681 278,260.5C 277.439,259.978 276.772,259.645 276,259.5C 270.342,264.324 264.842,269.324 259.5,274.5C 261.055,271.06 262.888,267.727 265,264.5C 273.813,254.182 283.98,245.516 295.5,238.5C 295.435,238.938 295.601,239.272 296,239.5C 305.203,234.574 315.036,232.241 325.5,232.5 Z"/></g>
<g><path style="opacity:1" fill="#f9578f" d="M 415.5,232.5 C 416.434,233.568 416.768,234.901 416.5,236.5C 417.97,244.747 418.637,253.08 418.5,261.5C 418.5,267.167 418.5,272.833 418.5,278.5C 414.857,304.756 405.857,329.089 391.5,351.5C 387.246,357.762 382.58,363.762 377.5,369.5C 376.167,370.5 374.833,371.5 373.5,372.5C 369.188,368.854 365.188,364.854 361.5,360.5C 378.402,346.381 388.902,328.381 393,306.5C 393.837,298.349 394.67,290.349 395.5,282.5C 395.335,285.518 395.502,288.518 396,291.5C 405.01,272.638 411.51,252.971 415.5,232.5 Z"/></g>
<g><path style="opacity:1" fill="#fbaec8" d="M 366.5,254.5 C 360.189,259.662 353.189,263.829 345.5,267C 335.513,270.391 325.513,273.225 315.5,275.5C 303.558,277.161 291.558,278.161 279.5,278.5C 279.5,270.833 279.5,263.167 279.5,255.5C 299.366,254.911 318.699,251.411 337.5,245C 342.07,243.226 346.07,240.726 349.5,237.5C 350.738,236.588 352.072,236.421 353.5,237C 358.5,242 363.5,247 368.5,252C 367.619,252.708 366.953,253.542 366.5,254.5 Z"/></g>
<g><path style="opacity:1" fill="#f43176" d="M 416.5,236.5 C 424.94,238.758 433.274,241.424 441.5,244.5C 441.414,245.496 441.748,246.329 442.5,247C 450.159,247.5 457.826,247.666 465.5,247.5C 464.499,260.504 457.832,269.171 445.5,273.5C 439.755,270.124 433.755,266.957 427.5,264C 424.568,262.855 421.568,262.022 418.5,261.5C 418.637,253.08 417.97,244.747 416.5,236.5 Z"/></g>
<g><path style="opacity:1" fill="#fb91b5" d="M 366.5,254.5 C 369.827,262.15 371.494,270.15 371.5,278.5C 352.766,278.693 334.099,277.693 315.5,275.5C 325.513,273.225 335.513,270.391 345.5,267C 353.189,263.829 360.189,259.662 366.5,254.5 Z"/></g>
<g><path style="opacity:1" fill="#f97aa6" d="M 146.5,271.5 C 139.703,278.798 132.703,285.965 125.5,293C 117.064,299.754 107.397,302.587 96.5,301.5C 87.4393,300.383 80.2726,296.049 75,288.5C 72.646,284.797 71.146,280.797 70.5,276.5C 70.5,274.167 70.5,271.833 70.5,269.5C 78.1667,269.5 85.8333,269.5 93.5,269.5C 94.727,276.873 99.0603,279.706 106.5,278C 114.636,270.865 122.47,263.365 130,255.5C 135.369,261.036 140.869,266.37 146.5,271.5 Z"/></g>
<g><path style="opacity:1" fill="#fcaec8" d="M 229.5,257.5 C 230.873,260.814 231.873,264.314 232.5,268C 231.964,271.072 230.63,273.739 228.5,276C 221.032,280.152 214.699,278.986 209.5,272.5C 209.335,269.15 209.502,265.817 210,262.5C 214.729,255.067 220.729,253.733 228,258.5C 228.383,257.944 228.883,257.611 229.5,257.5 Z"/></g>
<g><path style="opacity:1" fill="#fa7ca7" d="M 279.5,278.5 C 291.558,278.161 303.558,277.161 315.5,275.5C 334.099,277.693 352.766,278.693 371.5,278.5C 371.833,278.5 372.167,278.5 372.5,278.5C 373.109,297.739 368.275,315.406 358,331.5C 352.672,338.676 345.839,343.676 337.5,346.5C 337.5,339.5 337.5,332.5 337.5,325.5C 335.369,324.686 333.036,324.186 330.5,324C 338.843,318.837 343.843,311.337 345.5,301.5C 323.067,300.806 301.4,296.473 280.5,288.5C 278.95,287.559 277.284,286.893 275.5,286.5C 269.383,283.452 264.049,279.452 259.5,274.5C 264.842,269.324 270.342,264.324 276,259.5C 276.772,259.645 277.439,259.978 278,260.5C 278.172,266.681 278.672,272.681 279.5,278.5 Z"/></g>
<g><path style="opacity:0.951" fill="#e41a67" d="M 418.5,261.5 C 421.568,262.022 424.568,262.855 427.5,264C 433.755,266.957 439.755,270.124 445.5,273.5C 442.865,275.328 439.865,276.495 436.5,277C 431.18,277.998 425.847,278.831 420.5,279.5C 420.158,278.662 419.492,278.328 418.5,278.5C 418.5,272.833 418.5,267.167 418.5,261.5 Z"/></g>
<g><path style="opacity:1" fill="#fb91b5" d="M 259.5,274.5 C 264.049,279.452 269.383,283.452 275.5,286.5C 269.17,289.33 263.17,292.663 257.5,296.5C 260.595,301.701 263.929,306.701 267.5,311.5C 266.395,312.6 265.062,313.267 263.5,313.5C 256.721,303.123 254.721,291.79 257.5,279.5C 257.796,277.597 258.463,275.93 259.5,274.5 Z"/></g>
<g><path style="opacity:1" fill="#f63478" d="M 372.5,278.5 C 380.167,278.5 387.833,278.5 395.5,278.5C 395.5,279.833 395.5,281.167 395.5,282.5C 394.67,290.349 393.837,298.349 393,306.5C 388.902,328.381 378.402,346.381 361.5,360.5C 365.188,364.854 369.188,368.854 373.5,372.5C 364.634,381.931 354.634,389.931 343.5,396.5C 333.901,393.787 327.568,397.12 324.5,406.5C 310.554,411.57 296.221,415.237 281.5,417.5C 280.287,417.747 279.62,418.414 279.5,419.5C 268.91,418.69 258.243,418.19 247.5,418C 242.611,417.646 237.944,416.813 233.5,415.5C 269.236,408.633 301.57,394.133 330.5,372C 318.441,372.203 306.775,370.37 295.5,366.5C 286.938,363.552 278.938,359.552 271.5,354.5C 261.882,346.882 253.215,338.215 245.5,328.5C 251.129,323.353 257.129,318.686 263.5,314.5C 276.128,332.158 293.128,343.325 314.5,348C 318.152,348.499 321.818,348.665 325.5,348.5C 329.971,349.089 333.971,348.423 337.5,346.5C 345.839,343.676 352.672,338.676 358,331.5C 368.275,315.406 373.109,297.739 372.5,278.5 Z"/></g>
<g><path style="opacity:0.999" fill="#fcaec8" d="M 418.5,278.5 C 419.492,278.328 420.158,278.662 420.5,279.5C 423.062,291.857 427.396,303.524 433.5,314.5C 432.833,318.167 432.167,321.833 431.5,325.5C 441.01,328.19 443.843,334.19 440,343.5C 434.681,349.19 428.848,349.856 422.5,345.5C 414.92,357.782 407.254,369.448 399.5,380.5C 396.194,383.14 393.194,386.14 390.5,389.5C 386.806,392.527 383.473,395.86 380.5,399.5C 380.565,399.062 380.399,398.728 380,398.5C 361.021,414.97 339.521,426.97 315.5,434.5C 304.632,427.072 292.632,422.405 279.5,420.5C 279.5,420.167 279.5,419.833 279.5,419.5C 279.62,418.414 280.287,417.747 281.5,417.5C 296.221,415.237 310.554,411.57 324.5,406.5C 326.105,408.48 327.272,410.813 328,413.5C 335.338,420.392 342.004,419.725 348,411.5C 348.667,408.167 348.667,404.833 348,401.5C 346.293,399.963 344.793,398.296 343.5,396.5C 354.634,389.931 364.634,381.931 373.5,372.5C 374.833,371.5 376.167,370.5 377.5,369.5C 383.073,372.602 388.24,371.935 393,367.5C 396.669,361.702 396.169,356.369 391.5,351.5C 405.857,329.089 414.857,304.756 418.5,278.5 Z"/></g>
<g><path style="opacity:1" fill="#f9578f" d="M 257.5,279.5 C 254.721,291.79 256.721,303.123 263.5,313.5C 263.5,313.833 263.5,314.167 263.5,314.5C 257.129,318.686 251.129,323.353 245.5,328.5C 253.215,338.215 261.882,346.882 271.5,354.5C 263.873,359.987 255.873,364.987 247.5,369.5C 245.938,369.733 244.605,370.4 243.5,371.5C 217.878,365.524 195.545,353.524 176.5,335.5C 176.5,335.167 176.5,334.833 176.5,334.5C 206.097,319.878 233.097,301.544 257.5,279.5 Z"/></g>
<g><path style="opacity:1" fill="#fbaec8" d="M 275.5,286.5 C 277.284,286.893 278.95,287.559 280.5,288.5C 292.889,310.869 311.889,323.202 337.5,325.5C 337.5,332.5 337.5,339.5 337.5,346.5C 333.971,348.423 329.971,349.089 325.5,348.5C 301.653,343.243 282.32,330.91 267.5,311.5C 263.929,306.701 260.595,301.701 257.5,296.5C 263.17,292.663 269.17,289.33 275.5,286.5 Z"/></g>
<g><path style="opacity:1" fill="#fb91b5" d="M 280.5,288.5 C 301.4,296.473 323.067,300.806 345.5,301.5C 343.843,311.337 338.843,318.837 330.5,324C 333.036,324.186 335.369,324.686 337.5,325.5C 311.889,323.202 292.889,310.869 280.5,288.5 Z"/></g>
<g><path style="opacity:1" fill="#fcafc9" d="M 169.5,302.5 C 181.654,301.153 186.821,306.487 185,318.5C 178,327.833 171,327.833 164,318.5C 161.752,311.742 163.586,306.409 169.5,302.5 Z"/></g>
<g><path style="opacity:1" fill="#fcaec8" d="M 153.5,304.5 C 153.833,304.5 154.167,304.5 154.5,304.5C 159.427,316.391 166.76,326.391 176.5,334.5C 176.5,334.833 176.5,335.167 176.5,335.5C 172.245,337.363 167.912,339.03 163.5,340.5C 163.119,328.627 157.119,324.127 145.5,327C 137.718,333.753 137.718,340.586 145.5,347.5C 140.233,349.7 134.9,351.7 129.5,353.5C 121.06,343.628 114.393,332.628 109.5,320.5C 124.549,316.151 139.216,310.818 153.5,304.5 Z"/></g>
<g><path style="opacity:1" fill="#fa7ca7" d="M 267.5,311.5 C 282.32,330.91 301.653,343.243 325.5,348.5C 321.818,348.665 318.152,348.499 314.5,348C 293.128,343.325 276.128,332.158 263.5,314.5C 263.5,314.167 263.5,313.833 263.5,313.5C 265.062,313.267 266.395,312.6 267.5,311.5 Z"/></g>
<g><path style="opacity:0.96" fill="#fdd0e0" d="M 433.5,314.5 C 439.232,321.738 445.565,328.571 452.5,335C 459.396,340.278 466.729,344.778 474.5,348.5C 461.957,348.375 449.957,350.875 438.5,356C 424.124,362.177 411.124,370.343 399.5,380.5C 407.254,369.448 414.92,357.782 422.5,345.5C 428.848,349.856 434.681,349.19 440,343.5C 443.843,334.19 441.01,328.19 431.5,325.5C 432.167,321.833 432.833,318.167 433.5,314.5 Z"/></g>
<g><path style="opacity:1" fill="#fb91b5" d="M 163.5,340.5 C 159.257,347.071 153.257,349.405 145.5,347.5C 137.718,340.586 137.718,333.753 145.5,327C 157.119,324.127 163.119,328.627 163.5,340.5 Z"/></g>
<g><path style="opacity:1" fill="#f73578" d="M 216.5,325.5 C 228.394,324.558 233.56,329.891 232,341.5C 228.638,347.842 223.472,350.008 216.5,348C 210.842,344.373 208.675,339.207 210,332.5C 211.694,329.642 213.861,327.309 216.5,325.5 Z"/></g>
<g><path style="opacity:1" fill="#f63478" d="M 176.5,335.5 C 195.545,353.524 217.878,365.524 243.5,371.5C 243.167,371.5 242.833,371.5 242.5,371.5C 239.968,372.596 237.635,373.929 235.5,375.5C 227.049,379.392 218.382,382.726 209.5,385.5C 208.827,374.67 203.161,370.504 192.5,373C 186.891,376.277 185.058,381.11 187,387.5C 187.697,389.584 188.864,391.251 190.5,392.5C 186.163,392.584 182.163,393.584 178.5,395.5C 164.36,387.032 151.36,377.032 139.5,365.5C 135.79,361.792 132.457,357.792 129.5,353.5C 134.9,351.7 140.233,349.7 145.5,347.5C 153.257,349.405 159.257,347.071 163.5,340.5C 167.912,339.03 172.245,337.363 176.5,335.5 Z"/></g>
<g><path style="opacity:0.994" fill="#f9588f" d="M 474.5,348.5 C 485.121,348.478 494.121,352.144 501.5,359.5C 496.158,364.676 490.658,369.676 485,374.5C 477.028,367.363 469.195,360.029 461.5,352.5C 456.515,356.985 451.681,361.651 447,366.5C 446.333,367.5 446.333,368.5 447,369.5C 459.333,381.833 471.667,394.167 484,406.5C 483.534,410.396 482.368,414.063 480.5,417.5C 466.854,403.188 452.854,389.188 438.5,375.5C 432.292,380.527 427.125,386.193 423,392.5C 438.035,407.702 453.201,422.702 468.5,437.5C 467.488,438.872 466.488,440.205 465.5,441.5C 444.445,434.294 428.278,420.961 417,401.5C 413.676,403.579 410.176,405.246 406.5,406.5C 401.167,400.833 395.833,395.167 390.5,389.5C 393.194,386.14 396.194,383.14 399.5,380.5C 411.124,370.343 424.124,362.177 438.5,356C 449.957,350.875 461.957,348.375 474.5,348.5 Z"/></g>
<g><path style="opacity:1" fill="#e41a67" d="M 172.5,348.5 C 182.664,349.164 186.83,354.498 185,364.5C 180.254,371.782 174.088,373.282 166.5,369C 160.22,359.73 162.22,352.897 172.5,348.5 Z"/></g>
<g><path style="opacity:1" fill="#fb91b5" d="M 391.5,351.5 C 396.169,356.369 396.669,361.702 393,367.5C 388.24,371.935 383.073,372.602 377.5,369.5C 382.58,363.762 387.246,357.762 391.5,351.5 Z"/></g>
<g><path style="opacity:1" fill="#fa90b4" d="M 501.5,359.5 C 506.121,364.409 509.454,370.075 511.5,376.5C 511.5,385.167 511.5,393.833 511.5,402.5C 496.677,450.912 466.01,485.412 419.5,506C 413.165,508.289 406.831,510.123 400.5,511.5C 393.167,511.5 385.833,511.5 378.5,511.5C 359.271,506.257 349.271,493.591 348.5,473.5C 350.836,445.137 361.502,420.47 380.5,399.5C 383.473,395.86 386.806,392.527 390.5,389.5C 395.833,395.167 401.167,400.833 406.5,406.5C 403.097,408.9 400.43,411.9 398.5,415.5C 396.133,416.871 394.467,418.871 393.5,421.5C 398.395,424.446 403.395,427.113 408.5,429.5C 423.123,437.818 437.123,447.151 450.5,457.5C 456.227,452.776 461.227,447.442 465.5,441.5C 466.488,440.205 467.488,438.872 468.5,437.5C 473.517,431.469 477.517,424.802 480.5,417.5C 482.368,414.063 483.534,410.396 484,406.5C 471.667,394.167 459.333,381.833 447,369.5C 446.333,368.5 446.333,367.5 447,366.5C 451.681,361.651 456.515,356.985 461.5,352.5C 469.195,360.029 477.028,367.363 485,374.5C 490.658,369.676 496.158,364.676 501.5,359.5 Z"/></g>
<g><path style="opacity:1" fill="#fbadc8" d="M 271.5,354.5 C 278.938,359.552 286.938,363.552 295.5,366.5C 279.733,371.679 263.733,372.679 247.5,369.5C 255.873,364.987 263.873,359.987 271.5,354.5 Z"/></g>
<g><path style="opacity:0.972" fill="#e41a67" d="M 139.5,365.5 C 151.36,377.032 164.36,387.032 178.5,395.5C 195.499,405.723 213.833,412.39 233.5,415.5C 237.944,416.813 242.611,417.646 247.5,418C 258.243,418.19 268.91,418.69 279.5,419.5C 279.5,419.833 279.5,420.167 279.5,420.5C 279.797,436.056 274.464,449.222 263.5,460C 254.411,466.039 244.744,467.039 234.5,463C 219.667,454.833 208.167,443.333 200,428.5C 197.222,423.278 194.722,417.945 192.5,412.5C 180.148,419.896 167.481,420.396 154.5,414C 147.341,408.836 142.508,402.003 140,393.5C 139.5,384.173 139.334,374.839 139.5,365.5 Z"/></g>
<g><path style="opacity:1" fill="#f97ba6" d="M 295.5,366.5 C 306.775,370.37 318.441,372.203 330.5,372C 301.57,394.133 269.236,408.633 233.5,415.5C 213.833,412.39 195.499,405.723 178.5,395.5C 182.163,393.584 186.163,392.584 190.5,392.5C 199.236,397.141 205.569,394.808 209.5,385.5C 218.382,382.726 227.049,379.392 235.5,375.5C 230.082,389.141 234.748,395.308 249.5,394C 257.5,387 257.5,380 249.5,373C 246.964,372.814 244.631,372.314 242.5,371.5C 242.833,371.5 243.167,371.5 243.5,371.5C 244.605,370.4 245.938,369.733 247.5,369.5C 263.733,372.679 279.733,371.679 295.5,366.5 Z"/></g>
<g><path style="opacity:1" fill="#e41c67" d="M 209.5,385.5 C 205.569,394.808 199.236,397.141 190.5,392.5C 188.864,391.251 187.697,389.584 187,387.5C 185.058,381.11 186.891,376.277 192.5,373C 203.161,370.504 208.827,374.67 209.5,385.5 Z"/></g>
<g><path style="opacity:1" fill="#f9578f" d="M 242.5,371.5 C 244.631,372.314 246.964,372.814 249.5,373C 257.5,380 257.5,387 249.5,394C 234.748,395.308 230.082,389.141 235.5,375.5C 237.635,373.929 239.968,372.596 242.5,371.5 Z"/></g>
<g><path style="opacity:1" fill="#e41a67" d="M 332.5,372.5 C 346.835,371.836 351.335,378.17 346,391.5C 341.975,394.393 337.475,395.226 332.5,394C 323.222,386.798 323.222,379.631 332.5,372.5 Z"/></g>
<g><path style="opacity:1" fill="#f73478" d="M 480.5,417.5 C 477.517,424.802 473.517,431.469 468.5,437.5C 453.201,422.702 438.035,407.702 423,392.5C 427.125,386.193 432.292,380.527 438.5,375.5C 452.854,389.188 466.854,403.188 480.5,417.5 Z"/></g>
<g><path style="opacity:1" fill="#fb90b4" d="M 343.5,396.5 C 344.793,398.296 346.293,399.963 348,401.5C 348.667,404.833 348.667,408.167 348,411.5C 342.004,419.725 335.338,420.392 328,413.5C 327.272,410.813 326.105,408.48 324.5,406.5C 327.568,397.12 333.901,393.787 343.5,396.5 Z"/></g>
<g><path style="opacity:0.973" fill="#fdd1e0" d="M 380.5,399.5 C 361.502,420.47 350.836,445.137 348.5,473.5C 341.021,457.557 330.021,444.557 315.5,434.5C 339.521,426.97 361.021,414.97 380,398.5C 380.399,398.728 380.565,399.062 380.5,399.5 Z"/></g>
<g><path style="opacity:1" fill="#f73578" d="M 465.5,441.5 C 461.227,447.442 456.227,452.776 450.5,457.5C 437.123,447.151 423.123,437.818 408.5,429.5C 404.746,425.088 401.413,420.422 398.5,415.5C 400.43,411.9 403.097,408.9 406.5,406.5C 410.176,405.246 413.676,403.579 417,401.5C 428.278,420.961 444.445,434.294 465.5,441.5 Z"/></g>
<g><path style="opacity:1" fill="#f9588f" d="M 398.5,415.5 C 401.413,420.422 404.746,425.088 408.5,429.5C 403.395,427.113 398.395,424.446 393.5,421.5C 394.467,418.871 396.133,416.871 398.5,415.5 Z"/></g>
<g><path style="opacity:1" fill="#f9588f" d="M 410.5,483.5 C 409.448,483.649 408.448,483.483 407.5,483C 397.298,472.631 386.965,462.465 376.5,452.5C 377.315,448.554 378.815,444.887 381,441.5C 398.585,450.704 415.419,461.038 431.5,472.5C 424.919,476.957 417.919,480.624 410.5,483.5 Z"/></g>
<g><path style="opacity:1" fill="#fa7ca7" d="M 376.5,452.5 C 386.965,462.465 397.298,472.631 407.5,483C 408.448,483.483 409.448,483.649 410.5,483.5C 377.55,496.39 366.216,486.057 376.5,452.5 Z"/></g>
</svg>
