<?xml version="1.0" encoding="UTF-8"?>
<!DOCTYPE svg PUBLIC "-//W3C//DTD SVG 1.1//EN" "http://www.w3.org/Graphics/SVG/1.1/DTD/svg11.dtd">
<svg xmlns="http://www.w3.org/2000/svg" version="1.1" viewBox="0 0 512 512" style="shape-rendering:geometricPrecision; text-rendering:geometricPrecision; image-rendering:optimizeQuality; fill-rule:evenodd; clip-rule:evenodd" xmlns:xlink="http://www.w3.org/1999/xlink">
<g><path style="opacity:0.969" fill="#020101" d="M 146.5,-0.5 C 153.167,-0.5 159.833,-0.5 166.5,-0.5C 173.484,1.23865 179.984,4.23865 186,8.5C 196.924,3.12117 207.424,3.9545 217.5,11C 222.621,15.7399 225.788,21.5732 227,28.5C 227.233,34.9799 226.566,41.3132 225,47.5C 247.333,69.8333 269.667,92.1667 292,114.5C 292.634,117.555 292.468,120.555 291.5,123.5C 287.573,125.767 283.573,125.934 279.5,124C 273.631,117.964 267.631,112.13 261.5,106.5C 245.854,90.1877 229.854,74.1877 213.5,58.5C 198.167,73.5 182.833,88.5 167.5,103.5C 183.521,120.188 199.854,136.521 216.5,152.5C 287.299,223.799 358.299,294.965 429.5,366C 446.984,378.553 463.151,377.053 478,361.5C 485.749,349.858 486.415,337.858 480,325.5C 421.694,266.194 363.028,207.194 304,148.5C 301.946,144.387 302.113,140.387 304.5,136.5C 307.408,135.431 310.408,135.264 313.5,136C 372.333,194.833 431.167,253.667 490,312.5C 502.662,332.123 502.662,351.79 490,371.5C 474.18,389.247 455.014,394.08 432.5,386C 429.339,384.587 426.339,382.92 423.5,381C 343.694,302.194 264.194,223.027 185,143.5C 184.333,183.833 184.333,224.167 185,264.5C 196.236,273.573 203.069,285.24 205.5,299.5C 261.935,316.435 294.102,354.102 302,412.5C 302.981,424.272 302.314,435.938 300,447.5C 296.74,456.427 290.573,462.261 281.5,465C 258.236,469.052 235.569,466.885 213.5,458.5C 204.011,477.823 190.678,493.99 173.5,507C 170.408,508.546 167.408,510.046 164.5,511.5C 159.5,511.5 154.5,511.5 149.5,511.5C 132.719,502.559 119.219,489.893 109,473.5C 106.167,468.5 103.333,463.5 100.5,458.5C 78.4193,466.886 55.7526,469.053 32.5,465C 23.8215,462.322 17.6549,456.822 14,448.5C 4.93516,385.129 28.4352,338.296 84.5,308C 92.3218,304.67 100.322,301.837 108.5,299.5C 110.637,285.546 117.137,274.213 128,265.5C 128.667,214.833 128.667,164.167 128,113.5C 114.677,103.549 111.511,91.0494 118.5,76C 104.703,54.9319 105.536,34.4319 121,14.5C 128.273,7.28495 136.773,2.28495 146.5,-0.5 Z"/></g>
<g><path style="opacity:1" fill="#c28267" d="M 149.5,14.5 C 158.133,13.4384 166.133,15.1051 173.5,19.5C 159.167,34.5 144.5,49.1667 129.5,63.5C 121.577,48.8797 123.244,35.3797 134.5,23C 139.27,19.619 144.27,16.7857 149.5,14.5 Z"/></g>
<g><path style="opacity:1" fill="#ebeafd" d="M 194.5,20.5 C 208.224,19.9711 213.39,26.3044 210,39.5C 189.833,59.6667 169.667,79.8333 149.5,100C 134.39,103.557 128.557,97.7233 132,82.5C 152.728,61.6045 173.562,40.9379 194.5,20.5 Z"/></g>
<g><path style="opacity:1" fill="#c58469" d="M 261.5,106.5 C 240.314,105.665 225.814,114.998 218,134.5C 216.696,140.423 216.196,146.423 216.5,152.5C 199.854,136.521 183.521,120.188 167.5,103.5C 182.833,88.5 198.167,73.5 213.5,58.5C 229.854,74.1877 245.854,90.1877 261.5,106.5 Z"/></g>
<g><path style="opacity:1" fill="#d89b80" d="M 261.5,106.5 C 267.631,112.13 273.631,117.964 279.5,124C 283.573,125.934 287.573,125.767 291.5,123.5C 295.5,128.167 299.833,132.5 304.5,136.5C 302.113,140.387 301.946,144.387 304,148.5C 363.028,207.194 421.694,266.194 480,325.5C 486.415,337.858 485.749,349.858 478,361.5C 463.151,377.053 446.984,378.553 429.5,366C 358.299,294.965 287.299,223.799 216.5,152.5C 216.196,146.423 216.696,140.423 218,134.5C 225.814,114.998 240.314,105.665 261.5,106.5 Z"/></g>
<g><path style="opacity:1" fill="#dadaf9" d="M 168.5,126.5 C 168.832,170.337 168.499,214.003 167.5,257.5C 160.487,256.207 153.487,256.207 146.5,257.5C 144.505,210.845 143.838,163.845 144.5,116.5C 148.378,116.281 152.044,115.281 155.5,113.5C 160.188,117.521 164.521,121.854 168.5,126.5 Z"/></g>
<g><path style="opacity:1" fill="#1b1b1f" d="M 144.5,116.5 C 143.838,163.845 144.505,210.845 146.5,257.5C 145.791,258.404 144.791,258.737 143.5,258.5C 143.168,210.997 143.501,163.664 144.5,116.5 Z"/></g>
<g><path style="opacity:1" fill="#bebed9" d="M 168.5,126.5 C 169.831,170.335 169.831,214.335 168.5,258.5C 167.893,258.376 167.56,258.043 167.5,257.5C 168.499,214.003 168.832,170.337 168.5,126.5 Z"/></g>
<g><path style="opacity:1" fill="#59d2fb" d="M 169.5,274.5 C 157.178,287.414 154.011,302.414 160,319.5C 162.435,324.715 165.601,329.382 169.5,333.5C 153.699,339.738 140.532,336.071 130,322.5C 118.803,298.75 125.303,281.917 149.5,272C 156.567,270.807 163.233,271.64 169.5,274.5 Z"/></g>
<g><path style="opacity:1" fill="#a1e4fd" d="M 169.5,274.5 C 181.694,280.036 188.361,289.536 189.5,303C 188.986,317.323 182.319,327.49 169.5,333.5C 165.601,329.382 162.435,324.715 160,319.5C 154.011,302.414 157.178,287.414 169.5,274.5 Z"/></g>
<g><path style="opacity:1" fill="#fc6d7d" d="M 97.5,393.5 C 97.5,400.5 97.5,407.5 97.5,414.5C 93.7374,415.095 91.404,417.262 90.5,421C 91.9789,428.896 93.6456,436.729 95.5,444.5C 86.6206,447.11 77.6206,449.276 68.5,451C 57.4409,451.906 46.4409,451.573 35.5,450C 31.5095,448.01 29.0095,444.843 28,440.5C 22.8093,390.717 41.3093,352.551 83.5,326C 92.3424,321.074 101.676,317.574 111.5,315.5C 112.045,319.471 113.379,323.138 115.5,326.5C 103.179,343.276 95.0127,361.943 91,382.5C 89.6155,388.412 91.7822,392.079 97.5,393.5 Z"/></g>
<g><path style="opacity:1" fill="#00c47e" d="M 202.5,315.5 C 248.517,329.022 276.35,359.355 286,406.5C 286.865,418.543 286.532,430.543 285,442.5C 282.414,448.218 277.914,451.051 271.5,451C 253.596,453.197 236.263,451.03 219.5,444.5C 219.167,443.833 218.833,443.167 218.5,442.5C 230.767,400.507 224.1,361.84 198.5,326.5C 200.632,323.104 201.965,319.437 202.5,315.5 Z"/></g>
<g><path style="opacity:1" fill="#f5ce70" d="M 164.5,447.5 C 167.287,453.075 170.121,458.741 173,464.5C 175.704,469.018 178.871,473.018 182.5,476.5C 177.031,482.802 171.031,488.635 164.5,494C 159.959,496.699 155.292,497.032 150.5,495C 124.988,475.832 109.821,450.332 105,418.5C 103.461,415.479 100.961,414.146 97.5,414.5C 97.5,407.5 97.5,400.5 97.5,393.5C 99.9363,393.683 102.103,393.016 104,391.5C 106.917,372.743 113.751,355.576 124.5,340C 128.985,342.588 133.651,345.255 138.5,348C 142.014,349.562 145.681,350.395 149.5,350.5C 149.333,386.835 149.5,423.168 150,459.5C 155.167,465.092 159.833,464.759 164,458.5C 164.499,454.848 164.665,451.182 164.5,447.5 Z"/></g>
<g><path style="opacity:1" fill="#f4e769" d="M 182.5,476.5 C 178.871,473.018 175.704,469.018 173,464.5C 170.121,458.741 167.287,453.075 164.5,447.5C 164.5,418.5 164.5,389.5 164.5,360.5C 166.403,357.021 168.07,353.354 169.5,349.5C 176.538,347.481 182.871,344.148 188.5,339.5C 209.812,369.836 214.978,402.836 204,438.5C 199.632,452.919 192.465,465.586 182.5,476.5 Z"/></g>
<g><path style="opacity:1" fill="#ecc76b" d="M 169.5,349.5 C 168.07,353.354 166.403,357.021 164.5,360.5C 164.5,357.167 164.5,353.833 164.5,350.5C 166.216,350.371 167.883,350.038 169.5,349.5 Z"/></g>
</svg>
