<?xml version="1.0" encoding="UTF-8"?>
<!DOCTYPE svg PUBLIC "-//W3C//DTD SVG 1.1//EN" "http://www.w3.org/Graphics/SVG/1.1/DTD/svg11.dtd">
<svg xmlns="http://www.w3.org/2000/svg" version="1.1" viewBox="0 0 512 512" style="shape-rendering:geometricPrecision; text-rendering:geometricPrecision; image-rendering:optimizeQuality; fill-rule:evenodd; clip-rule:evenodd" xmlns:xlink="http://www.w3.org/1999/xlink">
<g><path style="opacity:0.982" fill="#fe3f3f" d="M 421.5,-0.5 C 431.5,-0.5 441.5,-0.5 451.5,-0.5C 451.5,19.5 451.5,39.5 451.5,59.5C 406.86,104.806 361.86,149.806 316.5,194.5C 312.102,191.105 308.436,187.105 305.5,182.5C 336.66,151.507 367.993,120.674 399.5,90C 386.838,89.5001 374.171,89.3334 361.5,89.5C 361.5,79.5 361.5,69.5 361.5,59.5C 381.5,59.5 401.5,59.5 421.5,59.5C 421.5,39.5 421.5,19.5 421.5,-0.5 Z"/></g>
<g><path style="opacity:1" fill="#e10101" d="M 451.5,59.5 C 471.5,59.5 491.5,59.5 511.5,59.5C 511.5,69.5 511.5,79.5 511.5,89.5C 491.5,89.5 471.5,89.5 451.5,89.5C 451.5,109.5 451.5,129.5 451.5,149.5C 441.5,149.5 431.5,149.5 421.5,149.5C 421.667,136.829 421.5,124.162 421,111.5C 390.326,143.007 359.493,174.34 328.5,205.5C 324.227,202.566 320.227,199.233 316.5,195.5C 316.5,195.167 316.5,194.833 316.5,194.5C 361.86,149.806 406.86,104.806 451.5,59.5 Z"/></g>
<g><path style="opacity:0.988" fill="#68534e" d="M 305.5,182.5 C 308.436,187.105 312.102,191.105 316.5,194.5C 316.5,194.833 316.5,195.167 316.5,195.5C 302.167,209.167 288.167,223.167 274.5,237.5C 274.167,237.5 273.833,237.5 273.5,237.5C 270.204,233.702 266.704,230.036 263,226.5C 256.333,233.167 249.667,239.833 243,246.5C 242.333,247.5 242.333,248.5 243,249.5C 246.371,252.703 249.538,256.036 252.5,259.5C 235.833,275.5 219.5,291.833 203.5,308.5C 203.167,308.5 202.833,308.5 202.5,308.5C 185.167,290.5 167.5,272.833 149.5,255.5C 186.993,217.84 224.326,180.007 261.5,142C 262.5,141.333 263.5,141.333 264.5,142C 278.035,155.702 291.701,169.202 305.5,182.5 Z"/></g>
<g><path style="opacity:1" fill="#53433f" d="M 316.5,195.5 C 320.227,199.233 324.227,202.566 328.5,205.5C 341.798,219.299 355.298,232.965 369,246.5C 369.667,247.5 369.667,248.5 369,249.5C 330.993,286.674 293.16,324.007 255.5,361.5C 238.167,343.833 220.833,326.167 203.5,308.5C 219.5,291.833 235.833,275.5 252.5,259.5C 252.833,259.5 253.167,259.5 253.5,259.5C 256.462,262.964 259.629,266.297 263,269.5C 270.167,262.333 277.333,255.167 284.5,248C 280.963,244.631 277.629,241.131 274.5,237.5C 288.167,223.167 302.167,209.167 316.5,195.5 Z"/></g>
<g><path style="opacity:1" fill="#fb3f3f" d="M 273.5,237.5 C 266.442,244.554 259.775,251.888 253.5,259.5C 253.167,259.5 252.833,259.5 252.5,259.5C 249.538,256.036 246.371,252.703 243,249.5C 242.333,248.5 242.333,247.5 243,246.5C 249.667,239.833 256.333,233.167 263,226.5C 266.704,230.036 270.204,233.702 273.5,237.5 Z"/></g>
<g><path style="opacity:1" fill="#e00201" d="M 273.5,237.5 C 273.833,237.5 274.167,237.5 274.5,237.5C 277.629,241.131 280.963,244.631 284.5,248C 277.333,255.167 270.167,262.333 263,269.5C 259.629,266.297 256.462,262.964 253.5,259.5C 259.775,251.888 266.442,244.554 273.5,237.5 Z"/></g>
<g><path style="opacity:0.995" fill="#fe9e00" d="M 149.5,255.5 C 167.5,272.833 185.167,290.5 202.5,308.5C 160.833,350.833 118.833,392.833 76.5,434.5C 58.5,416.833 40.5,399.167 22.5,381.5C 64.8064,339.527 107.14,297.527 149.5,255.5 Z"/></g>
<g><path style="opacity:1" fill="#fe7815" d="M 202.5,308.5 C 202.833,308.5 203.167,308.5 203.5,308.5C 220.833,326.167 238.167,343.833 255.5,361.5C 221.471,395.528 187.804,429.862 154.5,464.5C 145.888,471.444 137.888,479.111 130.5,487.5C 130.5,488.167 130.167,488.5 129.5,488.5C 112.167,470.5 94.5,452.833 76.5,435.5C 76.5,435.167 76.5,434.833 76.5,434.5C 118.833,392.833 160.833,350.833 202.5,308.5 Z"/></g>
<g><path style="opacity:0.983" fill="#5a5959" d="M 22.5,381.5 C 40.5,399.167 58.5,416.833 76.5,434.5C 76.5,434.833 76.5,435.167 76.5,435.5C 61.7808,449.218 47.7808,463.551 34.5,478.5C 25.1719,470.005 16.3386,461.005 8,451.5C 4.31011,445.792 1.47678,439.792 -0.5,433.5C -0.5,427.167 -0.5,420.833 -0.5,414.5C 1.05926,409.367 3.22592,404.367 6,399.5C 11.3377,393.33 16.8377,387.33 22.5,381.5 Z"/></g>
<g><path style="opacity:0.961" fill="#53433e" d="M 130.5,487.5 C 137.888,479.111 145.888,471.444 154.5,464.5C 168.882,470.098 182.882,468.931 196.5,461C 213.972,444.529 231.138,427.696 248,410.5C 255.348,417.681 262.515,425.014 269.5,432.5C 253.014,449.486 236.347,466.319 219.5,483C 199.139,498.397 176.472,503.064 151.5,497C 143.968,494.899 136.968,491.732 130.5,487.5 Z"/></g>
<g><path style="opacity:1" fill="#444444" d="M 76.5,435.5 C 94.5,452.833 112.167,470.5 129.5,488.5C 120.913,499.773 109.913,507.439 96.5,511.5C 90.1667,511.5 83.8333,511.5 77.5,511.5C 71.2079,509.523 65.2079,506.69 59.5,503C 50.6618,495.328 42.3285,487.162 34.5,478.5C 47.7808,463.551 61.7808,449.218 76.5,435.5 Z"/></g>
</svg>
