<?xml version="1.0" encoding="UTF-8"?>
<!DOCTYPE svg PUBLIC "-//W3C//DTD SVG 1.1//EN" "http://www.w3.org/Graphics/SVG/1.1/DTD/svg11.dtd">
<svg xmlns="http://www.w3.org/2000/svg" version="1.1" viewBox="0 0 512 512" style="shape-rendering:geometricPrecision; text-rendering:geometricPrecision; image-rendering:optimizeQuality; fill-rule:evenodd; clip-rule:evenodd" xmlns:xlink="http://www.w3.org/1999/xlink">
<g><path style="opacity:0.978" fill="#0d0d0d" d="M 511.5,361.5 C 511.5,366.833 511.5,372.167 511.5,377.5C 505.727,393.065 494.394,400.565 477.5,400C 471.859,406.322 464.859,410.322 456.5,412C 347.5,412.667 238.5,412.667 129.5,412C 111.121,409.64 94.7872,402.64 80.5,391C 69.9555,390.958 60.7888,394.458 53,401.5C 51.9361,406.878 53.7694,411.044 58.5,414C 69.4798,419.662 81.1465,422.996 93.5,424C 116.847,426.239 140.18,428.572 163.5,431C 169.25,431.791 174.083,434.291 178,438.5C 179.426,443.757 178.259,448.257 174.5,452C 163.422,457.083 151.755,459.75 139.5,460C 113.767,462.097 88.1001,461.43 62.5,458C 45.7273,456.078 30.394,450.411 16.5,441C 7.89772,433.942 2.23106,425.108 -0.5,414.5C -0.5,407.833 -0.5,401.167 -0.5,394.5C 4.07167,379.905 13.0717,368.738 26.5,361C 34.9672,356.737 43.6339,353.07 52.5,350C 44.1367,325.436 45.3033,301.27 56,277.5C 77.1545,231.512 110.988,198.512 157.5,178.5C 156.227,173.625 154.893,168.792 153.5,164C 145.759,165.21 137.925,166.043 130,166.5C 94.2155,163.048 77.5488,143.381 80,107.5C 85.4806,85.0204 99.6472,71.8537 122.5,68C 136.074,66.3584 148.407,69.5251 159.5,77.5C 172.086,56.0424 190.752,47.209 215.5,51C 237.42,56.9209 250.254,71.0876 254,93.5C 254.915,117.836 244.415,135.336 222.5,146C 215.675,147.869 209.008,150.035 202.5,152.5C 204.134,157.037 205.134,161.704 205.5,166.5C 236.327,163.683 266.66,166.349 296.5,174.5C 335.697,153.508 367.197,161.842 391,199.5C 396.125,208.542 399.458,218.209 401,228.5C 435.644,258.823 461.311,295.489 478,338.5C 494.562,338.595 505.728,346.262 511.5,361.5 Z M 203.5,88.5 C 212.299,89.1292 216.132,93.7959 215,102.5C 214.208,104.587 213.041,106.421 211.5,108C 206.733,110.275 201.733,111.775 196.5,112.5C 194.811,106.942 194.311,101.275 195,95.5C 196.851,91.8432 199.684,89.5099 203.5,88.5 Z M 126.5,106.5 C 131.102,106.384 134.935,108.051 138,111.5C 140.147,116.053 140.98,120.72 140.5,125.5C 133.014,129.883 126.181,129.216 120,123.5C 116.634,115.584 118.8,109.917 126.5,106.5 Z"/></g>
<g><path style="opacity:1" fill="#fad330" d="M 179.5,171.5 C 178.215,165.801 176.715,160.134 175,154.5C 171.271,148.275 165.771,145.275 158.5,145.5C 148.355,147.285 138.355,146.785 128.5,144C 126.5,143 124.5,142 122.5,141C 123.094,140.536 123.761,140.369 124.5,140.5C 133.785,140.143 142.785,138.31 151.5,135C 152.701,134.097 153.535,132.931 154,131.5C 154.273,122.47 152.606,113.803 149,105.5C 139.476,93.5162 127.976,91.3496 114.5,99C 106.696,105.911 104.029,114.411 106.5,124.5C 106.631,125.239 106.464,125.906 106,126.5C 99.8457,116.217 98.0124,105.217 100.5,93.5C 110.561,81.8688 123.228,77.7022 138.5,81C 146.672,83.3502 153.339,87.8502 158.5,94.5C 160.768,95.5443 163.101,95.711 165.5,95C 168.281,88.674 171.448,82.5073 175,76.5C 190.725,60.3608 208.225,58.1942 227.5,70C 243.257,84.8129 245.757,101.646 235,120.5C 230.421,126.074 224.921,130.574 218.5,134C 208.971,136.922 199.471,139.755 190,142.5C 189.219,143.729 188.719,145.062 188.5,146.5C 190.38,154.136 192.047,161.802 193.5,169.5C 188.833,170.167 184.167,170.833 179.5,171.5 Z M 203.5,88.5 C 199.684,89.5099 196.851,91.8432 195,95.5C 194.311,101.275 194.811,106.942 196.5,112.5C 201.733,111.775 206.733,110.275 211.5,108C 213.041,106.421 214.208,104.587 215,102.5C 216.132,93.7959 212.299,89.1292 203.5,88.5 Z"/></g>
<g><path style="opacity:0.982" fill="#0e0e0c" d="M 198.5,76.5 C 212.099,74.7125 221.599,80.0459 227,92.5C 229.753,110.809 221.919,121.309 203.5,124C 196.618,127.168 190.784,126.001 186,120.5C 183.358,111.984 182.025,103.318 182,94.5C 184.592,85.7446 190.092,79.7446 198.5,76.5 Z M 203.5,88.5 C 199.684,89.5099 196.851,91.8432 195,95.5C 194.311,101.275 194.811,106.942 196.5,112.5C 201.733,111.775 206.733,110.275 211.5,108C 213.041,106.421 214.208,104.587 215,102.5C 216.132,93.7959 212.299,89.1292 203.5,88.5 Z"/></g>
<g><path style="opacity:0.98" fill="#0e0e0c" d="M 124.5,140.5 C 115.675,138.342 109.675,133.008 106.5,124.5C 104.029,114.411 106.696,105.911 114.5,99C 127.976,91.3496 139.476,93.5162 149,105.5C 152.606,113.803 154.273,122.47 154,131.5C 153.535,132.931 152.701,134.097 151.5,135C 142.785,138.31 133.785,140.143 124.5,140.5 Z M 126.5,106.5 C 118.8,109.917 116.634,115.584 120,123.5C 126.181,129.216 133.014,129.883 140.5,125.5C 140.98,120.72 140.147,116.053 138,111.5C 134.935,108.051 131.102,106.384 126.5,106.5 Z"/></g>
<g><path style="opacity:1" fill="#e2bf2c" d="M 100.5,93.5 C 98.0124,105.217 99.8457,116.217 106,126.5C 106.464,125.906 106.631,125.239 106.5,124.5C 109.675,133.008 115.675,138.342 124.5,140.5C 123.761,140.369 123.094,140.536 122.5,141C 124.5,142 126.5,143 128.5,144C 138.355,146.785 148.355,147.285 158.5,145.5C 165.771,145.275 171.271,148.275 175,154.5C 176.715,160.134 178.215,165.801 179.5,171.5C 176.191,173.37 172.525,174.37 168.5,174.5C 167.325,167.128 165.825,159.795 164,152.5C 161.441,149.651 158.274,148.817 154.5,150C 148.127,151.177 141.794,152.51 135.5,154C 109.062,154.892 94.3956,142.226 91.5,116C 91.6811,107.274 94.6811,99.7738 100.5,93.5 Z"/></g>
<g><path style="opacity:1" fill="#9a9a9a" d="M 361.5,185.5 C 337.994,181.166 318.161,187.833 302,205.5C 289.041,223.116 285.875,242.449 292.5,263.5C 281.056,246.56 278.222,228.227 284,208.5C 297.234,182.966 318.068,172.466 346.5,177C 352.181,178.835 357.181,181.668 361.5,185.5 Z"/></g>
<g><path style="opacity:1" fill="#acacac" d="M 292.5,263.5 C 285.875,242.449 289.041,223.116 302,205.5C 318.161,187.833 337.994,181.166 361.5,185.5C 384.761,204.057 393.428,228.057 387.5,257.5C 387.408,261.658 389.408,263.991 393.5,264.5C 395.383,264.124 396.883,263.124 398,261.5C 399.571,256.61 400.738,251.61 401.5,246.5C 430.671,273.695 452.337,306.028 466.5,343.5C 452.675,353.48 448.842,366.48 455,382.5C 457.596,386.931 460.762,390.931 464.5,394.5C 461.737,397.215 458.404,398.881 454.5,399.5C 349.166,399.667 243.833,399.5 138.5,399C 111.087,386.244 93.9206,365.077 87,335.5C 83.5686,316.424 85.902,298.09 94,280.5C 108.937,246.9 131.77,220.067 162.5,200C 175.754,192.098 189.421,185.265 203.5,179.5C 231.188,175.941 258.522,177.775 285.5,185C 272.21,199.205 266.71,216.038 269,235.5C 272.664,259.7 284.497,278.533 304.5,292C 313.672,297.949 323.672,300.616 334.5,300C 338.5,296.667 338.5,293.333 334.5,290C 316.368,287.448 302.368,278.615 292.5,263.5 Z"/></g>
<g><path style="opacity:1" fill="#9a9a9a" d="M 203.5,179.5 C 189.421,185.265 175.754,192.098 162.5,200C 131.77,220.067 108.937,246.9 94,280.5C 85.902,298.09 83.5686,316.424 87,335.5C 93.9206,365.077 111.087,386.244 138.5,399C 243.833,399.5 349.166,399.667 454.5,399.5C 347.001,400.666 239.334,400.833 131.5,400C 102.106,395.25 80.6064,379.75 67,353.5C 57.9322,332.08 57.2655,310.413 65,288.5C 91.6793,227.41 137.846,191.076 203.5,179.5 Z"/></g>
<g><path style="opacity:1" fill="#0f0f0f" d="M 327.5,193.5 C 347.576,191.428 360.076,200.095 365,219.5C 366.617,231.363 364.283,242.363 358,252.5C 352.26,260.202 344.593,263.536 335,262.5C 308.888,260.05 296.888,245.717 299,219.5C 304.57,206.427 314.07,197.76 327.5,193.5 Z"/></g>
<g><path style="opacity:1" fill="#f3cfcf" d="M 329.5,205.5 C 341.636,203.809 349.47,208.809 353,220.5C 354.225,228.932 352.891,236.932 349,244.5C 347.127,246.709 344.96,248.542 342.5,250C 328.023,252.678 317.523,247.511 311,234.5C 308.345,224.649 311.178,216.816 319.5,211C 322.767,208.87 326.1,207.037 329.5,205.5 Z"/></g>
<g><path style="opacity:1" fill="#0f0f0f" d="M 405.5,298.5 C 417.47,298.292 422.303,303.959 420,315.5C 416.565,320.794 411.732,322.627 405.5,321C 399.092,317.677 396.925,312.511 399,305.5C 400.694,302.642 402.861,300.309 405.5,298.5 Z"/></g>
<g><path style="opacity:1" fill="#f5d0d0" d="M 493.5,382.5 C 478.041,382.043 469.708,374.043 468.5,358.5C 475.923,350.134 484.257,349.301 493.5,356C 501.486,364.948 501.486,373.781 493.5,382.5 Z"/></g>
<g><path style="opacity:1" fill="#dcbbbb" d="M 468.5,358.5 C 469.708,374.043 478.041,382.043 493.5,382.5C 481.549,390.803 472.049,388.469 465,375.5C 464.333,371.5 464.333,367.5 465,363.5C 465.697,361.416 466.864,359.749 468.5,358.5 Z"/></g>
<g><path style="opacity:1" fill="#debdbd" d="M 39.5,402.5 C 36.8143,397.887 36.981,393.22 40,388.5C 43.5518,385.281 47.3851,382.448 51.5,380C 54.0975,376.912 54.9308,373.412 54,369.5C 52.6283,368.09 51.795,366.423 51.5,364.5C 53.5273,362.912 55.8606,362.412 58.5,363C 61.7762,368.608 65.4429,373.942 69.5,379C 58.1623,381.077 48.9957,386.577 42,395.5C 40.8638,397.743 40.0305,400.076 39.5,402.5 Z"/></g>
<g><path style="opacity:1" fill="#f5d0d0" d="M 51.5,364.5 C 51.795,366.423 52.6283,368.09 54,369.5C 54.9308,373.412 54.0975,376.912 51.5,380C 47.3851,382.448 43.5518,385.281 40,388.5C 36.981,393.22 36.8143,397.887 39.5,402.5C 39.3761,411.559 43.0428,418.726 50.5,424C 61.9424,430.592 74.2757,434.592 87.5,436C 111.975,438.287 136.308,440.954 160.5,444C 150.014,446.735 139.347,448.068 128.5,448C 103.659,449.567 78.9926,448.234 54.5,444C 39.7319,441.201 27.2319,434.368 17,423.5C 6.8453,403.973 10.6786,387.806 28.5,375C 35.4226,369.872 43.0893,366.372 51.5,364.5 Z"/></g>
</svg>
