<?xml version="1.0" encoding="UTF-8"?>
<!DOCTYPE svg PUBLIC "-//W3C//DTD SVG 1.1//EN" "http://www.w3.org/Graphics/SVG/1.1/DTD/svg11.dtd">
<svg xmlns="http://www.w3.org/2000/svg" version="1.1" viewBox="0 0 512 512" style="shape-rendering:geometricPrecision; text-rendering:geometricPrecision; image-rendering:optimizeQuality; fill-rule:evenodd; clip-rule:evenodd" xmlns:xlink="http://www.w3.org/1999/xlink">
<g><path style="opacity:0.992" fill="#e8e8f0" d="M 117.5,-0.5 C 125.5,-0.5 133.5,-0.5 141.5,-0.5C 148.894,1.52576 155.894,4.69242 162.5,9C 167.703,14.0354 172.703,19.202 177.5,24.5C 150.955,21.469 126.288,26.969 103.5,41C 98.1667,45.6667 98.1667,50.3333 103.5,55C 106.167,55.6667 108.833,55.6667 111.5,55C 124,47.7487 137.334,42.7487 151.5,40C 162.627,38.8901 173.294,40.5568 183.5,45C 161.14,46.2295 140.973,53.3962 123,66.5C 121.389,75.2178 124.889,79.0512 133.5,78C 145.869,70.4326 159.202,65.4326 173.5,63C 185.41,61.1566 196.744,62.8233 207.5,68C 184.92,68.8599 164.42,75.6933 146,88.5C 143.314,95.4579 145.647,99.7912 153,101.5C 161.063,97.553 169.23,93.7197 177.5,90C 189.793,85.4257 202.46,83.759 215.5,85C 219.979,86.271 224.312,87.9377 228.5,90C 206.842,91.6633 187.009,98.4967 169,110.5C 165.823,119.646 168.989,123.812 178.5,123C 190.771,116.022 203.771,111.022 217.5,108C 230.514,106.004 242.847,108.004 254.5,114C 258.032,118.912 262.699,120.912 268.5,120C 269.381,119.292 270.047,118.458 270.5,117.5C 275.167,121.5 279.5,125.833 283.5,130.5C 263.818,119.924 243.484,118.757 222.5,127C 189.503,139.993 163.003,161.159 143,190.5C 137.434,198.964 132.934,207.964 129.5,217.5C 129.167,217.5 128.833,217.5 128.5,217.5C 123.5,211.5 118.5,205.5 113.5,199.5C 123.02,175.128 137.853,154.461 158,137.5C 160.677,130.523 158.344,126.19 151,124.5C 148.968,124.858 147.134,125.692 145.5,127C 126.083,143.912 111.083,164.079 100.5,187.5C 96.8815,184.548 93.5481,181.215 90.5,177.5C 100.153,153.224 114.987,132.557 135,115.5C 138.292,106.457 135.126,102.29 125.5,103C 104.564,119.736 88.5637,140.236 77.5,164.5C 73.7657,161.769 70.7657,158.436 68.5,154.5C 73.1614,141.511 79.6614,129.511 88,118.5C 96.0244,109.477 104.358,100.81 113,92.5C 115.543,84.0393 112.376,79.8726 103.5,80C 82.4446,96.5553 66.4446,117.055 55.5,141.5C 51.5644,139.234 48.2311,136.234 45.5,132.5C 55.0844,108.08 69.9178,87.4131 90,70.5C 93.1772,61.3545 90.0105,57.1878 80.5,58C 59.4446,74.5553 43.4446,95.0553 32.5,119.5C 24.1135,111.11 15.4469,103.11 6.5,95.5C 24.8208,51.6798 56.1542,21.1798 100.5,4C 106.276,2.4194 111.942,0.919399 117.5,-0.5 Z"/></g>
<g><path style="opacity:1" fill="#434753" d="M 177.5,24.5 C 208.833,55.1667 239.833,86.1667 270.5,117.5C 270.047,118.458 269.381,119.292 268.5,120C 262.699,120.912 258.032,118.912 254.5,114C 242.847,108.004 230.514,106.004 217.5,108C 203.771,111.022 190.771,116.022 178.5,123C 168.989,123.812 165.823,119.646 169,110.5C 187.009,98.4967 206.842,91.6633 228.5,90C 224.312,87.9377 219.979,86.271 215.5,85C 202.46,83.759 189.793,85.4257 177.5,90C 169.23,93.7197 161.063,97.553 153,101.5C 145.647,99.7912 143.314,95.4579 146,88.5C 164.42,75.6933 184.92,68.8599 207.5,68C 196.744,62.8233 185.41,61.1566 173.5,63C 159.202,65.4326 145.869,70.4326 133.5,78C 124.889,79.0512 121.389,75.2178 123,66.5C 140.973,53.3962 161.14,46.2295 183.5,45C 173.294,40.5568 162.627,38.8901 151.5,40C 137.334,42.7487 124,47.7487 111.5,55C 108.833,55.6667 106.167,55.6667 103.5,55C 98.1667,50.3333 98.1667,45.6667 103.5,41C 126.288,26.969 150.955,21.469 177.5,24.5 Z"/></g>
<g><path style="opacity:1" fill="#434753" d="M 45.5,132.5 C 42.8091,139.564 40.6424,146.898 39,154.5C 27.8667,160.724 23.2,157.39 25,144.5C 26.4196,135.817 28.9196,127.483 32.5,119.5C 43.4446,95.0553 59.4446,74.5553 80.5,58C 90.0105,57.1878 93.1772,61.3545 90,70.5C 69.9178,87.4131 55.0844,108.08 45.5,132.5 Z"/></g>
<g><path style="opacity:1" fill="#434753" d="M 68.5,154.5 C 65.4274,161.435 63.2607,168.769 62,176.5C 58.5796,180.753 54.4129,181.587 49.5,179C 46.7352,176.005 45.9019,172.505 47,168.5C 48.7595,159.119 51.5928,150.119 55.5,141.5C 66.4446,117.055 82.4446,96.5553 103.5,80C 112.376,79.8726 115.543,84.0393 113,92.5C 104.358,100.81 96.0244,109.477 88,118.5C 79.6614,129.511 73.1614,141.511 68.5,154.5 Z"/></g>
<g><path style="opacity:1" fill="#cacad7" d="M 6.5,95.5 C 15.4469,103.11 24.1135,111.11 32.5,119.5C 28.9196,127.483 26.4196,135.817 25,144.5C 23.2,157.39 27.8667,160.724 39,154.5C 40.6424,146.898 42.8091,139.564 45.5,132.5C 48.2311,136.234 51.5644,139.234 55.5,141.5C 51.5928,150.119 48.7595,159.119 47,168.5C 45.9019,172.505 46.7352,176.005 49.5,179C 54.4129,181.587 58.5796,180.753 62,176.5C 63.2607,168.769 65.4274,161.435 68.5,154.5C 70.7657,158.436 73.7657,161.769 77.5,164.5C 74.5036,172.324 72.0036,180.324 70,188.5C 69.1462,192.625 69.4796,196.625 71,200.5C 75.6041,204.532 79.9374,204.199 84,199.5C 85.6111,191.899 87.7777,184.566 90.5,177.5C 93.5481,181.215 96.8815,184.548 100.5,187.5C 95.0977,197.867 92.2644,208.867 92,220.5C 95.5103,225.789 100.01,226.789 105.5,223.5C 106.531,222.3 107.365,220.966 108,219.5C 108.672,212.395 110.506,205.728 113.5,199.5C 118.5,205.5 123.5,211.5 128.5,217.5C 121.68,234.06 120.18,251.06 124,268.5C 125.646,273.785 127.813,278.785 130.5,283.5C 90.2013,243.701 50.0346,203.701 10,163.5C 4.82653,156.494 1.32653,148.827 -0.5,140.5C -0.5,132.833 -0.5,125.167 -0.5,117.5C 1.02292,109.93 3.35625,102.597 6.5,95.5 Z"/></g>
<g><path style="opacity:1" fill="#434752" d="M 90.5,177.5 C 87.7777,184.566 85.6111,191.899 84,199.5C 79.9374,204.199 75.6041,204.532 71,200.5C 69.4796,196.625 69.1462,192.625 70,188.5C 72.0036,180.324 74.5036,172.324 77.5,164.5C 88.5637,140.236 104.564,119.736 125.5,103C 135.126,102.29 138.292,106.457 135,115.5C 114.987,132.557 100.153,153.224 90.5,177.5 Z"/></g>
<g><path style="opacity:1" fill="#f6c808" d="M 283.5,130.5 C 294.167,140.5 304.5,150.833 314.5,161.5C 300.714,151.916 285.381,148.416 268.5,151C 234.628,158.851 206.461,176.017 184,202.5C 173.379,215.416 164.546,229.416 157.5,244.5C 147.527,236.194 138.193,227.194 129.5,217.5C 132.934,207.964 137.434,198.964 143,190.5C 163.003,161.159 189.503,139.993 222.5,127C 243.484,118.757 263.818,119.924 283.5,130.5 Z"/></g>
<g><path style="opacity:1" fill="#434753" d="M 113.5,199.5 C 110.506,205.728 108.672,212.395 108,219.5C 107.365,220.966 106.531,222.3 105.5,223.5C 100.01,226.789 95.5103,225.789 92,220.5C 92.2644,208.867 95.0977,197.867 100.5,187.5C 111.083,164.079 126.083,143.912 145.5,127C 147.134,125.692 148.968,124.858 151,124.5C 158.344,126.19 160.677,130.523 158,137.5C 137.853,154.461 123.02,175.128 113.5,199.5 Z"/></g>
<g><path style="opacity:0.998" fill="#e8e8f0" d="M 314.5,161.5 C 323.167,169.5 331.5,177.833 339.5,186.5C 319.519,175.746 298.853,174.58 277.5,183C 269.771,185.698 262.438,189.198 255.5,193.5C 254.479,194.002 254.312,194.668 255,195.5C 276.833,217.333 298.667,239.167 320.5,261C 321.5,261.667 322.5,261.667 323.5,261C 336.964,253.431 351.297,248.431 366.5,246C 381.787,243.888 395.787,247.055 408.5,255.5C 410.833,257.167 412.833,259.167 414.5,261.5C 386.023,257.078 360.19,263.411 337,280.5C 335.389,289.218 338.889,293.051 347.5,292C 365.788,280.095 385.788,275.095 407.5,277C 412.519,277.673 417.186,279.34 421.5,282C 400.253,282.894 380.586,288.894 362.5,300C 357.167,304.667 357.167,309.333 362.5,314C 364.695,315.373 367.029,315.706 369.5,315C 390.1,301.481 412.433,296.814 436.5,301C 442.473,303.319 447.807,306.653 452.5,311C 456.072,311.847 459.406,311.347 462.5,309.5C 473.5,319.833 484.167,330.5 494.5,341.5C 474.193,330.787 453.193,329.621 431.5,338C 399.051,351.453 372.885,372.62 353,401.5C 347.709,409.749 343.209,418.415 339.5,427.5C 327.113,416.114 315.447,404.114 304.5,391.5C 314.052,367.104 328.885,346.437 349,329.5C 351.446,324.676 350.613,320.509 346.5,317C 343.366,316.21 340.366,316.543 337.5,318C 317.668,335.176 302.335,355.676 291.5,379.5C 287.334,376.679 284.334,373.012 282.5,368.5C 287.161,355.511 293.661,343.511 302,332.5C 309.891,323.365 318.224,314.699 327,306.5C 329.705,299.25 327.205,294.917 319.5,293.5C 311.673,297.815 304.839,303.481 299,310.5C 286.615,324.381 276.448,339.714 268.5,356.5C 264.766,353.769 261.766,350.436 259.5,346.5C 269.084,322.08 283.918,301.413 304,284.5C 306.993,274.828 303.493,270.661 293.5,272C 273.079,288.914 257.412,309.414 246.5,333.5C 244.629,333.141 243.129,332.141 242,330.5C 241.047,328.545 239.713,326.878 238,325.5C 237.517,324.552 237.351,323.552 237.5,322.5C 246.854,298.802 261.354,278.802 281,262.5C 284.722,257.21 283.888,252.71 278.5,249C 276.167,248.333 273.833,248.333 271.5,249C 251.055,265.933 235.388,286.433 224.5,310.5C 220.564,308.234 217.231,305.234 214.5,301.5C 223.705,277.45 238.205,257.117 258,240.5C 262.472,233.13 260.638,228.463 252.5,226.5C 250.366,226.515 248.366,227.015 246.5,228C 227.044,244.941 212.044,265.108 201.5,288.5C 197.334,285.679 194.334,282.012 192.5,277.5C 198.527,261.107 207.36,246.44 219,233.5C 225.054,227.446 231.054,221.446 237,215.5C 238.736,206.902 235.236,203.068 226.5,204C 206.055,220.933 190.388,241.433 179.5,265.5C 171.888,259.225 164.554,252.558 157.5,245.5C 157.5,245.167 157.5,244.833 157.5,244.5C 164.546,229.416 173.379,215.416 184,202.5C 206.461,176.017 234.628,158.851 268.5,151C 285.381,148.416 300.714,151.916 314.5,161.5 Z"/></g>
<g><path style="opacity:1" fill="#0baeda" d="M 339.5,186.5 C 362.833,209.167 385.833,232.167 408.5,255.5C 395.787,247.055 381.787,243.888 366.5,246C 351.297,248.431 336.964,253.431 323.5,261C 322.5,261.667 321.5,261.667 320.5,261C 298.667,239.167 276.833,217.333 255,195.5C 254.312,194.668 254.479,194.002 255.5,193.5C 262.438,189.198 269.771,185.698 277.5,183C 298.853,174.58 319.519,175.746 339.5,186.5 Z"/></g>
<g><path style="opacity:1" fill="#434652" d="M 192.5,277.5 C 189.124,285.133 186.624,293.133 185,301.5C 179.559,305.926 174.892,305.259 171,299.5C 171.064,287.475 173.897,276.141 179.5,265.5C 190.388,241.433 206.055,220.933 226.5,204C 235.236,203.068 238.736,206.902 237,215.5C 231.054,221.446 225.054,227.446 219,233.5C 207.36,246.44 198.527,261.107 192.5,277.5 Z"/></g>
<g><path style="opacity:1" fill="#424652" d="M 214.5,301.5 C 211.527,308.479 209.361,315.812 208,323.5C 204.205,326.803 200.038,327.303 195.5,325C 193.522,321.067 193.022,316.9 194,312.5C 195.603,304.193 198.103,296.193 201.5,288.5C 212.044,265.108 227.044,244.941 246.5,228C 248.366,227.015 250.366,226.515 252.5,226.5C 260.638,228.463 262.472,233.13 258,240.5C 238.205,257.117 223.705,277.45 214.5,301.5 Z"/></g>
<g><path style="opacity:1" fill="#cacad7" d="M 157.5,245.5 C 164.554,252.558 171.888,259.225 179.5,265.5C 173.897,276.141 171.064,287.475 171,299.5C 174.892,305.259 179.559,305.926 185,301.5C 186.624,293.133 189.124,285.133 192.5,277.5C 194.334,282.012 197.334,285.679 201.5,288.5C 198.103,296.193 195.603,304.193 194,312.5C 193.022,316.9 193.522,321.067 195.5,325C 200.038,327.303 204.205,326.803 208,323.5C 209.361,315.812 211.527,308.479 214.5,301.5C 217.231,305.234 220.564,308.234 224.5,310.5C 218.891,321.157 216.057,332.49 216,344.5C 219.892,350.259 224.559,350.926 230,346.5C 231.9,338.211 234.4,330.211 237.5,322.5C 237.351,323.552 237.517,324.552 238,325.5C 239.713,326.878 241.047,328.545 242,330.5C 243.129,332.141 244.629,333.141 246.5,333.5C 242.356,342.91 239.689,352.743 238.5,363C 238.689,371.064 242.689,373.73 250.5,371C 251.333,370.167 252.167,369.333 253,368.5C 254.361,360.812 256.527,353.479 259.5,346.5C 261.766,350.436 264.766,353.769 268.5,356.5C 264.827,366.192 262.161,376.192 260.5,386.5C 261.408,392.959 265.074,395.459 271.5,394C 273.286,393.215 274.786,392.049 276,390.5C 277.362,382.8 279.529,375.467 282.5,368.5C 284.334,373.012 287.334,376.679 291.5,379.5C 286.208,389.874 283.708,400.874 284,412.5C 288.184,418.663 292.851,418.996 298,413.5C 299.611,405.899 301.778,398.566 304.5,391.5C 315.447,404.114 327.113,416.114 339.5,427.5C 332.55,443.916 330.717,460.916 334,478.5C 335.694,483.765 337.861,488.765 340.5,493.5C 293.5,446.833 246.5,400.167 199.5,353.5C 187.901,340.399 175.734,327.732 163,315.5C 151.495,300.695 147.828,284.029 152,265.5C 153.331,258.677 155.164,252.01 157.5,245.5 Z"/></g>
<g><path style="opacity:1" fill="#434753" d="M 237.5,322.5 C 234.4,330.211 231.9,338.211 230,346.5C 224.559,350.926 219.892,350.259 216,344.5C 216.057,332.49 218.891,321.157 224.5,310.5C 235.388,286.433 251.055,265.933 271.5,249C 273.833,248.333 276.167,248.333 278.5,249C 283.888,252.71 284.722,257.21 281,262.5C 261.354,278.802 246.854,298.802 237.5,322.5 Z"/></g>
<g><path style="opacity:1" fill="#444854" d="M 414.5,261.5 C 430.833,277.167 446.833,293.167 462.5,309.5C 459.406,311.347 456.072,311.847 452.5,311C 447.807,306.653 442.473,303.319 436.5,301C 412.433,296.814 390.1,301.481 369.5,315C 367.029,315.706 364.695,315.373 362.5,314C 357.167,309.333 357.167,304.667 362.5,300C 380.586,288.894 400.253,282.894 421.5,282C 417.186,279.34 412.519,277.673 407.5,277C 385.788,275.095 365.788,280.095 347.5,292C 338.889,293.051 335.389,289.218 337,280.5C 360.19,263.411 386.023,257.078 414.5,261.5 Z"/></g>
<g><path style="opacity:1" fill="#434753" d="M 259.5,346.5 C 256.527,353.479 254.361,360.812 253,368.5C 252.167,369.333 251.333,370.167 250.5,371C 242.689,373.73 238.689,371.064 238.5,363C 239.689,352.743 242.356,342.91 246.5,333.5C 257.412,309.414 273.079,288.914 293.5,272C 303.493,270.661 306.993,274.828 304,284.5C 283.918,301.413 269.084,322.08 259.5,346.5 Z"/></g>
<g><path style="opacity:1" fill="#434753" d="M 282.5,368.5 C 279.529,375.467 277.362,382.8 276,390.5C 274.786,392.049 273.286,393.215 271.5,394C 265.074,395.459 261.408,392.959 260.5,386.5C 262.161,376.192 264.827,366.192 268.5,356.5C 276.448,339.714 286.615,324.381 299,310.5C 304.839,303.481 311.673,297.815 319.5,293.5C 327.205,294.917 329.705,299.25 327,306.5C 318.224,314.699 309.891,323.365 302,332.5C 293.661,343.511 287.161,355.511 282.5,368.5 Z"/></g>
<g><path style="opacity:1" fill="#cca606" d="M 128.5,217.5 C 128.833,217.5 129.167,217.5 129.5,217.5C 138.193,227.194 147.527,236.194 157.5,244.5C 157.5,244.833 157.5,245.167 157.5,245.5C 155.164,252.01 153.331,258.677 152,265.5C 147.828,284.029 151.495,300.695 163,315.5C 175.734,327.732 187.901,340.399 199.5,353.5C 199.5,364.5 199.5,375.5 199.5,386.5C 182.378,380.903 165.378,374.903 148.5,368.5C 148.667,346.164 148.5,323.831 148,301.5C 141.964,295.631 136.13,289.631 130.5,283.5C 127.813,278.785 125.646,273.785 124,268.5C 120.18,251.06 121.68,234.06 128.5,217.5 Z"/></g>
<g><path style="opacity:1" fill="#434753" d="M 304.5,391.5 C 301.778,398.566 299.611,405.899 298,413.5C 292.851,418.996 288.184,418.663 284,412.5C 283.708,400.874 286.208,389.874 291.5,379.5C 302.335,355.676 317.668,335.176 337.5,318C 340.366,316.543 343.366,316.21 346.5,317C 350.613,320.509 351.446,324.676 349,329.5C 328.885,346.437 314.052,367.104 304.5,391.5 Z"/></g>
<g><path style="opacity:0.997" fill="#939aa0" d="M 494.5,341.5 C 503.525,349.218 509.191,358.885 511.5,370.5C 511.5,377.833 511.5,385.167 511.5,392.5C 509.766,401.433 507.099,410.099 503.5,418.5C 494.337,396.506 478.337,382.006 455.5,375C 430.309,367.527 405.976,369.694 382.5,381.5C 391.029,390.194 399.362,399.028 407.5,408C 402.306,414.215 397.473,420.715 393,427.5C 388.374,435.444 384.707,443.777 382,452.5C 378.902,464.765 380.902,476.098 388,486.5C 396.164,494.656 405.997,497.823 417.5,496C 423.941,494.742 430.275,493.075 436.5,491C 444.051,487.063 451.384,482.896 458.5,478.5C 439.762,495.23 418.096,506.23 393.5,511.5C 385.5,511.5 377.5,511.5 369.5,511.5C 357.806,508.817 348.139,502.817 340.5,493.5C 337.861,488.765 335.694,483.765 334,478.5C 330.717,460.916 332.55,443.916 339.5,427.5C 343.209,418.415 347.709,409.749 353,401.5C 372.885,372.62 399.051,351.453 431.5,338C 453.193,329.621 474.193,330.787 494.5,341.5 Z"/></g>
<g><path style="opacity:0.96" fill="#f6c700" d="M 148.5,368.5 C 165.378,374.903 182.378,380.903 199.5,386.5C 199.833,402.847 199.499,419.18 198.5,435.5C 190.352,428.262 182.019,421.262 173.5,414.5C 165.481,421.687 157.314,428.687 149,435.5C 148.5,413.169 148.333,390.836 148.5,368.5 Z"/></g>
<g><path style="opacity:1" fill="#b9bec4" d="M 503.5,418.5 C 493.34,442.164 478.34,462.164 458.5,478.5C 451.384,482.896 444.051,487.063 436.5,491C 430.275,493.075 423.941,494.742 417.5,496C 405.997,497.823 396.164,494.656 388,486.5C 380.902,476.098 378.902,464.765 382,452.5C 384.707,443.777 388.374,435.444 393,427.5C 397.473,420.715 402.306,414.215 407.5,408C 399.362,399.028 391.029,390.194 382.5,381.5C 405.976,369.694 430.309,367.527 455.5,375C 478.337,382.006 494.337,396.506 503.5,418.5 Z"/></g>
</svg>
