<?xml version="1.0" encoding="UTF-8"?>
<!DOCTYPE svg PUBLIC "-//W3C//DTD SVG 1.1//EN" "http://www.w3.org/Graphics/SVG/1.1/DTD/svg11.dtd">
<svg xmlns="http://www.w3.org/2000/svg" version="1.1" viewBox="0 0 512 512" style="shape-rendering:geometricPrecision; text-rendering:geometricPrecision; image-rendering:optimizeQuality; fill-rule:evenodd; clip-rule:evenodd" xmlns:xlink="http://www.w3.org/1999/xlink">
<g><path style="opacity:0.989" fill="#f0c319" d="M 128.5,-0.5 C 133.167,-0.5 137.833,-0.5 142.5,-0.5C 168.261,13.5501 193.928,27.8834 219.5,42.5C 220.479,54.7533 220.813,67.0867 220.5,79.5C 194.74,93.4096 169.074,107.576 143.5,122C 138.841,123.551 134.174,123.718 129.5,122.5C 121.339,121.173 116.172,116.507 114,108.5C 113.333,77.1667 113.333,45.8333 114,14.5C 116.316,7.01838 121.149,2.01838 128.5,-0.5 Z"/></g>
<g><path style="opacity:0.988" fill="#f0c319" d="M 368.5,-0.5 C 373.167,-0.5 377.833,-0.5 382.5,-0.5C 389.851,2.01838 394.684,7.01838 397,14.5C 397.667,45.8333 397.667,77.1667 397,108.5C 394.828,116.507 389.661,121.173 381.5,122.5C 376.795,123.901 372.129,123.734 367.5,122C 341.926,107.576 316.26,93.4096 290.5,79.5C 290.187,67.0867 290.521,54.7533 291.5,42.5C 317.072,27.8834 342.739,13.5501 368.5,-0.5 Z"/></g>
<g><path style="opacity:0.993" fill="#f3d45b" d="M 291.5,42.5 C 290.521,54.7533 290.187,67.0867 290.5,79.5C 290.456,83.0897 288.789,85.5897 285.5,87C 265.5,87.6667 245.5,87.6667 225.5,87C 222.211,85.5897 220.544,83.0897 220.5,79.5C 220.813,67.0867 220.479,54.7533 219.5,42.5C 220.179,38.9837 222.179,36.4837 225.5,35C 245.5,34.3333 265.5,34.3333 285.5,35C 288.821,36.4837 290.821,38.9837 291.5,42.5 Z"/></g>
<g><path style="opacity:0.998" fill="#fa7a75" d="M 220.5,79.5 C 220.544,83.0897 222.211,85.5897 225.5,87C 245.5,87.6667 265.5,87.6667 285.5,87C 288.789,85.5897 290.456,83.0897 290.5,79.5C 316.26,93.4096 341.926,107.576 367.5,122C 372.129,123.734 376.795,123.901 381.5,122.5C 413.811,166.348 422.644,214.681 408,267.5C 402.707,285.089 394.54,301.089 383.5,315.5C 342.912,365.319 290.578,385.819 226.5,377C 186.087,368.142 153.087,347.642 127.5,315.5C 94.8902,268.978 87.7235,218.645 106,164.5C 112.043,149.405 119.876,135.405 129.5,122.5C 134.174,123.718 138.841,123.551 143.5,122C 169.074,107.576 194.74,93.4096 220.5,79.5 Z"/></g>
<g><path style="opacity:1" fill="#3f5c6c" d="M 226.5,198.5 C 235.155,208.738 235.655,219.405 228,230.5C 218.99,238.294 209.156,239.46 198.5,234C 188.726,225.306 186.892,215.14 193,203.5C 195.04,201.63 196.873,199.63 198.5,197.5C 207.923,192.103 217.256,192.436 226.5,198.5 Z"/></g>
<g><path style="opacity:1" fill="#405c6c" d="M 314.5,198.5 C 317.161,201.814 319.328,205.481 321,209.5C 322.013,231.152 311.846,239.986 290.5,236C 280.604,230.374 276.437,221.874 278,210.5C 279.747,206 282.247,202 285.5,198.5C 295.1,191.888 304.766,191.888 314.5,198.5 Z"/></g>
<g><path style="opacity:1" fill="#3b4a5e" d="M 198.5,197.5 C 196.873,199.63 195.04,201.63 193,203.5C 186.892,215.14 188.726,225.306 198.5,234C 209.156,239.46 218.99,238.294 228,230.5C 235.655,219.405 235.155,208.738 226.5,198.5C 236.162,205.842 239.662,215.509 237,227.5C 227.56,246.869 213.394,251.369 194.5,241C 183.909,230.48 182.075,218.647 189,205.5C 191.766,202.223 194.933,199.557 198.5,197.5 Z"/></g>
<g><path style="opacity:1" fill="#e5eaeb" d="M 199.5,202.5 C 209.353,202.51 212.853,207.177 210,216.5C 203.252,222.55 197.919,221.55 194,213.5C 193.176,208.482 195.009,204.815 199.5,202.5 Z"/></g>
<g><path style="opacity:1" fill="#3b4a5e" d="M 285.5,198.5 C 282.247,202 279.747,206 278,210.5C 276.437,221.874 280.604,230.374 290.5,236C 311.846,239.986 322.013,231.152 321,209.5C 319.328,205.481 317.161,201.814 314.5,198.5C 328.198,209.741 330.031,222.741 320,237.5C 305.358,250.117 291.358,249.45 278,235.5C 272.005,225.204 272.005,214.871 278,204.5C 280.106,201.882 282.606,199.882 285.5,198.5 Z"/></g>
<g><path style="opacity:1" fill="#e6ebed" d="M 287.5,202.5 C 296.036,202.2 299.87,206.2 299,214.5C 294.175,222.061 288.841,222.394 283,215.5C 281.379,209.923 282.879,205.589 287.5,202.5 Z"/></g>
<g><path style="opacity:1" fill="#fe5464" d="M 164.5,237.5 C 169.952,237.144 173.785,239.477 176,244.5C 177.245,250.706 176.412,256.539 173.5,262C 167.376,266.043 162.542,264.876 159,258.5C 158.333,253.5 158.333,248.5 159,243.5C 160.36,240.977 162.193,238.977 164.5,237.5 Z"/></g>
<g><path style="opacity:1" fill="#fe5464" d="M 341.5,237.5 C 346.421,237.043 349.921,239.043 352,243.5C 352.667,248.5 352.667,253.5 352,258.5C 348.086,265.096 343.086,266.096 337,261.5C 334.114,255.311 333.781,248.977 336,242.5C 337.73,240.598 339.563,238.931 341.5,237.5 Z"/></g>
<g><path style="opacity:1" fill="#fe5364" d="M 137.5,264.5 C 143.29,264.096 148.956,264.596 154.5,266C 160.012,271.408 159.679,276.408 153.5,281C 147.833,281.667 142.167,281.667 136.5,281C 132.673,277.692 131.506,273.526 133,268.5C 134.397,266.93 135.897,265.596 137.5,264.5 Z"/></g>
<g><path style="opacity:1" fill="#fe5364" d="M 357.5,264.5 C 363.621,264.09 369.621,264.59 375.5,266C 379.728,271.284 379.395,276.284 374.5,281C 368.056,281.915 361.723,281.581 355.5,280C 351.07,274.178 351.736,269.011 357.5,264.5 Z"/></g>
<g><path style="opacity:1" fill="#802d40" d="M 279.5,298.5 C 267.498,290.182 254.498,288.348 240.5,293C 237.351,294.662 234.351,296.495 231.5,298.5C 224.322,291.802 220.655,283.469 220.5,273.5C 243.833,273.5 267.167,273.5 290.5,273.5C 290.345,283.469 286.678,291.802 279.5,298.5 Z"/></g>
<g><path style="opacity:1" fill="#fe5464" d="M 163.5,282.5 C 169.392,281.073 173.559,283.073 176,288.5C 177.11,294.426 176.444,300.092 174,305.5C 167.819,310.237 162.819,309.237 159,302.5C 158.333,297.5 158.333,292.5 159,287.5C 160.025,285.313 161.525,283.646 163.5,282.5 Z"/></g>
<g><path style="opacity:1" fill="#fe5464" d="M 339.5,282.5 C 342.187,282.336 344.854,282.503 347.5,283C 349.667,283.833 351.167,285.333 352,287.5C 352.667,292.5 352.667,297.5 352,302.5C 348.96,308.368 344.46,309.868 338.5,307C 336.959,305.421 335.792,303.587 335,301.5C 334.333,297.167 334.333,292.833 335,288.5C 336.332,286.34 337.832,284.34 339.5,282.5 Z"/></g>
<g><path style="opacity:1" fill="#fb5263" d="M 279.5,298.5 C 268.496,308.748 255.83,311.248 241.5,306C 237.7,304.021 234.366,301.521 231.5,298.5C 234.351,296.495 237.351,294.662 240.5,293C 254.498,288.348 267.498,290.182 279.5,298.5 Z"/></g>
<g><path style="opacity:0.994" fill="#fe5364" d="M 112.5,312.5 C 111.957,312.56 111.624,312.893 111.5,313.5C 141.198,371.831 188.865,402.165 254.5,404.5C 321.02,402.759 369.354,372.426 399.5,313.5C 399.376,312.893 399.043,312.56 398.5,312.5C 404.926,310.744 411.592,309.578 418.5,309C 429.833,308.333 441.167,308.333 452.5,309C 483.369,312.385 503.036,328.885 511.5,358.5C 511.5,364.5 511.5,370.5 511.5,376.5C 506.438,387.705 497.771,394.872 485.5,398C 480.625,399.636 475.625,400.469 470.5,400.5C 467.733,395.898 464.066,392.064 459.5,389C 436.475,373.129 411.142,364.796 383.5,364C 378.992,368.053 378.326,372.72 381.5,378C 382.672,378.419 383.672,379.085 384.5,380C 406.985,383.032 427.985,390.199 447.5,401.5C 447.5,402.167 447.833,402.5 448.5,402.5C 466.423,419.768 473.923,440.768 471,465.5C 465.574,478.572 455.741,486.072 441.5,488C 401.245,492.526 365.579,482.026 334.5,456.5C 332.968,451.772 331.135,447.105 329,442.5C 329.011,437.9 328.011,433.567 326,429.5C 319.952,425.094 314.952,426.094 311,432.5C 310.492,444.644 313.825,455.644 321,465.5C 323.436,468.447 326.269,470.78 329.5,472.5C 320.99,488.775 307.99,499.941 290.5,506C 283.486,508.295 276.486,510.128 269.5,511.5C 260.167,511.5 250.833,511.5 241.5,511.5C 219.809,508.57 201.643,498.903 187,482.5C 185.156,479.472 183.322,476.472 181.5,473.5C 195.777,462.143 201.11,447.643 197.5,430C 192.506,426.334 188.006,426.834 184,431.5C 182.826,435.046 182.16,438.713 182,442.5C 179.842,447.132 178.009,451.799 176.5,456.5C 145.421,482.026 109.755,492.526 69.5,488C 42.6386,481.8 33.1386,465.3 41,438.5C 44.867,424.417 52.0336,412.417 62.5,402.5C 63.1667,402.5 63.5,402.167 63.5,401.5C 83.0069,390.053 104.007,382.886 126.5,380C 132.906,376.048 133.906,371.048 129.5,365C 127.232,363.448 124.732,362.615 122,362.5C 94.6051,366.072 69.7717,375.905 47.5,392C 44.5532,394.436 42.2199,397.269 40.5,400.5C 27.4986,400.002 15.9986,395.668 6,387.5C 3.28937,384.067 1.1227,380.4 -0.5,376.5C -0.5,370.5 -0.5,364.5 -0.5,358.5C 7.964,328.885 27.6307,312.385 58.5,309C 69.8333,308.333 81.1667,308.333 92.5,309C 99.4077,309.578 106.074,310.744 112.5,312.5 Z"/></g>
<g><path style="opacity:1" fill="#df4d60" d="M 112.5,312.5 C 117.6,313.025 122.6,314.025 127.5,315.5C 153.087,347.642 186.087,368.142 226.5,377C 290.578,385.819 342.912,365.319 383.5,315.5C 388.4,314.025 393.4,313.025 398.5,312.5C 399.043,312.56 399.376,312.893 399.5,313.5C 369.354,372.426 321.02,402.759 254.5,404.5C 188.865,402.165 141.198,371.831 111.5,313.5C 111.624,312.893 111.957,312.56 112.5,312.5 Z"/></g>
<g><path style="opacity:1" fill="#fb7a75" d="M 65.5,334.5 C 71.3238,333.588 76.4905,334.922 81,338.5C 83.446,343.324 82.6127,347.491 78.5,351C 70.4598,352.005 62.4598,353.338 54.5,355C 48.3333,357.167 44.1667,361.333 42,367.5C 37.6204,372.343 32.9538,372.677 28,368.5C 25.6999,359.56 28.1999,352.06 35.5,346C 44.5747,339.479 54.5747,335.646 65.5,334.5 Z"/></g>
<g><path style="opacity:1" fill="#fb7a75" d="M 434.5,334.5 C 450.985,333.342 465.485,338.009 478,348.5C 480.503,351.502 482.503,354.835 484,358.5C 486.161,367.662 482.661,371.829 473.5,371C 469.61,368.404 466.777,364.904 465,360.5C 461.703,357.433 457.869,355.267 453.5,354C 446.408,353.357 439.408,352.357 432.5,351C 426.799,344.711 427.465,339.211 434.5,334.5 Z"/></g>
<g><path style="opacity:1" fill="#df4d60" d="M 63.5,401.5 C 62.8333,401.5 62.5,401.833 62.5,402.5C 54.9985,402.077 47.6651,401.41 40.5,400.5C 42.2199,397.269 44.5532,394.436 47.5,392C 69.7717,375.905 94.6051,366.072 122,362.5C 124.732,362.615 127.232,363.448 129.5,365C 133.906,371.048 132.906,376.048 126.5,380C 104.007,382.886 83.0069,390.053 63.5,401.5 Z"/></g>
<g><path style="opacity:1" fill="#df4d60" d="M 470.5,400.5 C 463.335,401.41 456.002,402.077 448.5,402.5C 447.833,402.5 447.5,402.167 447.5,401.5C 427.985,390.199 406.985,383.032 384.5,380C 383.672,379.085 382.672,378.419 381.5,378C 378.326,372.72 378.992,368.053 383.5,364C 411.142,364.796 436.475,373.129 459.5,389C 464.066,392.064 467.733,395.898 470.5,400.5 Z"/></g>
<g><path style="opacity:1" fill="#fb7a75" d="M 135.5,396.5 C 140.715,395.702 145.215,397.036 149,400.5C 151.269,404.714 150.769,408.547 147.5,412C 131.758,414.688 116.758,419.688 102.5,427C 90.1641,434.348 82.4975,445.015 79.5,459C 71.985,463.412 66.985,461.412 64.5,453C 66.4995,438.668 73.1662,427.001 84.5,418C 100.167,407.495 117.167,400.328 135.5,396.5 Z"/></g>
<g><path style="opacity:1" fill="#fb7a75" d="M 366.5,396.5 C 388.413,398.473 408.413,405.64 426.5,418C 437.834,427.001 444.5,438.668 446.5,453C 444.438,460.468 439.772,462.801 432.5,460C 429.699,453.054 426.532,446.22 423,439.5C 414.669,430.176 404.502,423.676 392.5,420C 384.049,417.146 375.382,415.146 366.5,414C 358.556,408.131 358.556,402.297 366.5,396.5 Z"/></g>
<g><path style="opacity:1" fill="#e04d60" d="M 334.5,456.5 C 334.361,462.409 332.695,467.743 329.5,472.5C 326.269,470.78 323.436,468.447 321,465.5C 313.825,455.644 310.492,444.644 311,432.5C 314.952,426.094 319.952,425.094 326,429.5C 328.011,433.567 329.011,437.9 329,442.5C 331.135,447.105 332.968,451.772 334.5,456.5 Z"/></g>
<g><path style="opacity:1" fill="#df4d60" d="M 181.5,473.5 C 178.441,468.266 176.774,462.599 176.5,456.5C 178.009,451.799 179.842,447.132 182,442.5C 182.16,438.713 182.826,435.046 184,431.5C 188.006,426.834 192.506,426.334 197.5,430C 201.11,447.643 195.777,462.143 181.5,473.5 Z"/></g>
<g><path style="opacity:1" fill="#fb7a75" d="M 207.5,449.5 C 212.223,448.553 216.056,449.886 219,453.5C 220.033,459.733 223.2,464.566 228.5,468C 249.352,479.03 269.185,477.53 288,463.5C 289.867,461.192 290.867,458.525 291,455.5C 295.53,448.412 300.863,447.745 307,453.5C 308.714,461.713 306.714,469.047 301,475.5C 284.487,489.681 265.32,495.181 243.5,492C 230.504,490.085 219.337,484.585 210,475.5C 204.863,469.421 202.529,462.421 203,454.5C 204.366,452.638 205.866,450.972 207.5,449.5 Z"/></g>
</svg>
