<?xml version="1.0" encoding="UTF-8"?>
<!DOCTYPE svg PUBLIC "-//W3C//DTD SVG 1.1//EN" "http://www.w3.org/Graphics/SVG/1.1/DTD/svg11.dtd">
<svg xmlns="http://www.w3.org/2000/svg" version="1.1" viewBox="0 0 512 512" style="shape-rendering:geometricPrecision; text-rendering:geometricPrecision; image-rendering:optimizeQuality; fill-rule:evenodd; clip-rule:evenodd" xmlns:xlink="http://www.w3.org/1999/xlink">
<g><path style="opacity:0.96" fill="#efb568" d="M 345.5,68.5 C 340.804,70.3445 336.137,72.5111 331.5,75C 325.664,80.0042 319.997,85.1708 314.5,90.5C 315.736,76.8095 317.236,63.1428 319,49.5C 328.014,55.6965 336.848,62.0298 345.5,68.5 Z"/></g>
<g><path style="opacity:1" fill="#1b6e3c" d="M 507.5,104.5 C 501.379,96.7579 493.712,90.9245 484.5,87C 439.146,72.319 393.146,69.6524 346.5,79C 335.512,84.0898 326.012,91.2565 318,100.5C 297.991,124.517 280.325,150.183 265,177.5C 248.019,212.133 230.019,246.133 211,279.5C 192.376,311.791 165.209,333.291 129.5,344C 105.797,350.131 82.7972,348.131 60.5,338C 44.5988,330.215 28.5988,322.715 12.5,315.5C 8.80621,312.473 5.47288,309.14 2.5,305.5C 6.29955,304.408 9.96622,305.074 13.5,307.5C 27.2859,314.559 41.2859,321.392 55.5,328C 112.113,347.352 158.947,333.518 196,286.5C 202.606,277.615 208.439,268.282 213.5,258.5C 229.105,231.626 243.439,203.96 256.5,175.5C 265.83,160.175 275.163,144.841 284.5,129.5C 293.762,115.998 303.762,102.998 314.5,90.5C 319.997,85.1708 325.664,80.0042 331.5,75C 336.137,72.5111 340.804,70.3445 345.5,68.5C 391.171,60.2891 436.171,63.1225 480.5,77C 489.154,80.912 496.654,86.412 503,93.5C 505.575,96.7262 507.075,100.393 507.5,104.5 Z"/></g>
<g><path style="opacity:0.998" fill="#308e56" d="M 507.5,104.5 C 508.928,109.088 509.595,113.921 509.5,119C 507.701,146.194 504.367,173.194 499.5,200C 498.178,207.303 495.678,214.136 492,220.5C 490.269,222.617 488.102,224.117 485.5,225C 476.814,225.632 468.148,225.466 459.5,224.5C 459.67,223.178 459.337,222.011 458.5,221C 438.294,217.532 417.961,214.866 397.5,213C 385.586,210.713 374.252,206.713 363.5,201C 363.382,197.97 363.215,194.803 363,191.5C 361.644,190.62 360.144,190.286 358.5,190.5C 358.985,198.195 355.819,203.862 349,207.5C 348.51,208.793 348.343,210.127 348.5,211.5C 350.655,211.628 352.655,211.128 354.5,210C 356.054,208.108 357.888,206.608 360,205.5C 365.653,207.764 371.153,210.097 376.5,212.5C 374.453,215.902 374.119,219.569 375.5,223.5C 380.4,221.56 384.733,218.893 388.5,215.5C 392.906,217.515 397.572,218.515 402.5,218.5C 403.701,222.263 405.201,225.93 407,229.5C 409.872,226.963 412.372,224.13 414.5,221C 413.584,220.722 412.918,220.222 412.5,219.5C 420.924,220.85 429.258,221.85 437.5,222.5C 436.167,222.5 434.833,222.5 433.5,222.5C 434.093,225.945 435.093,229.279 436.5,232.5C 439.906,229.483 443.24,226.483 446.5,223.5C 450.101,224.349 453.768,225.016 457.5,225.5C 457.5,226.833 457.5,228.167 457.5,229.5C 450.359,236.309 441.693,239.809 431.5,240C 402.001,241.582 372.667,240.082 343.5,235.5C 339.055,236.388 334.555,236.388 330,235.5C 319.886,235.528 310.553,238.194 302,243.5C 301.085,245.92 301.918,247.253 304.5,247.5C 314.44,242.111 325.106,239.778 336.5,240.5C 337.566,242.701 338.233,245.035 338.5,247.5C 326.149,256.385 316.483,267.552 309.5,281C 313.488,286.321 318.154,290.988 323.5,295C 331.253,297.87 338.253,296.704 344.5,291.5C 345.466,289.604 345.799,287.604 345.5,285.5C 346.309,287.292 346.809,289.292 347,291.5C 351.088,286.028 356.255,284.528 362.5,287C 369.498,291.538 374.165,297.704 376.5,305.5C 376.244,312.579 372.577,315.412 365.5,314C 362.27,311.927 358.937,310.094 355.5,308.5C 352.783,308.852 350.783,310.185 349.5,312.5C 345.394,315.429 341.394,318.596 337.5,322C 331.436,325.55 325.102,326.217 318.5,324C 310.45,320.739 303.616,315.906 298,309.5C 296.88,311.03 296.046,312.697 295.5,314.5C 291.225,327.601 287.891,340.934 285.5,354.5C 284.566,355.568 284.232,356.901 284.5,358.5C 276.165,351.884 266.665,347.884 256,346.5C 252.993,348.039 252.826,349.872 255.5,352C 266.033,352.726 275.033,356.726 282.5,364C 284.193,364.484 285.527,363.984 286.5,362.5C 290.872,368.063 294.706,374.063 298,380.5C 303.047,392.956 303.713,405.623 300,418.5C 297.429,423.676 293.929,428.009 289.5,431.5C 284.824,434.282 279.824,436.282 274.5,437.5C 272.518,437.995 270.518,438.495 268.5,439C 274.266,439.309 279.933,440.142 285.5,441.5C 293.378,445.389 294.378,450.555 288.5,457C 285.058,458.184 281.725,459.35 278.5,460.5C 265.825,461.855 253.158,461.688 240.5,460C 233.746,459.374 228.246,456.541 224,451.5C 223.333,449.5 223.333,447.5 224,445.5C 227.107,440.944 229.94,436.277 232.5,431.5C 234.451,431.773 235.951,431.107 237,429.5C 239.759,415.452 236.259,403.286 226.5,393C 224.359,392.116 222.693,392.616 221.5,394.5C 231.34,404.348 234.673,416.014 231.5,429.5C 204.868,428.127 178.868,423.794 153.5,416.5C 146.793,409.638 139.46,403.472 131.5,398C 102.5,379.667 73.5,361.333 44.5,343C 32.8299,334.999 22.1632,325.832 12.5,315.5C 28.5988,322.715 44.5988,330.215 60.5,338C 82.7972,348.131 105.797,350.131 129.5,344C 165.209,333.291 192.376,311.791 211,279.5C 230.019,246.133 248.019,212.133 265,177.5C 280.325,150.183 297.991,124.517 318,100.5C 326.012,91.2565 335.512,84.0898 346.5,79C 393.146,69.6524 439.146,72.319 484.5,87C 493.712,90.9245 501.379,96.7579 507.5,104.5 Z"/></g>
<g><path style="opacity:0.973" fill="#f4ba6b" d="M 307.5,89.5 C 300.833,97.6714 294.333,106.005 288,114.5C 285.94,117.286 284.44,120.286 283.5,123.5C 279.869,111.997 276.369,100.331 273,88.5C 272.202,86.7412 272.369,85.0745 273.5,83.5C 284.863,85.5046 296.196,87.5046 307.5,89.5 Z"/></g>
<g><path style="opacity:1" fill="#efb76a" d="M 439.5,80.5 C 445.509,80.3338 451.509,80.5005 457.5,81C 467.047,83.8538 470.547,90.0204 468,99.5C 464.604,103.203 460.437,104.369 455.5,103C 452.228,101.392 449.228,99.3922 446.5,97C 443.662,96.6305 440.829,96.7971 438,97.5C 428.298,94.8561 427.131,90.0228 434.5,83C 436.315,82.2432 437.981,81.4098 439.5,80.5 Z"/></g>
<g><path style="opacity:1" fill="#e2ab60" d="M 307.5,89.5 C 309.903,89.448 312.236,89.7814 314.5,90.5C 303.762,102.998 293.762,115.998 284.5,129.5C 284.167,127.5 283.833,125.5 283.5,123.5C 284.44,120.286 285.94,117.286 288,114.5C 294.333,106.005 300.833,97.6714 307.5,89.5 Z"/></g>
<g><path style="opacity:1" fill="#2a1d41" d="M 364.5,103.5 C 375.865,103.028 380.699,108.362 379,119.5C 372,128.833 365,128.833 358,119.5C 356.062,112.389 358.229,107.056 364.5,103.5 Z"/></g>
<g><path style="opacity:1" fill="#f7f7f8" d="M 371.5,107.5 C 372.833,107.5 374.167,107.5 375.5,107.5C 375.5,109.167 375.5,110.833 375.5,112.5C 371.065,113.078 369.732,111.411 371.5,107.5 Z"/></g>
<g><path style="opacity:1" fill="#ecb568" d="M 439.5,103.5 C 446.143,103.311 450.476,106.311 452.5,112.5C 448.784,118.842 444.284,119.176 439,113.5C 435.561,109.813 435.728,106.479 439.5,103.5 Z"/></g>
<g><path style="opacity:1" fill="#d7d4db" d="M 364.5,108.5 C 365.675,108.281 366.675,108.614 367.5,109.5C 365.948,110.798 364.948,110.465 364.5,108.5 Z"/></g>
<g><path style="opacity:1" fill="#eeb769" d="M 465.5,107.5 C 476.839,108.003 480.006,113.336 475,123.5C 470.427,129.816 465.093,130.816 459,126.5C 456.296,118.444 458.463,112.111 465.5,107.5 Z"/></g>
<g><path style="opacity:1" fill="#dcdae0" d="M 366.5,111.5 C 368.465,111.948 368.798,112.948 367.5,114.5C 366.614,113.675 366.281,112.675 366.5,111.5 Z"/></g>
<g><path style="opacity:1" fill="#186d3b" d="M 491.5,115.5 C 499.09,116.563 501.09,120.396 497.5,127C 495.888,127.72 494.388,127.554 493,126.5C 492.064,122.886 491.564,119.22 491.5,115.5 Z"/></g>
<g><path style="opacity:0.97" fill="#f3b96b" d="M 276.5,130.5 C 268.925,143.311 261.592,156.311 254.5,169.5C 248.877,159.312 244.21,148.646 240.5,137.5C 252.556,135.422 264.556,133.089 276.5,130.5 Z"/></g>
<g><path style="opacity:1" fill="#e2ab60" d="M 284.5,129.5 C 275.163,144.841 265.83,160.175 256.5,175.5C 255.27,173.703 254.604,171.703 254.5,169.5C 261.592,156.311 268.925,143.311 276.5,130.5C 279.127,129.908 281.794,129.575 284.5,129.5 Z"/></g>
<g><path style="opacity:0.964" fill="#f3b96b" d="M 250.5,176.5 C 244.833,187.833 239.167,199.167 233.5,210.5C 228.583,201.246 224.749,191.579 222,181.5C 231.403,179.46 240.903,177.794 250.5,176.5 Z"/></g>
<g><path style="opacity:0.999" fill="#1b6f3d" d="M 459.5,224.5 C 459.158,225.338 458.492,225.672 457.5,225.5C 453.768,225.016 450.101,224.349 446.5,223.5C 443.482,223.296 440.482,222.963 437.5,222.5C 429.258,221.85 420.924,220.85 412.5,219.5C 409.098,219.658 405.764,219.324 402.5,218.5C 397.572,218.515 392.906,217.515 388.5,215.5C 384.322,215.122 380.322,214.122 376.5,212.5C 371.153,210.097 365.653,207.764 360,205.5C 357.888,206.608 356.054,208.108 354.5,210C 352.655,211.128 350.655,211.628 348.5,211.5C 348.343,210.127 348.51,208.793 349,207.5C 355.819,203.862 358.985,198.195 358.5,190.5C 360.144,190.286 361.644,190.62 363,191.5C 363.215,194.803 363.382,197.97 363.5,201C 374.252,206.713 385.586,210.713 397.5,213C 417.961,214.866 438.294,217.532 458.5,221C 459.337,222.011 459.67,223.178 459.5,224.5 Z"/></g>
<g><path style="opacity:1" fill="#f2f7f4" d="M 376.5,212.5 C 380.322,214.122 384.322,215.122 388.5,215.5C 384.733,218.893 380.4,221.56 375.5,223.5C 374.119,219.569 374.453,215.902 376.5,212.5 Z"/></g>
<g><path style="opacity:1" fill="#e2ab60" d="M 256.5,175.5 C 243.439,203.96 229.105,231.626 213.5,258.5C 212.5,255.833 211.5,253.167 210.5,250.5C 211.496,250.586 212.329,250.252 213,249.5C 218.796,238.905 224.296,228.239 229.5,217.5C 231.75,217.819 233.75,217.319 235.5,216C 234.139,214.416 233.472,212.582 233.5,210.5C 239.167,199.167 244.833,187.833 250.5,176.5C 252.435,175.85 254.435,175.517 256.5,175.5 Z"/></g>
<g><path style="opacity:0.976" fill="#f4b96b" d="M 229.5,217.5 C 224.296,228.239 218.796,238.905 213,249.5C 212.329,250.252 211.496,250.586 210.5,250.5C 207.705,241.45 204.705,232.45 201.5,223.5C 210.738,221.071 220.072,219.071 229.5,217.5 Z"/></g>
<g><path style="opacity:1" fill="#f2f7f4" d="M 402.5,218.5 C 405.764,219.324 409.098,219.658 412.5,219.5C 412.918,220.222 413.584,220.722 414.5,221C 412.372,224.13 409.872,226.963 407,229.5C 405.201,225.93 403.701,222.263 402.5,218.5 Z"/></g>
<g><path style="opacity:1" fill="#f5f9f7" d="M 437.5,222.5 C 440.482,222.963 443.482,223.296 446.5,223.5C 443.24,226.483 439.906,229.483 436.5,232.5C 435.093,229.279 434.093,225.945 433.5,222.5C 434.833,222.5 436.167,222.5 437.5,222.5 Z"/></g>
<g><path style="opacity:1" fill="#196f3c" d="M 457.5,229.5 C 456.972,235.236 454.305,239.736 449.5,243C 443.13,245.808 436.463,247.475 429.5,248C 418.167,248.667 406.833,248.667 395.5,248C 376.908,245.348 358.408,242.181 340,238.5C 338.697,238.978 337.531,239.645 336.5,240.5C 325.106,239.778 314.44,242.111 304.5,247.5C 301.918,247.253 301.085,245.92 302,243.5C 310.553,238.194 319.886,235.528 330,235.5C 334.555,236.388 339.055,236.388 343.5,235.5C 372.667,240.082 402.001,241.582 431.5,240C 441.693,239.809 450.359,236.309 457.5,229.5 Z"/></g>
<g><path style="opacity:1" fill="#8fd4ac" d="M 338.5,247.5 C 342.216,258.771 344.549,270.437 345.5,282.5C 345.5,283.5 345.5,284.5 345.5,285.5C 345.799,287.604 345.466,289.604 344.5,291.5C 338.253,296.704 331.253,297.87 323.5,295C 318.154,290.988 313.488,286.321 309.5,281C 316.483,267.552 326.149,256.385 338.5,247.5 Z"/></g>
<g><path style="opacity:0.955" fill="#f3ba6b" d="M 207.5,257.5 C 203.015,266.462 197.515,274.795 191,282.5C 190.51,283.793 190.343,285.127 190.5,286.5C 187.881,276.739 185.881,266.739 184.5,256.5C 192.158,256.986 199.825,257.32 207.5,257.5 Z"/></g>
<g><path style="opacity:0.943" fill="#176b3a" d="M 377.5,304.5 C 375.384,293.221 368.884,285.887 358,282.5C 355.594,282.703 353.594,283.703 352,285.5C 351.392,283.934 350.558,282.6 349.5,281.5C 362.843,271.668 372.343,274.668 378,290.5C 378.818,293.107 379.318,295.774 379.5,298.5C 379.639,300.883 378.972,302.883 377.5,304.5 Z"/></g>
<g><path style="opacity:1" fill="#0e572b" d="M 349.5,281.5 C 350.558,282.6 351.392,283.934 352,285.5C 353.594,283.703 355.594,282.703 358,282.5C 368.884,285.887 375.384,293.221 377.5,304.5C 377.5,305.167 377.167,305.5 376.5,305.5C 374.165,297.704 369.498,291.538 362.5,287C 356.255,284.528 351.088,286.028 347,291.5C 346.809,289.292 346.309,287.292 345.5,285.5C 345.5,284.5 345.5,283.5 345.5,282.5C 346.708,281.766 348.041,281.433 349.5,281.5 Z"/></g>
<g><path style="opacity:0.986" fill="#f3b96b" d="M 155.5,287.5 C 156.274,286.853 157.274,286.52 158.5,286.5C 168.7,287.811 178.7,289.478 188.5,291.5C 186.801,291.34 185.134,291.506 183.5,292C 175.562,300.11 166.895,307.277 157.5,313.5C 156.833,304.676 156.167,296.009 155.5,287.5 Z"/></g>
<g><path style="opacity:1" fill="#8ad0a8" d="M 2.5,305.5 C 5.47288,309.14 8.80621,312.473 12.5,315.5C 22.1632,325.832 32.8299,334.999 44.5,343C 73.5,361.333 102.5,379.667 131.5,398C 139.46,403.472 146.793,409.638 153.5,416.5C 143.599,414.049 134.265,410.216 125.5,405C 93.316,381.823 60.316,359.823 26.5,339C 16.3419,331.165 8.17522,321.665 2,310.5C 1.22039,308.613 1.38705,306.946 2.5,305.5 Z"/></g>
<g><path style="opacity:1" fill="#61ba84" d="M 349.5,312.5 C 349.5,317.5 349.5,322.5 349.5,327.5C 348.679,324.359 348.179,321.025 348,317.5C 344.799,321.036 341.299,324.203 337.5,327C 330.638,329.886 323.638,330.22 316.5,328C 308.793,324.433 301.793,319.933 295.5,314.5C 296.046,312.697 296.88,311.03 298,309.5C 303.616,315.906 310.45,320.739 318.5,324C 325.102,326.217 331.436,325.55 337.5,322C 341.394,318.596 345.394,315.429 349.5,312.5 Z"/></g>
<g><path style="opacity:1" fill="#91d5ae" d="M 295.5,314.5 C 301.793,319.933 308.793,324.433 316.5,328C 323.638,330.22 330.638,329.886 337.5,327C 341.299,324.203 344.799,321.036 348,317.5C 348.179,321.025 348.679,324.359 349.5,327.5C 351.316,351.773 349.483,375.773 344,399.5C 342.981,403.397 341.481,407.064 339.5,410.5C 330.344,424.247 317.344,430.914 300.5,430.5C 299.448,430.649 298.448,430.483 297.5,430C 307.23,420.934 311.064,409.768 309,396.5C 306.908,380.292 299.241,367.625 286,358.5C 285.51,357.207 285.343,355.873 285.5,354.5C 287.891,340.934 291.225,327.601 295.5,314.5 Z"/></g>
<g><path style="opacity:1" fill="#e8b064" d="M 207.5,257.5 C 209.435,258.15 211.435,258.483 213.5,258.5C 208.439,268.282 202.606,277.615 196,286.5C 158.947,333.518 112.113,347.352 55.5,328C 41.2859,321.392 27.2859,314.559 13.5,307.5C 19.0793,302.698 25.0793,298.365 31.5,294.5C 33.8333,302.5 36.1667,310.5 38.5,318.5C 46.416,313.959 54.2493,309.293 62,304.5C 66.3333,314.167 70.6667,323.833 75,333.5C 75.5133,332.473 76.0133,331.473 76.5,330.5C 86.8062,331.371 97.1395,331.704 107.5,331.5C 109.148,332.81 110.814,334.143 112.5,335.5C 113.696,333.855 114.696,332.189 115.5,330.5C 127.227,327.638 138.56,323.638 149.5,318.5C 151.258,318.877 152.925,319.544 154.5,320.5C 155.499,309.52 155.832,298.52 155.5,287.5C 156.167,296.009 156.833,304.676 157.5,313.5C 166.895,307.277 175.562,300.11 183.5,292C 185.134,291.506 186.801,291.34 188.5,291.5C 190.256,290.448 190.923,288.781 190.5,286.5C 190.343,285.127 190.51,283.793 191,282.5C 197.515,274.795 203.015,266.462 207.5,257.5 Z"/></g>
<g><path style="opacity:0.954" fill="#f4b96b" d="M 107.5,331.5 C 97.1395,331.704 86.8062,331.371 76.5,330.5C 78.9617,324.243 81.9617,318.243 85.5,312.5C 92.8781,318.885 100.211,325.218 107.5,331.5 Z"/></g>
<g><path style="opacity:0.962" fill="#f4ba6b" d="M 149.5,318.5 C 138.56,323.638 127.227,327.638 115.5,330.5C 117.878,322.013 121.212,314.013 125.5,306.5C 133.592,310.546 141.592,314.546 149.5,318.5 Z"/></g>
<g><path style="opacity:1" fill="#196e3c" d="M 284.5,358.5 C 285.6,359.605 286.267,360.938 286.5,362.5C 285.527,363.984 284.193,364.484 282.5,364C 275.033,356.726 266.033,352.726 255.5,352C 252.826,349.872 252.993,348.039 256,346.5C 266.665,347.884 276.165,351.884 284.5,358.5 Z"/></g>
<g><path style="opacity:1" fill="#60b984" d="M 285.5,354.5 C 285.343,355.873 285.51,357.207 286,358.5C 299.241,367.625 306.908,380.292 309,396.5C 311.064,409.768 307.23,420.934 297.5,430C 298.448,430.483 299.448,430.649 300.5,430.5C 297.038,431.482 293.371,431.815 289.5,431.5C 293.929,428.009 297.429,423.676 300,418.5C 303.713,405.623 303.047,392.956 298,380.5C 294.706,374.063 290.872,368.063 286.5,362.5C 286.267,360.938 285.6,359.605 284.5,358.5C 284.232,356.901 284.566,355.568 285.5,354.5 Z"/></g>
<g><path style="opacity:0.998" fill="#196e3c" d="M 232.5,431.5 C 231.662,431.158 231.328,430.492 231.5,429.5C 234.673,416.014 231.34,404.348 221.5,394.5C 222.693,392.616 224.359,392.116 226.5,393C 236.259,403.286 239.759,415.452 237,429.5C 235.951,431.107 234.451,431.773 232.5,431.5 Z"/></g>
<g><path style="opacity:1" fill="#0e572b" d="M 339.5,410.5 C 337.568,422.433 330.902,430.433 319.5,434.5C 305.978,435.728 292.478,437.061 279,438.5C 277.293,438.492 275.793,438.158 274.5,437.5C 279.824,436.282 284.824,434.282 289.5,431.5C 293.371,431.815 297.038,431.482 300.5,430.5C 317.344,430.914 330.344,424.247 339.5,410.5 Z"/></g>
<g><path style="opacity:0.977" fill="#176c3a" d="M 319.5,434.5 C 317.142,436.129 314.476,437.295 311.5,438C 318.707,437.501 324.873,439.668 330,444.5C 332.166,448.507 331.666,452.174 328.5,455.5C 324.511,457.886 320.177,459.386 315.5,460C 307.827,460.402 300.16,460.902 292.5,461.5C 290.304,461.495 288.304,461.162 286.5,460.5C 293.399,460.622 297.733,457.455 299.5,451C 298.217,445.717 294.884,442.384 289.5,441C 287.934,440.235 286.601,440.402 285.5,441.5C 279.933,440.142 274.266,439.309 268.5,439C 270.518,438.495 272.518,437.995 274.5,437.5C 275.793,438.158 277.293,438.492 279,438.5C 292.478,437.061 305.978,435.728 319.5,434.5 Z"/></g>
<g><path style="opacity:1" fill="#0d562a" d="M 285.5,441.5 C 286.601,440.402 287.934,440.235 289.5,441C 294.884,442.384 298.217,445.717 299.5,451C 297.733,457.455 293.399,460.622 286.5,460.5C 283.833,460.5 281.167,460.5 278.5,460.5C 281.725,459.35 285.058,458.184 288.5,457C 294.378,450.555 293.378,445.389 285.5,441.5 Z"/></g>
</svg>
