<?xml version="1.0" encoding="UTF-8"?>
<!DOCTYPE svg PUBLIC "-//W3C//DTD SVG 1.1//EN" "http://www.w3.org/Graphics/SVG/1.1/DTD/svg11.dtd">
<svg xmlns="http://www.w3.org/2000/svg" version="1.1" viewBox="0 0 512 512" style="shape-rendering:geometricPrecision; text-rendering:geometricPrecision; image-rendering:optimizeQuality; fill-rule:evenodd; clip-rule:evenodd" xmlns:xlink="http://www.w3.org/1999/xlink">
<g><path style="opacity:0.976" fill="#010101" d="M 96.5,-0.5 C 202.5,-0.5 308.5,-0.5 414.5,-0.5C 439.803,8.77192 448.636,26.4386 441,52.5C 437.898,58.9027 433.731,64.4027 428.5,69C 438.667,103.5 448.833,138 459,172.5C 466.635,173.904 472.802,177.738 477.5,184C 481.321,185.832 485.321,187.166 489.5,188C 501.649,194.462 506.815,204.629 505,218.5C 507.464,222.434 509.631,226.434 511.5,230.5C 511.5,235.167 511.5,239.833 511.5,244.5C 508.926,250.613 505.093,255.947 500,260.5C 496.449,279.539 484.949,288.372 465.5,287C 449.675,297.201 435.675,295.201 423.5,281C 405.026,277.591 396.526,266.425 398,247.5C 387.985,232.319 389.652,218.652 403,206.5C 404.469,197.894 408.302,190.561 414.5,184.5C 403.423,148.272 392.757,111.939 382.5,75.5C 367.833,75.5 353.167,75.5 338.5,75.5C 338.5,80.5 338.5,85.5 338.5,90.5C 353.967,93.7986 363.801,103.132 368,118.5C 370.828,134.364 365.995,147.197 353.5,157C 367.988,168.811 372.154,183.644 366,201.5C 363.392,207.716 359.559,213.049 354.5,217.5C 367.329,228.798 371.496,242.798 367,259.5C 365.772,263.059 364.106,266.392 362,269.5C 359.317,272.016 356.817,274.683 354.5,277.5C 368.162,289.811 371.995,304.811 366,322.5C 363.062,328.261 359.229,333.261 354.5,337.5C 368.452,350.142 372.119,365.309 365.5,383C 406.399,386.606 437.566,405.773 459,440.5C 465.033,450.934 468.867,462.1 470.5,474C 468.707,493.272 458.707,505.772 440.5,511.5C 417.833,511.5 395.167,511.5 372.5,511.5C 369.905,509.986 368.571,507.652 368.5,504.5C 368.544,500.91 370.211,498.41 373.5,497C 394.5,496.667 415.5,496.333 436.5,496C 450.592,491.661 456.425,482.161 454,467.5C 438.728,427.563 409.895,404.73 367.5,399C 313.501,398.5 259.501,398.333 205.5,398.5C 183.497,398.333 161.497,398.5 139.5,399C 102.321,405.184 75.8209,425.351 60,459.5C 52.401,476.322 56.901,488.489 73.5,496C 115.499,496.5 157.499,496.667 199.5,496.5C 247.501,496.333 295.501,496.5 343.5,497C 346.892,498.542 348.892,501.042 349.5,504.5C 348.937,507.295 347.604,509.628 345.5,511.5C 253.833,511.5 162.167,511.5 70.5,511.5C 46.2138,502.941 37.0471,485.941 43,460.5C 61.6128,413.592 96.1128,387.592 146.5,382.5C 148.891,377.721 152.224,373.721 156.5,370.5C 142.815,358.094 138.982,343.094 145,325.5C 147.389,318.882 151.556,313.715 157.5,310C 142.003,297.145 138.17,281.311 146,262.5C 148.931,257.733 152.431,253.399 156.5,249.5C 144.78,239.512 140.28,226.845 143,211.5C 145.199,202.772 149.699,195.439 156.5,189.5C 142.591,177.243 138.758,162.243 145,144.5C 150.614,133.394 159.447,126.061 171.5,122.5C 172.499,106.848 172.833,91.1808 172.5,75.5C 157.833,75.5 143.167,75.5 128.5,75.5C 118.243,111.939 107.577,148.272 96.5,184.5C 102.698,190.561 106.531,197.894 108,206.5C 121.349,218.665 123.015,232.332 113,247.5C 114.474,266.425 105.974,277.591 87.5,281C 75.3255,295.201 61.3255,297.201 45.5,287C 26.0642,288.377 14.5642,279.543 11,260.5C 5.41643,256.298 1.5831,250.965 -0.5,244.5C -0.5,239.833 -0.5,235.167 -0.5,230.5C 1.36941,226.434 3.53607,222.434 6,218.5C 4.20324,204.591 9.36991,194.424 21.5,188C 29.4781,187.178 35.8114,183.511 40.5,177C 44.0937,174.783 47.9271,173.283 52,172.5C 56.5115,156.788 61.1781,141.121 66,125.5C 67.7006,121.125 70.8672,119.458 75.5,120.5C 80.1087,122.725 81.6087,126.391 80,131.5C 75.9346,145.863 71.768,160.196 67.5,174.5C 70.4891,180.308 75.1558,181.975 81.5,179.5C 90.1066,152.347 98.1066,125.013 105.5,97.5C 108.283,90.0531 110.616,82.3864 112.5,74.5C 107.167,74.5 101.833,74.5 96.5,74.5C 94.7033,81.8899 92.7033,89.2232 90.5,96.5C 88.6173,100.775 85.284,102.442 80.5,101.5C 77.1471,100.488 75.4805,98.1542 75.5,94.5C 77.4427,85.8961 79.7761,77.3961 82.5,69C 65.3272,53.1273 62.4939,34.9606 74,14.5C 80.0454,7.07808 87.5454,2.07808 96.5,-0.5 Z"/></g>
<g><path style="opacity:1" fill="#80d8e6" d="M 253.5,14.5 C 246.649,29.6123 246.982,44.6123 254.5,59.5C 202.499,59.6667 150.499,59.5 98.5,59C 85.9287,53.7003 80.7621,44.2003 83,30.5C 86.255,22.9107 91.755,17.7441 99.5,15C 150.832,14.5 202.166,14.3333 253.5,14.5 Z"/></g>
<g><path style="opacity:1" fill="#b4e8f0" d="M 253.5,14.5 C 305.501,14.3333 357.501,14.5 409.5,15C 425.289,19.4089 431.123,29.5756 427,45.5C 424.192,52.6615 419.026,57.1615 411.5,59C 359.168,59.5 306.834,59.6667 254.5,59.5C 246.982,44.6123 246.649,29.6123 253.5,14.5 Z"/></g>
<g><path style="opacity:1" fill="#a95d2b" d="M 105.5,97.5 C 100.473,97.4971 95.4725,97.1637 90.5,96.5C 92.7033,89.2232 94.7033,81.8899 96.5,74.5C 101.833,74.5 107.167,74.5 112.5,74.5C 110.616,82.3864 108.283,90.0531 105.5,97.5 Z"/></g>
<g><path style="opacity:1" fill="#555c6c" d="M 321.5,91.5 C 322.449,86.2599 322.782,80.9265 322.5,75.5C 299.5,75.5 276.5,75.5 253.5,75.5C 231.833,75.5 210.167,75.5 188.5,75.5C 188.5,90.1667 188.5,104.833 188.5,119.5C 187.504,104.676 187.171,89.676 187.5,74.5C 232.833,74.5 278.167,74.5 323.5,74.5C 324.117,80.5982 323.45,86.2649 321.5,91.5 Z"/></g>
<g><path style="opacity:1" fill="#c16931" d="M 420.5,96.5 C 415.547,97.3292 410.547,97.6625 405.5,97.5C 402.724,90.0872 400.391,82.4205 398.5,74.5C 403.833,74.5 409.167,74.5 414.5,74.5C 416.297,81.8899 418.297,89.2232 420.5,96.5 Z"/></g>
<g><path style="opacity:1" fill="#6a768f" d="M 253.5,75.5 C 246.091,85.9731 239.424,96.9731 233.5,108.5C 233.624,109.107 233.957,109.44 234.5,109.5C 219.416,113.434 204.083,116.767 188.5,119.5C 188.5,104.833 188.5,90.1667 188.5,75.5C 210.167,75.5 231.833,75.5 253.5,75.5 Z"/></g>
<g><path style="opacity:1" fill="#878fa4" d="M 253.5,75.5 C 276.5,75.5 299.5,75.5 322.5,75.5C 322.782,80.9265 322.449,86.2599 321.5,91.5C 292.507,97.4967 263.507,103.497 234.5,109.5C 233.957,109.44 233.624,109.107 233.5,108.5C 239.424,96.9731 246.091,85.9731 253.5,75.5 Z"/></g>
<g><path style="opacity:0.997" fill="#c36b32" d="M 90.5,96.5 C 95.4725,97.1637 100.473,97.4971 105.5,97.5C 98.1066,125.013 90.1066,152.347 81.5,179.5C 75.1558,181.975 70.4891,180.308 67.5,174.5C 71.768,160.196 75.9346,145.863 80,131.5C 81.6087,126.391 80.1087,122.725 75.5,120.5C 77.0108,114.123 78.6774,107.79 80.5,101.5C 85.284,102.442 88.6173,100.775 90.5,96.5 Z"/></g>
<g><path style="opacity:1" fill="#d4793f" d="M 420.5,96.5 C 428.163,122.482 435.83,148.482 443.5,174.5C 440.369,180.052 435.702,181.719 429.5,179.5C 420.899,152.362 412.899,125.029 405.5,97.5C 410.547,97.6625 415.547,97.3292 420.5,96.5 Z"/></g>
<g><path style="opacity:1" fill="#d67a40" d="M 212.5,174.5 C 214.128,158.347 218.461,142.681 225.5,127.5C 260.153,119.168 295.153,111.835 330.5,105.5C 346.76,106.593 354.26,115.26 353,131.5C 351.078,138.528 346.911,143.694 340.5,147C 297.949,156.743 255.282,165.91 212.5,174.5 Z"/></g>
<g><path style="opacity:1" fill="#c46b32" d="M 225.5,127.5 C 218.461,142.681 214.128,158.347 212.5,174.5C 203.364,176.948 194.031,179.115 184.5,181C 171.169,182.75 162.336,177.25 158,164.5C 156.334,151.665 161.501,142.832 173.5,138C 190.836,134.385 208.169,130.885 225.5,127.5 Z"/></g>
<g><path style="opacity:1" fill="#c56c32" d="M 299.5,224.5 C 293.189,225.607 286.856,226.607 280.5,227.5C 280.768,229.099 280.434,230.432 279.5,231.5C 280.256,225.987 277.923,222.987 272.5,222.5C 250.906,227.219 229.24,231.552 207.5,235.5C 206.341,225.342 206.175,215.008 207,204.5C 207.114,199.652 207.947,194.985 209.5,190.5C 247.555,182.657 285.555,174.49 323.5,166C 343.373,163.219 353.206,171.719 353,191.5C 351.394,198.769 347.227,203.935 340.5,207C 328.224,210.255 315.89,213.255 303.5,216C 300.179,217.812 298.845,220.645 299.5,224.5 Z"/></g>
<g><path style="opacity:1" fill="#c5c2e8" d="M 68.5,194.5 C 64.4966,200.012 60.6633,205.679 57,211.5C 50.5359,224.906 48.8692,238.906 52,253.5C 54.0178,261.242 56.1844,268.908 58.5,276.5C 54.9155,273.876 50.9155,272.043 46.5,271C 41.3859,270.891 36.3859,270.224 31.5,269C 28.7547,263.322 26.2547,257.488 24,251.5C 22.3333,248.5 20,246.167 17,244.5C 15.5961,242.361 14.7628,240.028 14.5,237.5C 15.5171,233.132 17.3505,229.132 20,225.5C 21.1237,219.897 21.7904,214.231 22,208.5C 23.1217,206.376 24.6217,204.543 26.5,203C 32.0604,201.61 37.3938,199.61 42.5,197C 45.2026,193.962 48.2026,191.295 51.5,189C 53.8333,188.333 56.1667,188.333 58.5,189C 61.7234,191.062 65.0568,192.896 68.5,194.5 Z"/></g>
<g><path style="opacity:1" fill="#dcdbf2" d="M 467.5,196.5 C 446.436,215.109 441.603,237.442 453,263.5C 454.357,266.898 456.19,269.898 458.5,272.5C 454.6,276.283 449.934,278.116 444.5,278C 440.525,274.696 436.525,271.363 432.5,268C 426.943,266.494 421.609,264.494 416.5,262C 415.54,260.581 414.707,259.081 414,257.5C 413.667,252.5 413.333,247.5 413,242.5C 410.129,238.138 407.962,233.472 406.5,228.5C 406.577,226.701 407.077,225.034 408,223.5C 415.706,217.756 420.039,210.09 421,200.5C 422.167,199.333 423.333,198.167 424.5,197C 429.721,195.768 435.054,195.101 440.5,195C 444.615,193.777 448.282,191.777 451.5,189C 458.724,187.445 464.057,189.945 467.5,196.5 Z"/></g>
<g><path style="opacity:1" fill="#ad5e2c" d="M 209.5,190.5 C 207.947,194.985 207.114,199.652 207,204.5C 206.175,215.008 206.341,225.342 207.5,235.5C 196.552,239.158 185.219,240.991 173.5,241C 158.275,233.993 154.108,222.826 161,207.5C 164.414,202.748 168.914,199.581 174.5,198C 186.199,195.56 197.866,193.06 209.5,190.5 Z"/></g>
<g><path style="opacity:1" fill="#dcdbf3" d="M 68.5,194.5 C 74.5791,194.953 80.5791,195.787 86.5,197C 87.6667,198.167 88.8333,199.333 90,200.5C 90.9607,210.09 95.2941,217.756 103,223.5C 103.923,225.034 104.423,226.701 104.5,228.5C 103.038,233.472 100.871,238.138 98,242.5C 97.6667,247.5 97.3333,252.5 97,257.5C 96.3333,258.833 95.6667,260.167 95,261.5C 89.5329,263.666 84.0329,265.832 78.5,268C 74.4752,271.363 70.4752,274.696 66.5,278C 63.5929,278.718 60.9262,278.218 58.5,276.5C 56.1844,268.908 54.0178,261.242 52,253.5C 48.8692,238.906 50.5359,224.906 57,211.5C 60.6633,205.679 64.4966,200.012 68.5,194.5 Z"/></g>
<g><path style="opacity:1" fill="#e9e9f7" d="M 467.5,196.5 C 472.081,199.456 477.081,201.289 482.5,202C 484.624,203.122 486.457,204.622 488,206.5C 489.101,212.785 490.101,219.119 491,225.5C 493.65,229.132 495.483,233.132 496.5,237.5C 496.237,240.028 495.404,242.361 494,244.5C 487.513,249.133 483.846,255.466 483,263.5C 482.208,265.587 481.041,267.421 479.5,269C 472.472,269.979 465.472,271.145 458.5,272.5C 456.19,269.898 454.357,266.898 453,263.5C 441.603,237.442 446.436,215.109 467.5,196.5 Z"/></g>
<g><path style="opacity:1" fill="#d77a40" d="M 299.5,224.5 C 300.68,228.015 303.18,229.682 307,229.5C 314.968,227.906 322.968,226.573 331,225.5C 344.694,226.194 352.194,233.36 353.5,247C 352.654,258.516 346.654,265.849 335.5,269C 295.155,277.501 254.821,286.001 214.5,294.5C 213.778,294.082 213.278,293.416 213,292.5C 210.448,278.913 208.615,265.246 207.5,251.5C 230.564,246.765 253.564,241.599 276.5,236C 278.141,234.871 279.141,233.371 279.5,231.5C 280.434,230.432 280.768,229.099 280.5,227.5C 286.856,226.607 293.189,225.607 299.5,224.5 Z"/></g>
<g><path style="opacity:1" fill="#c46b32" d="M 207.5,251.5 C 208.615,265.246 210.448,278.913 213,292.5C 213.278,293.416 213.778,294.082 214.5,294.5C 201.219,298.602 187.552,300.769 173.5,301C 165.693,298.526 160.526,293.359 158,285.5C 156.362,271.615 162.195,262.449 175.5,258C 186.141,255.638 196.808,253.472 207.5,251.5 Z"/></g>
<g><path style="opacity:1" fill="#c56b32" d="M 234.5,350.5 C 232.549,350.773 231.049,350.107 230,348.5C 225.125,335.708 220.958,322.708 217.5,309.5C 252.455,301.845 287.455,294.345 322.5,287C 340.27,282.974 350.603,289.808 353.5,307.5C 353.014,317.158 348.348,323.991 339.5,328C 304.56,335.814 269.56,343.314 234.5,350.5 Z"/></g>
<g><path style="opacity:1" fill="#ad5f2c" d="M 217.5,309.5 C 220.958,322.708 225.125,335.708 230,348.5C 231.049,350.107 232.549,350.773 234.5,350.5C 216.578,354.852 198.411,358.518 180,361.5C 163.568,360.058 156.235,351.058 158,334.5C 160.435,327.066 165.268,321.899 172.5,319C 187.48,315.638 202.48,312.471 217.5,309.5 Z"/></g>
<g><path style="opacity:1" fill="#d77a40" d="M 245.5,383.5 C 242.836,377.504 240.169,371.504 237.5,365.5C 268.402,358.586 299.402,351.919 330.5,345.5C 346.589,347.417 354.089,356.417 353,372.5C 351.819,376.363 349.986,379.863 347.5,383C 313.502,383.5 279.502,383.667 245.5,383.5 Z"/></g>
<g><path style="opacity:1" fill="#c36b32" d="M 237.5,365.5 C 240.169,371.504 242.836,377.504 245.5,383.5C 219.165,383.667 192.831,383.5 166.5,383C 169.789,380.522 173.456,378.856 177.5,378C 197.474,373.639 217.474,369.472 237.5,365.5 Z"/></g>
<g><path style="opacity:1" fill="#80d8e5" d="M 205.5,398.5 C 202.38,402.792 199.047,406.959 195.5,411C 196.416,411.278 197.082,411.778 197.5,412.5C 181.812,412.189 173.478,419.855 172.5,435.5C 161.706,437.134 153.873,442.801 149,452.5C 147.334,465.335 152.501,474.168 164.5,479C 172.755,482.055 181.088,482.221 189.5,479.5C 192.566,485.296 195.9,490.962 199.5,496.5C 157.499,496.667 115.499,496.5 73.5,496C 56.901,488.489 52.401,476.322 60,459.5C 75.8209,425.351 102.321,405.184 139.5,399C 161.497,398.5 183.497,398.333 205.5,398.5 Z"/></g>
<g><path style="opacity:0.999" fill="#b4e7ef" d="M 205.5,398.5 C 259.501,398.333 313.501,398.5 367.5,399C 409.895,404.73 438.728,427.563 454,467.5C 456.425,482.161 450.592,491.661 436.5,496C 415.5,496.333 394.5,496.667 373.5,497C 370.211,498.41 368.544,500.91 368.5,504.5C 362.167,504.5 355.833,504.5 349.5,504.5C 348.892,501.042 346.892,498.542 343.5,497C 295.501,496.5 247.501,496.333 199.5,496.5C 195.9,490.962 192.566,485.296 189.5,479.5C 204.827,472.681 208.994,461.681 202,446.5C 198.023,441.774 193.189,438.441 187.5,436.5C 186.992,429.175 190.326,426.342 197.5,428C 199.968,430.228 201.135,433.062 201,436.5C 206.081,441.986 210.748,441.653 215,435.5C 215.469,423.127 209.636,415.46 197.5,412.5C 197.082,411.778 196.416,411.278 195.5,411C 199.047,406.959 202.38,402.792 205.5,398.5 Z"/></g>
<g><path style="opacity:1" fill="#040606" d="M 197.5,412.5 C 209.636,415.46 215.469,423.127 215,435.5C 210.748,441.653 206.081,441.986 201,436.5C 201.135,433.062 199.968,430.228 197.5,428C 190.326,426.342 186.992,429.175 187.5,436.5C 182.012,442.093 177.012,441.76 172.5,435.5C 173.478,419.855 181.812,412.189 197.5,412.5 Z"/></g>
<g><path style="opacity:1" fill="#040606" d="M 338.5,435.5 C 333.904,441.654 328.904,441.987 323.5,436.5C 324.008,429.175 320.674,426.342 313.5,428C 311.032,430.228 309.865,433.062 310,436.5C 304.833,442.092 300.167,441.759 296,435.5C 297.302,416.883 307.136,409.717 325.5,414C 334.198,418.531 338.531,425.697 338.5,435.5 Z"/></g>
<g><path style="opacity:1" fill="#fda1ac" d="M 172.5,435.5 C 177.012,441.76 182.012,442.093 187.5,436.5C 193.189,438.441 198.023,441.774 202,446.5C 208.994,461.681 204.827,472.681 189.5,479.5C 181.088,482.221 172.755,482.055 164.5,479C 152.501,474.168 147.334,465.335 149,452.5C 153.873,442.801 161.706,437.134 172.5,435.5 Z"/></g>
<g><path style="opacity:1" fill="#fea1ac" d="M 338.5,435.5 C 352.019,437.026 360.019,444.359 362.5,457.5C 361.653,468.034 356.32,475.201 346.5,479C 332.746,484.018 320.58,481.518 310,471.5C 302.749,459.979 304.249,449.812 314.5,441C 317.527,439.487 320.527,437.987 323.5,436.5C 328.904,441.987 333.904,441.654 338.5,435.5 Z"/></g>
<g><path style="opacity:1" fill="#060808" d="M 238.5,441.5 C 242.902,441.701 246.568,443.534 249.5,447C 253.471,448.913 257.471,448.913 261.5,447C 266.688,440.006 271.855,439.84 277,446.5C 277.804,450.07 276.97,453.237 274.5,456C 260.517,466.681 247.351,465.847 235,453.5C 232.458,448.361 233.624,444.361 238.5,441.5 Z"/></g>
</svg>
